<svg xmlns="http://www.w3.org/2000/svg" width="30" height="40"><defs><clipPath id="a"><path d="M0 0h30v40H0z"/></clipPath></defs><g clip-path="url(#a)"><path data-name="Path 2108" d="M29.423 25.109a.574.574 0 0 1-.577-.572v-1.68a.577.577 0 0 1 1.154 0v1.68a.574.574 0 0 1-.577.572Z" fill="#57646e"/><path data-name="Path 2109" d="M29.423 40H.577A.574.574 0 0 1 0 39.429V.571A.574.574 0 0 1 .577 0h20.769a.58.58 0 0 1 .408.167l8.077 8a.569.569 0 0 1 .169.4v10.28a.577.577 0 0 1-1.154 0V8.808l-7.739-7.665H1.154v37.714h27.692v-4.64a.577.577 0 0 1 1.154 0v5.211a.574.574 0 0 1-.577.572Z" fill="#57646e"/><path data-name="Path 2110" d="M29.423 30.789a.574.574 0 0 1-.577-.572v-1.68a.577.577 0 0 1 1.154 0v1.68a.574.574 0 0 1-.577.572Z" fill="#57646e"/><path data-name="Path 2111" d="M29.423 9.143h-8.077a.574.574 0 0 1-.577-.572v-8a.577.577 0 0 1 1.154 0V8h7.5a.572.572 0 1 1 0 1.143Z" fill="#57646e"/><path data-name="Path 2112" d="M25.384 20H4.615a.572.572 0 1 1 0-1.143h20.769a.572.572 0 1 1 0 1.143Z" fill="#57646e"/><path data-name="Path 2113" d="M25.384 14.286H4.615a.572.572 0 1 1 0-1.143h20.769a.572.572 0 1 1 0 1.143Z" fill="#57646e"/><path data-name="Path 2114" d="M17.307 8.572H4.615a.572.572 0 1 1 0-1.143h12.692a.572.572 0 1 1 0 1.143Z" fill="#57646e"/><path data-name="Union 6" d="M8.492 35.429a.574.574 0 0 1-.578-.572v-2.636a.577.577 0 0 1 1.155 0v2.066h11.863v-2.066a.577.577 0 0 1 1.154 0v2.636a.574.574 0 0 1-.576.571Zm6.48-2.878H14.83l-.016-.03h-.012l-.014-.006h-.012l-.013-.006-.012-.005-.014-.007-.011-.006-.012-.016-.01-.005-.019-.013a.579.579 0 0 1-.1-.08l-2.688-2.663a.567.567 0 0 1 0-.808.58.58 0 0 1 .816 0l1.71 1.693v-7.17a.577.577 0 0 1 1.154 0v7.172l1.71-1.694a.58.58 0 0 1 .816 0 .567.567 0 0 1 0 .808l-2.694 2.669a.583.583 0 0 1-.105.082l-.012.007-.014.008a.576.576 0 0 1-.239.064h-.067Z" fill="#57bc00"/></g></svg>