<svg xmlns="http://www.w3.org/2000/svg" xmlns:xlink="http://www.w3.org/1999/xlink" width="540" height="211" viewBox="0 0 540 211">
  <defs>
    <clipPath id="clip-path">
      <rect id="Rectangle_91" data-name="Rectangle 91" width="230" height="60" fill="#666"/>
    </clipPath>
    <clipPath id="clip-news-cover-placeholder">
      <rect width="540" height="211"/>
    </clipPath>
  </defs>
  <g id="news-cover-placeholder" clip-path="url(#clip-news-cover-placeholder)">
    <rect width="540" height="211" fill="#fff"/>
    <rect id="Rectangle_227" data-name="Rectangle 227" width="540" height="211" fill="#f0f0f0"/>
    <g id="Group_11105" data-name="Group 11105" transform="translate(289.924 130.655)" opacity="0.506">
      <g id="Group_7180" data-name="Group 7180" transform="translate(0.076 0.345)" clip-path="url(#clip-path)">
        <path id="Path_43" data-name="Path 43" d="M133.915,44.165a10.246,10.246,0,0,1-2.986-1.713L133,39.506a9.787,9.787,0,0,0,2.219,1.37,5.468,5.468,0,0,0,2.152.445,2.806,2.806,0,0,0,1.7-.428,1.434,1.434,0,0,0,.567-1.216,1.263,1.263,0,0,0-.45-.959,4.649,4.649,0,0,0-1.285-.771q-.835-.359-1.668-.7a10.452,10.452,0,0,1-3.22-1.936,3.917,3.917,0,0,1-1.251-3.032,4.747,4.747,0,0,1,1.7-3.785,6.692,6.692,0,0,1,4.5-1.456,8.917,8.917,0,0,1,5.706,2.124l-2.035,2.809A6.232,6.232,0,0,0,138.1,30.53a2.461,2.461,0,0,0-1.552.411,1.328,1.328,0,0,0-.517,1.1,1.28,1.28,0,0,0,.667,1.113,7.416,7.416,0,0,0,1.535.737q.867.308,1.135.411a10.184,10.184,0,0,1,3.32,1.9,4.122,4.122,0,0,1,1.218,3.2,4.979,4.979,0,0,1-.784,2.758,5.422,5.422,0,0,1-2.286,1.936,8.277,8.277,0,0,1-3.6.719,9.362,9.362,0,0,1-3.32-.651" transform="translate(-101.88 -21.218)" fill="#666"/>
        <path id="Path_44" data-name="Path 44" d="M210.776,36.961H197.44a4.591,4.591,0,0,0,1.543,2.881,4.761,4.761,0,0,0,3.2,1.069,5.461,5.461,0,0,0,4-1.67l3.5,1.686a8.325,8.325,0,0,1-3.133,2.818,9.581,9.581,0,0,1-4.334.913,8.446,8.446,0,0,1-6.341-2.521,8.7,8.7,0,0,1-2.448-6.315,9,9,0,0,1,2.441-6.456,8.091,8.091,0,0,1,6.121-2.568,8.387,8.387,0,0,1,6.357,2.568,9.424,9.424,0,0,1,2.448,6.784ZM206.625,33.6A4.272,4.272,0,0,0,205,31.293a4.619,4.619,0,0,0-2.81-.89,4.883,4.883,0,0,0-3.046,1,5.567,5.567,0,0,0-1.523,2.2Z" transform="translate(-150.473 -21.034)" fill="#666"/>
        <path id="Path_45" data-name="Path 45" d="M294.309,30.669l-3.456,1.952a5.875,5.875,0,0,0-1.926-1.452,5.654,5.654,0,0,0-2.231-.406,5.12,5.12,0,0,0-3.768,1.426,4.925,4.925,0,0,0-1.439,3.655,4.762,4.762,0,0,0,1.386,3.539,4.947,4.947,0,0,0,3.639,1.372,5.231,5.231,0,0,0,4.339-1.952l3.273,2.3a9.244,9.244,0,0,1-15.617-9.857,8.577,8.577,0,0,1,3.353-3.263,9.8,9.8,0,0,1,4.813-1.186A9.55,9.55,0,0,1,291.1,27.8a8.469,8.469,0,0,1,3.209,2.865" transform="translate(-215.696 -21.034)" fill="#666"/>
        <path id="Path_46" data-name="Path 46" d="M369.9,26.8a8.793,8.793,0,0,1,7.619,4.465,8.95,8.95,0,0,1,1.156,4.45,9.1,9.1,0,0,1-1.163,4.5,8.552,8.552,0,0,1-7.6,4.45,8.148,8.148,0,0,1-6.075-2.6,8.742,8.742,0,0,1-2.517-6.315,8.7,8.7,0,0,1,2.844-6.635A8.19,8.19,0,0,1,369.9,26.8m.069,4.012a4.219,4.219,0,0,0-3.222,1.382,4.98,4.98,0,0,0-1.287,3.536,5.075,5.075,0,0,0,1.272,3.591,4.2,4.2,0,0,0,3.222,1.374A4.25,4.25,0,0,0,373.2,39.3a5.037,5.037,0,0,0,1.295-3.575,5.005,5.005,0,0,0-1.272-3.552,4.247,4.247,0,0,0-3.252-1.366" transform="translate(-281.025 -21.034)" fill="#666"/>
        <path id="Path_47" data-name="Path 47" d="M448.969,27.234h4.151v1.741a9.933,9.933,0,0,1,2.559-1.7,6.04,6.04,0,0,1,2.346-.478,5.606,5.606,0,0,1,4.176,1.764A6.158,6.158,0,0,1,463.644,33V44.22h-4.106V36.782a19.3,19.3,0,0,0-.266-4.039,2.772,2.772,0,0,0-.925-1.52,2.544,2.544,0,0,0-1.631-.523,3.013,3.013,0,0,0-2.162.866,4.655,4.655,0,0,0-1.252,2.394,19.831,19.831,0,0,0-.182,3.446V44.22h-4.151Z" transform="translate(-349.17 -21.034)" fill="#666"/>
        <path id="Path_48" data-name="Path 48" d="M536.937,0h4.151V23.544h-4.151v-1.8a8.137,8.137,0,0,1-2.438,1.71,6.672,6.672,0,0,1-2.651.523,7.28,7.28,0,0,1-5.544-2.553,9.039,9.039,0,0,1-2.339-6.346,9.269,9.269,0,0,1,2.263-6.448,7.129,7.129,0,0,1,5.5-2.514,6.833,6.833,0,0,1,2.795.578,7.631,7.631,0,0,1,2.415,1.733Zm-4.364,10.054a4.144,4.144,0,0,0-3.2,1.4,5.115,5.115,0,0,0-1.273,3.583,5.167,5.167,0,0,0,1.3,3.622,4.148,4.148,0,0,0,3.19,1.421,4.222,4.222,0,0,0,3.243-1.4,5.187,5.187,0,0,0,1.289-3.661,5.037,5.037,0,0,0-1.289-3.591,4.274,4.274,0,0,0-3.258-1.374" transform="translate(-407.484 -0.357)" fill="#666"/>
        <path id="Path_49" data-name="Path 49" d="M611.058,44.165a10.251,10.251,0,0,1-2.987-1.713l2.069-2.946a9.783,9.783,0,0,0,2.219,1.37,5.467,5.467,0,0,0,2.152.445,2.806,2.806,0,0,0,1.7-.428,1.434,1.434,0,0,0,.567-1.216,1.263,1.263,0,0,0-.451-.959,4.645,4.645,0,0,0-1.284-.771q-.835-.359-1.668-.7a10.454,10.454,0,0,1-3.22-1.936,3.917,3.917,0,0,1-1.251-3.032,4.747,4.747,0,0,1,1.7-3.785,6.691,6.691,0,0,1,4.5-1.456,8.918,8.918,0,0,1,5.706,2.124l-2.035,2.809a6.233,6.233,0,0,0-3.537-1.439,2.46,2.46,0,0,0-1.551.411,1.328,1.328,0,0,0-.517,1.1,1.28,1.28,0,0,0,.667,1.113,7.418,7.418,0,0,0,1.535.737q.867.308,1.134.411a10.182,10.182,0,0,1,3.32,1.9,4.122,4.122,0,0,1,1.218,3.2,4.979,4.979,0,0,1-.784,2.758,5.42,5.42,0,0,1-2.285,1.936,8.277,8.277,0,0,1-3.6.719,9.361,9.361,0,0,1-3.32-.651" transform="translate(-472.879 -21.218)" fill="#666"/>
        <path id="Path_50" data-name="Path 50" d="M679.009,26.8a8.793,8.793,0,0,1,7.619,4.465,8.95,8.95,0,0,1,1.156,4.45,9.1,9.1,0,0,1-1.163,4.5,8.552,8.552,0,0,1-7.6,4.45,8.148,8.148,0,0,1-6.075-2.6,8.742,8.742,0,0,1-2.517-6.315,8.7,8.7,0,0,1,2.844-6.635,8.19,8.19,0,0,1,5.733-2.311m.068,4.012a4.219,4.219,0,0,0-3.222,1.382,4.98,4.98,0,0,0-1.287,3.536,5.075,5.075,0,0,0,1.272,3.591,4.2,4.2,0,0,0,3.222,1.374,4.249,4.249,0,0,0,3.245-1.389,5.037,5.037,0,0,0,1.295-3.575,5,5,0,0,0-1.272-3.552,4.247,4.247,0,0,0-3.252-1.366" transform="translate(-521.368 -21.034)" fill="#666"/>
        <path id="Path_51" data-name="Path 51" d="M758.005,28.711h4.2v8.181a11.623,11.623,0,0,0,.32,3.318,2.754,2.754,0,0,0,2.775,1.959,2.808,2.808,0,0,0,2.835-2,11.712,11.712,0,0,0,.259-3.138V28.711h4.152v7.2A18.093,18.093,0,0,1,771.858,42a6.6,6.6,0,0,1-2.464,3.068,7.389,7.389,0,0,1-4.136,1.07,7.2,7.2,0,0,1-4.4-1.249,6.6,6.6,0,0,1-2.364-3.481,21.636,21.636,0,0,1-.487-5.62Z" transform="translate(-589.459 -22.511)" fill="#666"/>
        <path id="Path_52" data-name="Path 52" d="M832.112,27.234h3.558v2.139a4.54,4.54,0,0,1,1.536-1.92,3.638,3.638,0,0,1,2.1-.656,3.806,3.806,0,0,1,1.688.437L839.7,30.9a2.8,2.8,0,0,0-1.2-.375,1.9,1.9,0,0,0-1.619,1.218,11.406,11.406,0,0,0-.662,4.777l.015.827V44.22h-4.121Z" transform="translate(-647.081 -21.034)" fill="#666"/>
        <path id="Path_53" data-name="Path 53" d="M889.041,30.669l-3.456,1.952a5.873,5.873,0,0,0-1.926-1.452,5.651,5.651,0,0,0-2.23-.406,5.12,5.12,0,0,0-3.768,1.426,4.925,4.925,0,0,0-1.439,3.655,4.762,4.762,0,0,0,1.386,3.539,4.947,4.947,0,0,0,3.638,1.372,5.232,5.232,0,0,0,4.339-1.952l3.274,2.3a9.245,9.245,0,0,1-15.618-9.857,8.579,8.579,0,0,1,3.353-3.263,9.8,9.8,0,0,1,4.813-1.186,9.551,9.551,0,0,1,4.425,1.007,8.473,8.473,0,0,1,3.209,2.865" transform="translate(-678.126 -21.034)" fill="#666"/>
        <path id="Path_54" data-name="Path 54" d="M973.546,36.961H960.21a4.591,4.591,0,0,0,1.543,2.881,4.761,4.761,0,0,0,3.2,1.069,5.462,5.462,0,0,0,4-1.67l3.5,1.686a8.326,8.326,0,0,1-3.132,2.818,9.582,9.582,0,0,1-4.334.913,8.446,8.446,0,0,1-6.341-2.521,8.7,8.7,0,0,1-2.448-6.315,9,9,0,0,1,2.441-6.456,8.091,8.091,0,0,1,6.121-2.568,8.387,8.387,0,0,1,6.357,2.568,9.424,9.424,0,0,1,2.448,6.784ZM969.395,33.6a4.273,4.273,0,0,0-1.622-2.311,4.619,4.619,0,0,0-2.811-.89,4.884,4.884,0,0,0-3.046,1,5.567,5.567,0,0,0-1.523,2.2Z" transform="translate(-743.561 -21.034)" fill="#666"/>
        <path id="Path_55" data-name="Path 55" d="M702.027,143.68h2.609v1.227a4.465,4.465,0,0,1,1.488-1.128,4.25,4.25,0,0,1,1.784-.373,3.254,3.254,0,0,1,1.76.491,3.516,3.516,0,0,1,1.263,1.433,4.259,4.259,0,0,1,1.526-1.433,4.078,4.078,0,0,1,1.975-.491,3.584,3.584,0,0,1,1.951.53,3.036,3.036,0,0,1,1.21,1.384,7.577,7.577,0,0,1,.368,2.777v6.261h-2.629V148.94a4.74,4.74,0,0,0-.44-2.458,1.492,1.492,0,0,0-1.319-.643,1.965,1.965,0,0,0-1.2.393,2.314,2.314,0,0,0-.789,1.084,6.9,6.9,0,0,0-.258,2.223v4.818H708.7v-5.172a7.46,7.46,0,0,0-.206-2.075,1.881,1.881,0,0,0-.618-.957,1.6,1.6,0,0,0-1-.314,1.93,1.93,0,0,0-1.184.4,2.368,2.368,0,0,0-.8,1.114,7.055,7.055,0,0,0-.264,2.257v4.75h-2.609Z" transform="translate(-545.934 -111.01)" fill="#666"/>
        <path id="Path_56" data-name="Path 56" d="M790.023,149.793h-8.383a2.885,2.885,0,0,0,.97,1.811,2.992,2.992,0,0,0,2.012.672,3.433,3.433,0,0,0,2.514-1.05l2.2,1.06a5.233,5.233,0,0,1-1.969,1.771,6.021,6.021,0,0,1-2.724.574,5.308,5.308,0,0,1-3.986-1.585,5.469,5.469,0,0,1-1.539-3.969,5.657,5.657,0,0,1,1.534-4.058A5.086,5.086,0,0,1,784.5,143.4a5.271,5.271,0,0,1,4,1.614,5.924,5.924,0,0,1,1.539,4.264Zm-2.609-2.11a2.686,2.686,0,0,0-1.02-1.452,2.9,2.9,0,0,0-1.767-.56,3.07,3.07,0,0,0-1.915.628,3.5,3.5,0,0,0-.957,1.384Z" transform="translate(-605.875 -111.01)" fill="#666"/>
        <path id="Path_57" data-name="Path 57" d="M840.125,126.561h2.61v14.8h-2.61v-1.128a5.108,5.108,0,0,1-1.533,1.075,4.192,4.192,0,0,1-1.666.329,4.576,4.576,0,0,1-3.485-1.6,5.682,5.682,0,0,1-1.47-3.989,5.827,5.827,0,0,1,1.423-4.053,4.481,4.481,0,0,1,3.456-1.58,4.294,4.294,0,0,1,1.757.363,4.8,4.8,0,0,1,1.518,1.089Zm-2.743,6.32a2.6,2.6,0,0,0-2.01.878,3.214,3.214,0,0,0-.8,2.252,3.248,3.248,0,0,0,.814,2.277,2.608,2.608,0,0,0,2.005.893,2.654,2.654,0,0,0,2.039-.878,3.261,3.261,0,0,0,.81-2.3,3.168,3.168,0,0,0-.81-2.257,2.688,2.688,0,0,0-2.048-.864" transform="translate(-646.972 -98.013)" fill="#666"/>
        <path id="Path_58" data-name="Path 58" d="M887.474,125.358a1.576,1.576,0,0,1,1.177.51,1.72,1.72,0,0,1,.491,1.236,1.7,1.7,0,0,1-.486,1.222,1.556,1.556,0,0,1-1.163.505,1.579,1.579,0,0,1-1.187-.515,1.748,1.748,0,0,1-.491-1.251,1.67,1.67,0,0,1,.486-1.207,1.575,1.575,0,0,1,1.173-.5m-1.3,4.4h2.609v10.677h-2.609Z" transform="translate(-688.838 -97.085)" fill="#666"/>
        <path id="Path_59" data-name="Path 59" d="M914.68,145.839l-2.172,1.227a3.694,3.694,0,0,0-1.211-.913,3.556,3.556,0,0,0-1.4-.255,3.218,3.218,0,0,0-2.369.9,3.1,3.1,0,0,0-.9,2.3,2.994,2.994,0,0,0,.871,2.224,3.109,3.109,0,0,0,2.287.862,3.289,3.289,0,0,0,2.728-1.227l2.057,1.446a5.811,5.811,0,0,1-9.817-6.2,5.392,5.392,0,0,1,2.108-2.051,6.163,6.163,0,0,1,3.025-.746,6,6,0,0,1,2.782.633,5.324,5.324,0,0,1,2.017,1.8" transform="translate(-702.973 -111.01)" fill="#666"/>
        <path id="Path_60" data-name="Path 60" d="M965.089,143.68H967.7v10.677h-2.609v-1.128a5.113,5.113,0,0,1-1.532,1.075,4.193,4.193,0,0,1-1.666.329,4.576,4.576,0,0,1-3.485-1.6,5.681,5.681,0,0,1-1.47-3.989,5.828,5.828,0,0,1,1.422-4.053,4.482,4.482,0,0,1,3.456-1.58,4.293,4.293,0,0,1,1.757.363,4.8,4.8,0,0,1,1.518,1.089Zm-2.743,2.2a2.6,2.6,0,0,0-2.01.878,3.215,3.215,0,0,0-.8,2.252,3.248,3.248,0,0,0,.815,2.277,2.608,2.608,0,0,0,2.005.893,2.653,2.653,0,0,0,2.039-.878,3.26,3.26,0,0,0,.81-2.3,3.167,3.167,0,0,0-.81-2.257,2.687,2.687,0,0,0-2.048-.864" transform="translate(-744.137 -111.01)" fill="#666"/>
        <rect id="Rectangle_88" data-name="Rectangle 88" width="2.609" height="14.799" transform="translate(225.13 28.548)" fill="#666"/>
        <path id="Path_61" data-name="Path 61" d="M5.617,35.592h0a.987.987,0,0,1,.859-.509H13.53a1.306,1.306,0,0,0,1.136-.673l1.585-2.818a.613.613,0,0,0-.517-.919H3.035a1.306,1.306,0,0,0-1.136.674L.176,34.41a1.378,1.378,0,0,0,0,1.347L6.67,47.3a1.306,1.306,0,0,0,1.136.673H19.648a1.306,1.306,0,0,0,1.136-.673l1.585-2.818a.613.613,0,0,0-.517-.919H10.1a.987.987,0,0,1-.859-.509L5.617,36.61a1.042,1.042,0,0,1,0-1.018" transform="translate(-0.077 -24.024)" fill="#666"/>
        <path id="Path_62" data-name="Path 62" d="M37.138,2.444H25.3a1.306,1.306,0,0,0-1.136.674L22.574,5.936a.613.613,0,0,0,.517.919H34.842a.988.988,0,0,1,.859.509l3.625,6.447a1.041,1.041,0,0,1,0,1.018.987.987,0,0,1-.859.509H31.389a1.306,1.306,0,0,0-1.136.674l-1.585,2.818a.613.613,0,0,0,.517.919H40.763a1.306,1.306,0,0,0,1.136-.673l2.3-4.082a1.379,1.379,0,0,0,0-1.347L38.274,3.118a1.306,1.306,0,0,0-1.136-.674" transform="translate(-17.566 -2.242)" fill="#666"/>
        <path id="Path_63" data-name="Path 63" d="M394.079,228.243a2.314,2.314,0,0,0-.674-.507,2.983,2.983,0,0,0-1.327-.283,3.2,3.2,0,0,0-1.6.4,3.061,3.061,0,0,0-1.13,1.084,3.023,3.023,0,0,0,0,3.058,3.012,3.012,0,0,0,1.13,1.077,3.236,3.236,0,0,0,1.6.4,3.03,3.03,0,0,0,1.335-.287,2.262,2.262,0,0,0,.666-.475v.642l1.5,0v-5.777h-1.5Zm-1.756,3.976a2.007,2.007,0,0,1-.957-.224,1.662,1.662,0,0,1-.653-.62,1.872,1.872,0,0,1,0-1.829,1.662,1.662,0,0,1,.653-.62,2,2,0,0,1,.96-.221,2.03,2.03,0,0,1,.97.221,1.618,1.618,0,0,1,.647.62,1.782,1.782,0,0,1,.232.914,1.682,1.682,0,0,1-.51,1.264,1.848,1.848,0,0,1-1.341.494" transform="translate(-302.489 -175.862)" fill="#666"/>
        <path id="Path_64" data-name="Path 64" d="M684.857,228.664a2.254,2.254,0,0,0-.681-.452,3.46,3.46,0,0,0-1.421-.272,3.559,3.559,0,0,0-1.641.373,2.941,2.941,0,0,0-1.151,1.014,2.582,2.582,0,0,0-.419,1.447,2.642,2.642,0,0,0,.419,1.458,2.907,2.907,0,0,0,1.151,1.025,3.56,3.56,0,0,0,1.641.373,3.419,3.419,0,0,0,1.406-.272,2.284,2.284,0,0,0,.7-.464v.617a1.275,1.275,0,0,1-.539,1.085,2.419,2.419,0,0,1-1.463.4,3.356,3.356,0,0,1-1.265-.214,2.709,2.709,0,0,1-.938-.64l-1.023.853a3.251,3.251,0,0,0,1.307.919,5.033,5.033,0,0,0,1.89.327,4.768,4.768,0,0,0,1.875-.343,2.989,2.989,0,0,0,1.265-.954,2.327,2.327,0,0,0,.455-1.429v-5.454h-1.563Zm-.8,3.531a2.3,2.3,0,0,1-.994.2,2.35,2.35,0,0,1-1-.2,1.584,1.584,0,0,1-.675-.569,1.6,1.6,0,0,1,0-1.689,1.6,1.6,0,0,1,.675-.563,2.353,2.353,0,0,1,1-.2,2.307,2.307,0,0,1,.994.2,1.56,1.56,0,0,1,.661.563,1.654,1.654,0,0,1,0,1.7,1.56,1.56,0,0,1-.661.563" transform="translate(-528.452 -176.238)" fill="#666"/>
        <path id="Path_65" data-name="Path 65" d="M648.974,228.323a4.127,4.127,0,0,0-1.819-.391,4.044,4.044,0,0,0-1.805.4,3.373,3.373,0,0,0-1.286,1.062,2.5,2.5,0,0,0-.475,1.495,2.555,2.555,0,0,0,.475,1.505,3.331,3.331,0,0,0,1.286,1.072,4.041,4.041,0,0,0,1.805.4h0a4.073,4.073,0,0,0,1.821-.4,3.328,3.328,0,0,0,1.286-1.072,2.555,2.555,0,0,0,.476-1.506,2.529,2.529,0,0,0-.476-1.5,3.3,3.3,0,0,0-1.286-1.062m-.093,3.449a1.679,1.679,0,0,1-.7.611,2.314,2.314,0,0,1-1.03.221h0a2.279,2.279,0,0,1-1.014-.221,1.679,1.679,0,0,1-.7-.611,1.625,1.625,0,0,1-.249-.885,1.566,1.566,0,0,1,.249-.878,1.707,1.707,0,0,1,.7-.6,2.457,2.457,0,0,1,2.039,0,1.772,1.772,0,0,1,.7.6,1.533,1.533,0,0,1,.256.878,1.622,1.622,0,0,1-.249.885" transform="translate(-500.495 -176.232)" fill="#666"/>
        <path id="Path_66" data-name="Path 66" d="M563.9,228.3a3.7,3.7,0,0,0-1.684-.367,4.015,4.015,0,0,0-1.783.391,3.255,3.255,0,0,0-1.271,1.062,2.666,2.666,0,0,0,.006,3.03,3.227,3.227,0,0,0,1.294,1.062,4.264,4.264,0,0,0,1.841.385h0a4.519,4.519,0,0,0,1.5-.25,3.229,3.229,0,0,0,1.207-.735l-.994-.841a2.063,2.063,0,0,1-.76.45,2.971,2.971,0,0,1-.97.154,2.524,2.524,0,0,1-1.078-.221,1.673,1.673,0,0,1-.724-.622,1.7,1.7,0,0,1-.184-.415h5.086q.042-.178.064-.327a2.04,2.04,0,0,0,.022-.29,2.6,2.6,0,0,0-.419-1.458A2.9,2.9,0,0,0,563.9,228.3m-3.432,1.642a1.611,1.611,0,0,1,.682-.6,2.356,2.356,0,0,1,1.037-.214,2.186,2.186,0,0,1,.96.189,1.4,1.4,0,0,1,.6.546,1.867,1.867,0,0,1,.178.45h-3.619a1.672,1.672,0,0,1,.157-.373" transform="translate(-434.483 -176.232)" fill="#666"/>
        <rect id="Rectangle_89" data-name="Rectangle 89" width="1.563" height="8.536" transform="translate(140.238 48.974)" fill="#666"/>
        <path id="Path_67" data-name="Path 67" d="M598.2,228.323a4.128,4.128,0,0,0-1.819-.391,4.045,4.045,0,0,0-1.805.4,3.373,3.373,0,0,0-1.286,1.062,2.5,2.5,0,0,0-.476,1.495,2.555,2.555,0,0,0,.476,1.505,3.329,3.329,0,0,0,1.286,1.072,4.042,4.042,0,0,0,1.805.4h0a4.071,4.071,0,0,0,1.822-.4,3.329,3.329,0,0,0,1.286-1.072,2.555,2.555,0,0,0,.476-1.506,2.529,2.529,0,0,0-.476-1.5,3.3,3.3,0,0,0-1.286-1.062m-.093,3.449a1.68,1.68,0,0,1-.7.611,2.313,2.313,0,0,1-1.03.221h0a2.28,2.28,0,0,1-1.013-.221,1.679,1.679,0,0,1-.7-.611,1.622,1.622,0,0,1-.249-.885,1.564,1.564,0,0,1,.249-.878,1.707,1.707,0,0,1,.7-.6,2.457,2.457,0,0,1,2.039,0,1.772,1.772,0,0,1,.7.6,1.531,1.531,0,0,1,.256.878,1.624,1.624,0,0,1-.249.885" transform="translate(-461.014 -176.232)" fill="#666"/>
        <path id="Path_68" data-name="Path 68" d="M492.745,228.289a3.7,3.7,0,0,0-1.684-.367,4.016,4.016,0,0,0-1.786.393A3.252,3.252,0,0,0,488,229.376a2.666,2.666,0,0,0,.006,3.03,3.228,3.228,0,0,0,1.294,1.062,4.261,4.261,0,0,0,1.841.385h0a4.526,4.526,0,0,0,1.5-.252,3.226,3.226,0,0,0,1.207-.735l-.994-.841a2.062,2.062,0,0,1-.76.451,2.971,2.971,0,0,1-.97.154,2.522,2.522,0,0,1-1.078-.222,1.67,1.67,0,0,1-.724-.622,1.7,1.7,0,0,1-.184-.415h5.086q.042-.178.064-.327a2.005,2.005,0,0,0,.022-.29,2.6,2.6,0,0,0-.419-1.458,2.9,2.9,0,0,0-1.151-1.007m-3.432,1.642a1.612,1.612,0,0,1,.682-.6,2.356,2.356,0,0,1,1.037-.214,2.186,2.186,0,0,1,.96.189,1.4,1.4,0,0,1,.6.546,1.869,1.869,0,0,1,.178.45h-3.619a1.671,1.671,0,0,1,.158-.373" transform="translate(-379.157 -176.224)" fill="#666"/>
        <path id="Path_69" data-name="Path 69" d="M527.09,219.483a2.393,2.393,0,0,0-.7-.479,3.268,3.268,0,0,0-1.386-.279,3.492,3.492,0,0,0-1.669.4,3.12,3.12,0,0,0-1.179,1.067,2.844,2.844,0,0,0,0,3.012,3.072,3.072,0,0,0,1.179,1.062,3.539,3.539,0,0,0,1.669.391h0a3.318,3.318,0,0,0,1.391-.271,2.326,2.326,0,0,0,.7-.471v.622h1.563V216H527.09Zm-.817,3.716a2.221,2.221,0,0,1-1.016.221h0a2.189,2.189,0,0,1-1-.222,1.7,1.7,0,0,1-.682-.611,1.754,1.754,0,0,1,0-1.8,1.7,1.7,0,0,1,.682-.611,2.223,2.223,0,0,1,1.016-.221,2.188,2.188,0,0,1,1,.221,1.647,1.647,0,0,1,.675.611,1.8,1.8,0,0,1,0,1.8,1.648,1.648,0,0,1-.675.611" transform="translate(-405.738 -167.026)" fill="#666"/>
        <path id="Path_70" data-name="Path 70" d="M441.6,220.777l-3.766-3.754H436.7v8.3h1.637v-5.5l2.7,2.337.584.622.552-.622,2.7-2.337v5.5H446.5v-8.3h-1.137Z" transform="translate(-339.627 -167.815)" fill="#666"/>
        <path id="Path_71" data-name="Path 71" d="M736.832,228.458h-1.8l-1.447,1.8-1.493-1.8H730.2l2.391,2.778-2.518,2.913h1.819l1.6-1.956,1.594,1.956h1.875l-2.474-2.926Z" transform="translate(-567.738 -176.638)" fill="#666"/>
        <path id="Path_72" data-name="Path 72" d="M721.826,223.891h0Z" transform="translate(-561.328 -173.115)" fill="#666"/>
        <path id="Path_73" data-name="Path 73" d="M718.6,217.1a.98.98,0,0,0-.661.221.713.713,0,0,0,0,1.107,1.107,1.107,0,0,0,1.328,0,.727.727,0,0,0,0-1.107.973.973,0,0,0-.667-.221" transform="translate(-558.101 -167.874)" fill="#666"/>
        <rect id="Rectangle_90" data-name="Rectangle 90" width="1.563" height="5.691" transform="translate(159.716 51.819)" fill="#666"/>
        <path id="Path_74" data-name="Path 74" d="M1008.319,229.266l-1.817,3.482-1.719-3.482h-1.692l2.552,4.809-1.683,2.762h1.7l1.244-2.171h0l3.117-5.4Z" transform="translate(-780.025 -177.262)" fill="#666"/>
        <path id="Path_75" data-name="Path 75" d="M938.535,229.512a2.336,2.336,0,0,0-.692-.471,3.353,3.353,0,0,0-1.363-.261,3.572,3.572,0,0,0-1.643.373,3.026,3.026,0,0,0-1.16,1,2.533,2.533,0,0,0,0,2.827,2.982,2.982,0,0,0,1.16,1,3.621,3.621,0,0,0,1.643.367,3.406,3.406,0,0,0,1.37-.261,2.275,2.275,0,0,0,.686-.442v.593l1.538,0v-5.345h-1.538Zm-1.8,3.676h0a2.238,2.238,0,0,1-.985-.206,1.647,1.647,0,0,1-.67-.573,1.584,1.584,0,0,1,0-1.692,1.647,1.647,0,0,1,.67-.573,2.242,2.242,0,0,1,.986-.206,2.275,2.275,0,0,1,1,.206,1.6,1.6,0,0,1,.664.573,1.525,1.525,0,0,1,.237.846,1.481,1.481,0,0,1-.524,1.169,2.021,2.021,0,0,1-1.377.456" transform="translate(-725.717 -176.886)" fill="#666"/>
        <path id="Path_76" data-name="Path 76" d="M976.476,229.067a2.863,2.863,0,0,0-1.342-.307,3.163,3.163,0,0,0-1.335.272,2.254,2.254,0,0,0-.657.442v-.6H971.6v5.345h1.538v-3.133a1.075,1.075,0,0,1,.19-.59,1.291,1.291,0,0,1,.547-.431,1.94,1.94,0,0,1,.8-.156,1.694,1.694,0,0,1,1.1.346,1.082,1.082,0,0,1,.431.88v3.084l1.53,0v-3.352a1.741,1.741,0,0,0-.335-1.007,2.5,2.5,0,0,0-.923-.79" transform="translate(-755.542 -176.871)" fill="#666"/>
        <path id="Path_77" data-name="Path 77" d="M947.782,253.152h0Z" transform="translate(-737.019 -195.693)" fill="#666"/>
        <path id="Path_78" data-name="Path 78" d="M903.932,229.153a3.572,3.572,0,0,0-1.643-.373,3.365,3.365,0,0,0-1.357.261,2.334,2.334,0,0,0-.7.45v-.6H898.7v7.572l1.538,0v-2.823a2.273,2.273,0,0,0,.685.441,3.4,3.4,0,0,0,1.37.261,3.616,3.616,0,0,0,1.643-.367,2.982,2.982,0,0,0,1.16-1,2.532,2.532,0,0,0,0-2.827,3.023,3.023,0,0,0-1.16-1m-.237,3.256a1.647,1.647,0,0,1-.671.573,2.238,2.238,0,0,1-.985.206h0a2.287,2.287,0,0,1-.992-.206,1.588,1.588,0,0,1-.671-.573,1.626,1.626,0,0,1,0-1.691,1.588,1.588,0,0,1,.671-.573,2.288,2.288,0,0,1,.993-.206,2.241,2.241,0,0,1,.985.206,1.646,1.646,0,0,1,.671.573,1.584,1.584,0,0,1,0,1.691" transform="translate(-698.853 -176.887)" fill="#666"/>
        <path id="Path_79" data-name="Path 79" d="M781.7,233.029a2.807,2.807,0,0,1-.9.14,2.369,2.369,0,0,1-1.014-.206,1.646,1.646,0,0,1-.685-.568,1.536,1.536,0,0,1,0-1.667,1.663,1.663,0,0,1,.685-.562,2.369,2.369,0,0,1,1.013-.206,2.807,2.807,0,0,1,.9.141,1.888,1.888,0,0,1,.706.417l1.007-.812a3.239,3.239,0,0,0-1.154-.685,4.357,4.357,0,0,0-1.461-.239,4.272,4.272,0,0,0-1.8.368,3.153,3.153,0,0,0-1.265,1,2.4,2.4,0,0,0,0,2.833,3.14,3.14,0,0,0,1.265,1,4.276,4.276,0,0,0,1.8.367,4.363,4.363,0,0,0,1.463-.237,3.239,3.239,0,0,0,1.154-.685l-1.007-.812a1.89,1.89,0,0,1-.706.417" transform="translate(-604.446 -176.887)" fill="#666"/>
        <path id="Path_80" data-name="Path 80" d="M812.556,229.148a4.224,4.224,0,0,0-1.79-.367,4.135,4.135,0,0,0-1.776.373,3.287,3.287,0,0,0-1.265,1,2.276,2.276,0,0,0-.468,1.4,2.323,2.323,0,0,0,.468,1.414,3.246,3.246,0,0,0,1.265,1.007,4.448,4.448,0,0,0,3.566,0,3.247,3.247,0,0,0,1.265-1.007,2.36,2.36,0,0,0,0-2.822,3.218,3.218,0,0,0-1.265-1m-.092,3.239a1.628,1.628,0,0,1-.685.573,2.365,2.365,0,0,1-1.013.206v0a2.33,2.33,0,0,1-1-.21,1.626,1.626,0,0,1-.685-.573,1.472,1.472,0,0,1-.245-.835,1.421,1.421,0,0,1,.245-.824,1.664,1.664,0,0,1,.685-.562,2.542,2.542,0,0,1,2.007,0,1.724,1.724,0,0,1,.685.562,1.392,1.392,0,0,1,.251.824,1.471,1.471,0,0,1-.245.835" transform="translate(-627.756 -176.887)" fill="#666"/>
        <path id="Path_81" data-name="Path 81" d="M853.758,229.02a3.383,3.383,0,0,0-1.314-.245,3.331,3.331,0,0,0-1.307.25,2.537,2.537,0,0,0-.923.653,2.18,2.18,0,0,0-.877-.658,3.244,3.244,0,0,0-1.286-.245,3.179,3.179,0,0,0-1.286.25,2.2,2.2,0,0,0-.642.431v-.569h-1.538v5.345h1.538v-3.185a.955.955,0,0,1,.2-.607,1.24,1.24,0,0,1,.524-.384,1.97,1.97,0,0,1,.748-.134,1.754,1.754,0,0,1,1.034.3.957.957,0,0,1,.419.829v3.185h1.538v-3.185a.956.956,0,0,1,.2-.607,1.236,1.236,0,0,1,.531-.384,1.986,1.986,0,0,1,.741-.134,1.754,1.754,0,0,1,1.034.3.957.957,0,0,1,.419.829v3.185h1.541V230.78a1.68,1.68,0,0,0-.35-1.069,2.274,2.274,0,0,0-.937-.691" transform="translate(-656.779 -176.883)" fill="#666"/>
      </g>
    </g>
  </g>
</svg>
