<svg xmlns="http://www.w3.org/2000/svg" xmlns:xlink="http://www.w3.org/1999/xlink" width="390" height="426" viewBox="0 0 390 426">
  <defs>
    <linearGradient id="linear-gradient" x1="0.5" y1="-0.777" x2="0.5" y2="1" gradientUnits="objectBoundingBox">
      <stop offset="0" stop-color="#57bc00" stop-opacity="0.431"/>
      <stop offset="1" stop-color="#83c6e6" stop-opacity="0.545"/>
    </linearGradient>
    <filter id="Ellipse_1" x="119" y="139" width="154" height="154" filterUnits="userSpaceOnUse">
      <feOffset input="SourceAlpha"/>
      <feGaussianBlur stdDeviation="5" result="blur"/>
      <feFlood flood-opacity="0.102"/>
      <feComposite operator="in" in2="blur"/>
      <feComposite in="SourceGraphic"/>
    </filter>
    <clipPath id="clip-one-stop-service">
      <rect width="390" height="426"/>
    </clipPath>
  </defs>
  <g id="one-stop-service" clip-path="url(#clip-one-stop-service)">
    <rect id="Rectangle_8272" data-name="Rectangle 8272" width="180" height="198" rx="5" fill="url(#linear-gradient)"/>
    <rect id="Rectangle_8278" data-name="Rectangle 8278" width="180" height="198" rx="5" transform="translate(0 228)" fill="url(#linear-gradient)"/>
    <rect id="Rectangle_8274" data-name="Rectangle 8274" width="180" height="198" rx="5" transform="translate(210)" fill="url(#linear-gradient)"/>
    <rect id="Rectangle_8276" data-name="Rectangle 8276" width="180" height="198" rx="5" transform="translate(210 228)" fill="url(#linear-gradient)"/>
    <rect id="Rectangle_8273" data-name="Rectangle 8273" width="164" height="182" rx="5" transform="translate(8 8)" fill="#fff"/>
    <rect id="Rectangle_8279" data-name="Rectangle 8279" width="164" height="182" rx="5" transform="translate(8 236)" fill="#fff"/>
    <rect id="Rectangle_8275" data-name="Rectangle 8275" width="164" height="182" rx="5" transform="translate(218 8)" fill="#fff"/>
    <rect id="Rectangle_8277" data-name="Rectangle 8277" width="164" height="182" rx="5" transform="translate(218 236)" fill="#fff"/>
    <g transform="matrix(1, 0, 0, 1, 0, 0)" filter="url(#Ellipse_1)">
      <circle id="Ellipse_1-2" data-name="Ellipse 1" cx="62" cy="62" r="62" transform="translate(134 154)" fill="#fff"/>
    </g>
    <g id="Group_11090" data-name="Group 11090" transform="translate(-380 196)">
      <path id="Path_1391" data-name="Path 1391" d="M516,80h15.728v60H516V118.427l.711-.135a8.441,8.441,0,0,0,0-16.585l-.711-.135Zm13.981,1.748H517.748v18.4a10.19,10.19,0,0,1,0,19.7v18.4h12.233Z" transform="translate(-31.728)" fill="#222"/>
      <path id="Ellipse_38" data-name="Ellipse 38" d="M5.2-1.5a6.7,6.7,0,0,1,6.7,6.7,6.7,6.7,0,0,1-6.7,6.7A6.7,6.7,0,0,1-1.5,5.2,6.7,6.7,0,0,1,5.2-1.5Zm0,11.65A4.951,4.951,0,1,0,.248,5.2,4.957,4.957,0,0,0,5.2,10.15Z" transform="translate(478.199 104.801)" fill="#72b937"/>
      <path id="Path_1392" data-name="Path 1392" d="M455.728,140H440V80h15.728V93.43l-.656.169a6.11,6.11,0,0,0-4.587,5.915v20.971a6.11,6.11,0,0,0,4.587,5.915l.656.169Zm-13.981-1.748h12.233V127.893a7.857,7.857,0,0,1-5.243-7.408V99.515a7.857,7.857,0,0,1,5.243-7.408V81.748H441.748Z" fill="#222"/>
      <path id="Path_1393" data-name="Path 1393" d="M470,80h25.049v21.573l-.711.135a8.442,8.442,0,0,0,0,16.585l.711.135V140H470V126.57l.656-.169a6.11,6.11,0,0,0,4.587-5.915V99.515a6.11,6.11,0,0,0-4.587-5.915L470,93.43Zm23.3,1.748H471.748V92.107a7.856,7.856,0,0,1,5.243,7.408v20.971a7.856,7.856,0,0,1-5.243,7.408v10.359H493.3v-18.4a10.19,10.19,0,0,1,0-19.7Z" transform="translate(-12.524)" fill="#222"/>
      <path id="Rectangle_263" data-name="Rectangle 263" d="M2.869-1.5A4.374,4.374,0,0,1,7.238,2.869V23.84a4.369,4.369,0,0,1-8.738,0V2.869A4.374,4.374,0,0,1,2.869-1.5Zm0,27.961A2.624,2.624,0,0,0,5.49,23.84V2.869A2.624,2.624,0,0,0,2.869.248h0A2.624,2.624,0,0,0,.248,2.869V23.84A2.624,2.624,0,0,0,2.869,26.461Z" transform="translate(453.733 96.646)" fill="#72b937"/>
      <path id="Ellipse_39" data-name="Ellipse 39" d="M1.121-1.5A2.621,2.621,0,1,1-1.5,1.121,2.624,2.624,0,0,1,1.121-1.5Zm0,3.5a.874.874,0,1,0-.874-.874A.875.875,0,0,0,1.121,2Z" transform="translate(444.413 84.413)" fill="#222"/>
      <path id="Ellipse_40" data-name="Ellipse 40" d="M1.121-1.5A2.621,2.621,0,1,1-1.5,1.121,2.624,2.624,0,0,1,1.121-1.5Zm0,3.5a.874.874,0,1,0-.874-.874A.875.875,0,0,0,1.121,2Z" transform="translate(444.413 133.345)" fill="#222"/>
      <path id="Ellipse_41" data-name="Ellipse 41" d="M1.121-1.5A2.621,2.621,0,1,1-1.5,1.121,2.624,2.624,0,0,1,1.121-1.5Zm0,3.5a.874.874,0,1,0-.874-.874A.875.875,0,0,0,1.121,2Z" transform="translate(493.345 84.413)" fill="#222"/>
      <path id="Ellipse_42" data-name="Ellipse 42" d="M1.121-1.5A2.621,2.621,0,1,1-1.5,1.121,2.624,2.624,0,0,1,1.121-1.5Zm0,3.5a.874.874,0,1,0-.874-.874A.875.875,0,0,0,1.121,2Z" transform="translate(493.345 133.345)" fill="#222"/>
      <path id="Ellipse_43" data-name="Ellipse 43" d="M1.121-1.5A2.621,2.621,0,1,1-1.5,1.121,2.624,2.624,0,0,1,1.121-1.5Zm0,3.5a.874.874,0,1,0-.874-.874A.875.875,0,0,0,1.121,2Z" transform="translate(469.461 84.413)" fill="#222"/>
      <path id="Ellipse_44" data-name="Ellipse 44" d="M1.121-1.5A2.621,2.621,0,1,1-1.5,1.121,2.624,2.624,0,0,1,1.121-1.5Zm0,3.5a.874.874,0,1,0-.874-.874A.875.875,0,0,0,1.121,2Z" transform="translate(469.461 133.345)" fill="#222"/>
    </g>
    <path id="Path_26740" data-name="Path 26740" d="M40.645,9.031a3.33,3.33,0,0,1-1.172,2.742,5.163,5.163,0,0,1-3.336.953H34.949V17H33.082V5.578h3.289a4.976,4.976,0,0,1,3.207.875A3.141,3.141,0,0,1,40.645,9.031Zm-5.7,2.125h.992a3.555,3.555,0,0,0,2.109-.5,1.82,1.82,0,0,0,.672-1.562,1.773,1.773,0,0,0-.6-1.469,2.971,2.971,0,0,0-1.875-.484h-1.3ZM47.113,8.2a4.42,4.42,0,0,1,.914.078l-.18,1.711a3.47,3.47,0,0,0-.812-.094,2.351,2.351,0,0,0-1.785.719,2.6,2.6,0,0,0-.684,1.867V17H42.73V8.359h1.438l.242,1.523H44.5a3.423,3.423,0,0,1,1.121-1.227A2.665,2.665,0,0,1,47.113,8.2Zm10.18,4.461a4.716,4.716,0,0,1-1.086,3.3,3.891,3.891,0,0,1-3.023,1.188,4.143,4.143,0,0,1-2.141-.547,3.61,3.61,0,0,1-1.43-1.57,5.348,5.348,0,0,1-.5-2.375,4.684,4.684,0,0,1,1.078-3.281A3.909,3.909,0,0,1,53.23,8.2,3.807,3.807,0,0,1,56.2,9.41,4.662,4.662,0,0,1,57.293,12.664Zm-6.289,0q0,2.992,2.211,2.992,2.187,0,2.188-2.992Q55.4,9.7,53.2,9.7a1.879,1.879,0,0,0-1.676.766A3.9,3.9,0,0,0,51,12.664Zm11.313,4.492a3.01,3.01,0,0,1-2.523-1.172,5.267,5.267,0,0,1-.906-3.289A5.284,5.284,0,0,1,59.8,9.387,3.038,3.038,0,0,1,62.348,8.2a2.979,2.979,0,0,1,2.594,1.258h.094A11.006,11.006,0,0,1,64.9,7.992V4.844h1.844V17H65.309l-.32-1.133H64.9A2.935,2.935,0,0,1,62.316,17.156Zm.492-1.484a2,2,0,0,0,1.648-.637,3.352,3.352,0,0,0,.531-2.066v-.258a3.873,3.873,0,0,0-.531-2.32A1.971,1.971,0,0,0,62.793,9.7a1.688,1.688,0,0,0-1.492.785,4.024,4.024,0,0,0-.523,2.238,3.923,3.923,0,0,0,.508,2.191A1.714,1.714,0,0,0,62.809,15.672ZM75.465,17l-.258-1.133h-.094a2.6,2.6,0,0,1-1.09.945,3.644,3.644,0,0,1-1.613.344,3.167,3.167,0,0,1-2.344-.781,3.239,3.239,0,0,1-.773-2.367V8.359h1.852v5.328a2.311,2.311,0,0,0,.406,1.488,1.551,1.551,0,0,0,1.273.5,2.028,2.028,0,0,0,1.7-.691,3.81,3.81,0,0,0,.543-2.316v-4.3H76.91V17Zm7.547.156a3.783,3.783,0,0,1-2.98-1.145,4.782,4.782,0,0,1-1.02-3.285,4.809,4.809,0,0,1,1.066-3.352A3.956,3.956,0,0,1,83.16,8.2a5.776,5.776,0,0,1,2.461.508l-.555,1.477a5.56,5.56,0,0,0-1.922-.453q-2.242,0-2.242,2.977a3.565,3.565,0,0,0,.559,2.184,1.934,1.934,0,0,0,1.637.73,4.7,4.7,0,0,0,2.32-.609v1.6a3.626,3.626,0,0,1-1.051.414A6.305,6.305,0,0,1,83.012,17.156Zm7.656-1.484a4.465,4.465,0,0,0,1.344-.211v1.383a3.706,3.706,0,0,1-.785.223,5.409,5.409,0,0,1-1,.09q-2.609,0-2.609-2.75V9.75h-1.18V8.938l1.266-.672.625-1.828h1.133V8.359h2.461V9.75H89.465v4.625a1.3,1.3,0,0,0,.332.98A1.21,1.21,0,0,0,90.668,15.672ZM20.844,31.18a5.692,5.692,0,0,1-1.57,4.324A6.307,6.307,0,0,1,14.75,37h-3.2V25.578h3.531a5.843,5.843,0,0,1,4.242,1.469A5.488,5.488,0,0,1,20.844,31.18Zm-1.969.063q0-4.1-3.836-4.1H13.422V35.43H14.75Q18.875,35.43,18.875,31.242Zm8,5.914a4.18,4.18,0,0,1-3.152-1.176,4.463,4.463,0,0,1-1.137-3.238,4.9,4.9,0,0,1,1.055-3.328,3.643,3.643,0,0,1,2.9-1.211,3.561,3.561,0,0,1,2.7,1.039,3.97,3.97,0,0,1,.992,2.859v.992H24.477a2.838,2.838,0,0,0,.68,1.934,2.367,2.367,0,0,0,1.8.676,6.662,6.662,0,0,0,1.426-.145,7.474,7.474,0,0,0,1.418-.48V36.57a5.637,5.637,0,0,1-1.359.453A8.336,8.336,0,0,1,26.875,37.156Zm-.336-7.562a1.845,1.845,0,0,0-1.4.555,2.644,2.644,0,0,0-.629,1.617H28.43a2.392,2.392,0,0,0-.516-1.621A1.764,1.764,0,0,0,26.539,29.594ZM34.289,37l-3.281-8.641h1.938L34.7,33.383a9.954,9.954,0,0,1,.547,2.047h.063a13.744,13.744,0,0,1,.547-2.047l1.758-5.023H39.57L36.273,37Zm10.367.156A4.18,4.18,0,0,1,41.5,35.98a4.463,4.463,0,0,1-1.137-3.238,4.9,4.9,0,0,1,1.055-3.328,3.643,3.643,0,0,1,2.9-1.211,3.561,3.561,0,0,1,2.7,1.039,3.97,3.97,0,0,1,.992,2.859v.992H42.258a2.838,2.838,0,0,0,.68,1.934,2.367,2.367,0,0,0,1.8.676,6.662,6.662,0,0,0,1.426-.145,7.474,7.474,0,0,0,1.418-.48V36.57a5.637,5.637,0,0,1-1.359.453A8.335,8.335,0,0,1,44.656,37.156Zm-.336-7.562a1.845,1.845,0,0,0-1.4.555,2.643,2.643,0,0,0-.629,1.617h3.922a2.392,2.392,0,0,0-.516-1.621A1.764,1.764,0,0,0,44.32,29.594ZM51.938,37H50.1V24.844h1.836Zm10.289-4.336a4.716,4.716,0,0,1-1.086,3.3,3.891,3.891,0,0,1-3.023,1.188,4.143,4.143,0,0,1-2.141-.547,3.61,3.61,0,0,1-1.43-1.57,5.348,5.348,0,0,1-.5-2.375,4.684,4.684,0,0,1,1.078-3.281,3.909,3.909,0,0,1,3.039-1.18,3.807,3.807,0,0,1,2.969,1.207A4.662,4.662,0,0,1,62.227,32.664Zm-6.289,0q0,2.992,2.211,2.992,2.187,0,2.188-2.992,0-2.961-2.2-2.961a1.879,1.879,0,0,0-1.676.766A3.9,3.9,0,0,0,55.938,32.664Zm12.781,4.492a3.026,3.026,0,0,1-2.547-1.18h-.109q.109,1.094.109,1.328v3.539H64.336V28.359H65.82q.062.242.258,1.156h.094A2.876,2.876,0,0,1,68.75,28.2a3,3,0,0,1,2.52,1.172,5.284,5.284,0,0,1,.9,3.289,5.288,5.288,0,0,1-.918,3.3A3.026,3.026,0,0,1,68.719,37.156ZM68.273,29.7a1.908,1.908,0,0,0-1.6.641,3.32,3.32,0,0,0-.5,2.047v.273a4.041,4.041,0,0,0,.5,2.285,1.86,1.86,0,0,0,1.633.707,1.658,1.658,0,0,0,1.469-.781,4.035,4.035,0,0,0,.516-2.227,3.893,3.893,0,0,0-.512-2.2A1.707,1.707,0,0,0,68.273,29.7ZM81.586,37H79.742V31.672a2.416,2.416,0,0,0-.375-1.48A1.384,1.384,0,0,0,78.2,29.7a1.787,1.787,0,0,0-1.559.691,4.057,4.057,0,0,0-.5,2.3V37H74.3V28.359h1.438L76,29.492h.094a2.394,2.394,0,0,1,1.043-.953,3.363,3.363,0,0,1,1.5-.336,2.628,2.628,0,0,1,2.641,1.359h.125a2.634,2.634,0,0,1,1.078-1,3.422,3.422,0,0,1,1.594-.359,2.9,2.9,0,0,1,2.254.781,3.46,3.46,0,0,1,.707,2.383V37H85.2V31.672a2.4,2.4,0,0,0-.379-1.48,1.4,1.4,0,0,0-1.176-.488,1.822,1.822,0,0,0-1.566.668,3.443,3.443,0,0,0-.5,2.051Zm11.789.156a4.18,4.18,0,0,1-3.152-1.176,4.463,4.463,0,0,1-1.137-3.238,4.9,4.9,0,0,1,1.055-3.328,3.643,3.643,0,0,1,2.9-1.211,3.561,3.561,0,0,1,2.7,1.039,3.97,3.97,0,0,1,.992,2.859v.992H90.977a2.838,2.838,0,0,0,.68,1.934,2.367,2.367,0,0,0,1.8.676,6.662,6.662,0,0,0,1.426-.145,7.474,7.474,0,0,0,1.418-.48V36.57a5.637,5.637,0,0,1-1.359.453A8.336,8.336,0,0,1,93.375,37.156Zm-.336-7.562a1.845,1.845,0,0,0-1.4.555,2.644,2.644,0,0,0-.629,1.617H94.93a2.392,2.392,0,0,0-.516-1.621A1.764,1.764,0,0,0,93.039,29.594ZM106.422,37h-1.844V31.688a2.325,2.325,0,0,0-.4-1.492A1.555,1.555,0,0,0,102.9,29.7a2.031,2.031,0,0,0-1.7.688,3.8,3.8,0,0,0-.539,2.3V37H98.82V28.359h1.438l.258,1.133h.094a2.556,2.556,0,0,1,1.109-.953,3.718,3.718,0,0,1,1.594-.336q3.109,0,3.109,3.164Zm5.773-1.328a4.465,4.465,0,0,0,1.344-.211v1.383a3.706,3.706,0,0,1-.785.223,5.41,5.41,0,0,1-1,.09q-2.609,0-2.609-2.75V29.75h-1.18v-.812l1.266-.672.625-1.828h1.133v1.922h2.461V29.75h-2.461v4.625a1.3,1.3,0,0,0,.332.98A1.21,1.21,0,0,0,112.2,35.672Z" transform="translate(28 108)" fill="#222"/>
    <path id="Path_26743" data-name="Path 26743" d="M7.766,10.891h1.3a2.961,2.961,0,0,0,1.891-.484,1.757,1.757,0,0,0,.586-1.437,1.547,1.547,0,0,0-.633-1.391A3.47,3.47,0,0,0,9,7.156H7.766Zm0,1.547V17H5.9V5.578H9.125a5.3,5.3,0,0,1,3.273.828,2.973,2.973,0,0,1,1.063,2.5,3.125,3.125,0,0,1-2.219,3.039L14.469,17H12.344L9.609,12.438ZM21.336,17l-.367-1.2h-.062a3.54,3.54,0,0,1-1.258,1.074,3.978,3.978,0,0,1-1.625.285,2.75,2.75,0,0,1-1.988-.687,2.573,2.573,0,0,1-.715-1.945,2.284,2.284,0,0,1,.992-2.016,5.721,5.721,0,0,1,3.023-.742l1.492-.047v-.461a1.747,1.747,0,0,0-.387-1.238,1.577,1.577,0,0,0-1.2-.41,4.147,4.147,0,0,0-1.273.2,9.61,9.61,0,0,0-1.172.461L16.2,8.953a6.39,6.39,0,0,1,1.539-.559A7.083,7.083,0,0,1,19.32,8.2a3.738,3.738,0,0,1,2.488.719,2.814,2.814,0,0,1,.84,2.258V17ZM18.6,15.75a2.274,2.274,0,0,0,1.605-.559,2.025,2.025,0,0,0,.605-1.566v-.75l-1.109.047a3.8,3.8,0,0,0-1.887.434,1.317,1.317,0,0,0-.59,1.184,1.155,1.155,0,0,0,.344.895A1.477,1.477,0,0,0,18.6,15.75Zm10.992,1.406a3.026,3.026,0,0,1-2.547-1.18h-.109q.109,1.094.109,1.328v3.539H25.211V8.359H26.7q.062.242.258,1.156h.094A2.876,2.876,0,0,1,29.625,8.2a3,3,0,0,1,2.52,1.172,5.284,5.284,0,0,1,.9,3.289,5.288,5.288,0,0,1-.918,3.3A3.026,3.026,0,0,1,29.594,17.156ZM29.148,9.7a1.908,1.908,0,0,0-1.6.641,3.32,3.32,0,0,0-.5,2.047v.273a4.041,4.041,0,0,0,.5,2.285,1.86,1.86,0,0,0,1.633.707,1.658,1.658,0,0,0,1.469-.781,4.035,4.035,0,0,0,.516-2.227,3.893,3.893,0,0,0-.512-2.2A1.707,1.707,0,0,0,29.148,9.7ZM37.016,17H35.18V8.359h1.836ZM35.07,6.07a1.017,1.017,0,0,1,.27-.758,1.05,1.05,0,0,1,.77-.266,1.028,1.028,0,0,1,.754.266,1.017,1.017,0,0,1,.27.758,1,1,0,0,1-.27.738,1.019,1.019,0,0,1-.754.27,1.041,1.041,0,0,1-.77-.27A1,1,0,0,1,35.07,6.07Zm7.484,11.086a3.01,3.01,0,0,1-2.523-1.172,5.267,5.267,0,0,1-.906-3.289,5.284,5.284,0,0,1,.918-3.309A3.038,3.038,0,0,1,42.586,8.2,2.979,2.979,0,0,1,45.18,9.461h.094a11.005,11.005,0,0,1-.133-1.469V4.844h1.844V17H45.547l-.32-1.133h-.086A2.935,2.935,0,0,1,42.555,17.156Zm.492-1.484a2,2,0,0,0,1.648-.637,3.352,3.352,0,0,0,.531-2.066v-.258a3.873,3.873,0,0,0-.531-2.32A1.971,1.971,0,0,0,43.031,9.7a1.688,1.688,0,0,0-1.492.785,4.024,4.024,0,0,0-.523,2.238,3.923,3.923,0,0,0,.508,2.191A1.714,1.714,0,0,0,43.047,15.672ZM57.906,17H56.039V7.18H52.68v-1.6h8.586v1.6H57.906Zm6.75,0H62.82V8.359h1.836ZM62.711,6.07a1.017,1.017,0,0,1,.27-.758,1.05,1.05,0,0,1,.77-.266,1.028,1.028,0,0,1,.754.266,1.017,1.017,0,0,1,.27.758,1,1,0,0,1-.27.738,1.019,1.019,0,0,1-.754.27,1.041,1.041,0,0,1-.77-.27A1,1,0,0,1,62.711,6.07ZM74.563,17H72.719V11.672a2.416,2.416,0,0,0-.375-1.48A1.384,1.384,0,0,0,71.172,9.7a1.787,1.787,0,0,0-1.559.691,4.057,4.057,0,0,0-.5,2.3V17H67.281V8.359h1.438l.258,1.133h.094a2.394,2.394,0,0,1,1.043-.953,3.363,3.363,0,0,1,1.5-.336,2.628,2.628,0,0,1,2.641,1.359h.125a2.634,2.634,0,0,1,1.078-1A3.422,3.422,0,0,1,77.055,8.2a2.9,2.9,0,0,1,2.254.781,3.46,3.46,0,0,1,.707,2.383V17H78.18V11.672a2.4,2.4,0,0,0-.379-1.48A1.4,1.4,0,0,0,76.625,9.7a1.822,1.822,0,0,0-1.566.668,3.443,3.443,0,0,0-.5,2.051Zm11.789.156A4.18,4.18,0,0,1,83.2,15.98a4.463,4.463,0,0,1-1.137-3.238,4.9,4.9,0,0,1,1.055-3.328,3.643,3.643,0,0,1,2.9-1.211,3.561,3.561,0,0,1,2.7,1.039,3.97,3.97,0,0,1,.992,2.859v.992H83.953a2.838,2.838,0,0,0,.68,1.934,2.367,2.367,0,0,0,1.8.676,6.662,6.662,0,0,0,1.426-.145,7.474,7.474,0,0,0,1.418-.48V16.57a5.637,5.637,0,0,1-1.359.453A8.336,8.336,0,0,1,86.352,17.156Zm-.336-7.562a1.845,1.845,0,0,0-1.4.555,2.644,2.644,0,0,0-.629,1.617h3.922a2.392,2.392,0,0,0-.516-1.621A1.764,1.764,0,0,0,86.016,9.594Zm5.031,3.9V11.93h4.016v1.563ZM101.086,17H99.219V7.18H95.859v-1.6h8.586v1.6h-3.359Zm12.578-4.336a4.716,4.716,0,0,1-1.086,3.3,3.891,3.891,0,0,1-3.023,1.188,4.143,4.143,0,0,1-2.141-.547,3.61,3.61,0,0,1-1.43-1.57,5.348,5.348,0,0,1-.5-2.375,4.684,4.684,0,0,1,1.078-3.281A3.909,3.909,0,0,1,109.6,8.2,3.807,3.807,0,0,1,112.57,9.41,4.663,4.663,0,0,1,113.664,12.664Zm-6.289,0q0,2.992,2.211,2.992,2.188,0,2.188-2.992,0-2.961-2.2-2.961a1.879,1.879,0,0,0-1.676.766A3.9,3.9,0,0,0,107.375,12.664Zm7.648.828V11.93h4.016v1.563ZM40.645,37l-3.312-9.539H37.27q.133,2.125.133,3.984V37h-1.7V25.578H38.34l3.172,9.086h.047l3.266-9.086h2.641V37h-1.8V31.352q0-.852.043-2.219t.074-1.656h-.062L42.293,37Zm15.039,0-.367-1.2h-.062A3.54,3.54,0,0,1,54,36.871a3.978,3.978,0,0,1-1.625.285,2.75,2.75,0,0,1-1.988-.687,2.573,2.573,0,0,1-.715-1.945,2.284,2.284,0,0,1,.992-2.016,5.721,5.721,0,0,1,3.023-.742l1.492-.047v-.461a1.747,1.747,0,0,0-.387-1.238,1.577,1.577,0,0,0-1.2-.41,4.147,4.147,0,0,0-1.273.2,9.61,9.61,0,0,0-1.172.461l-.594-1.312a6.39,6.39,0,0,1,1.539-.559,7.083,7.083,0,0,1,1.578-.191,3.738,3.738,0,0,1,2.488.719A2.814,2.814,0,0,1,57,31.18V37Zm-2.734-1.25a2.274,2.274,0,0,0,1.605-.559,2.025,2.025,0,0,0,.605-1.566v-.75l-1.109.047a3.8,3.8,0,0,0-1.887.434,1.317,1.317,0,0,0-.59,1.184,1.155,1.155,0,0,0,.344.895A1.477,1.477,0,0,0,52.949,35.75ZM63.941,28.2a4.42,4.42,0,0,1,.914.078l-.18,1.711a3.47,3.47,0,0,0-.812-.094,2.351,2.351,0,0,0-1.785.719,2.6,2.6,0,0,0-.684,1.867V37H59.559V28.359H61l.242,1.523h.094a3.423,3.423,0,0,1,1.121-1.227A2.665,2.665,0,0,1,63.941,28.2Zm4.289,4.234,1.039-1.3,2.609-2.781H74L70.52,32.07l3.7,4.93H72.059l-2.773-3.789-1.008.828V37h-1.82V24.844h1.82v5.93l-.094,1.664Zm11.148,4.719a4.18,4.18,0,0,1-3.152-1.176,4.463,4.463,0,0,1-1.137-3.238,4.9,4.9,0,0,1,1.055-3.328,3.643,3.643,0,0,1,2.9-1.211,3.561,3.561,0,0,1,2.7,1.039,3.97,3.97,0,0,1,.992,2.859v.992H76.98a2.838,2.838,0,0,0,.68,1.934,2.367,2.367,0,0,0,1.8.676,6.662,6.662,0,0,0,1.426-.145,7.474,7.474,0,0,0,1.418-.48V36.57a5.637,5.637,0,0,1-1.359.453A8.336,8.336,0,0,1,79.379,37.156Zm-.336-7.562a1.845,1.845,0,0,0-1.4.555,2.644,2.644,0,0,0-.629,1.617h3.922a2.392,2.392,0,0,0-.516-1.621A1.764,1.764,0,0,0,79.043,29.594Zm9,6.078a4.465,4.465,0,0,0,1.344-.211v1.383a3.706,3.706,0,0,1-.785.223,5.41,5.41,0,0,1-1,.09Q85,37.156,85,34.406V29.75h-1.18v-.812l1.266-.672.625-1.828H86.84v1.922H89.3V29.75H86.84v4.625a1.3,1.3,0,0,0,.332.98A1.21,1.21,0,0,0,88.043,35.672Z" transform="translate(28 346)" fill="#222"/>
    <path id="Path_26741" data-name="Path 26741" d="M23.484,10.891h1.3a2.961,2.961,0,0,0,1.891-.484,1.757,1.757,0,0,0,.586-1.437,1.547,1.547,0,0,0-.633-1.391,3.47,3.47,0,0,0-1.906-.422H23.484Zm0,1.547V17H21.617V5.578h3.227a5.3,5.3,0,0,1,3.273.828,2.973,2.973,0,0,1,1.063,2.5,3.125,3.125,0,0,1-2.219,3.039L30.188,17H28.063l-2.734-4.562Zm11.938,4.719A4.18,4.18,0,0,1,32.27,15.98a4.463,4.463,0,0,1-1.137-3.238,4.9,4.9,0,0,1,1.055-3.328,3.643,3.643,0,0,1,2.9-1.211,3.561,3.561,0,0,1,2.7,1.039,3.97,3.97,0,0,1,.992,2.859v.992H33.023a2.838,2.838,0,0,0,.68,1.934,2.367,2.367,0,0,0,1.8.676,6.662,6.662,0,0,0,1.426-.145,7.474,7.474,0,0,0,1.418-.48V16.57a5.637,5.637,0,0,1-1.359.453A8.336,8.336,0,0,1,35.422,17.156Zm-.336-7.562a1.845,1.845,0,0,0-1.4.555,2.643,2.643,0,0,0-.629,1.617h3.922a2.392,2.392,0,0,0-.516-1.621A1.764,1.764,0,0,0,35.086,9.594ZM48.164,8.359V9.367l-1.477.273a2.383,2.383,0,0,1,.336.672,2.651,2.651,0,0,1,.133.844,2.585,2.585,0,0,1-.922,2.1,3.858,3.858,0,0,1-2.539.766,4.117,4.117,0,0,1-.75-.062,1.034,1.034,0,0,0-.594.859.478.478,0,0,0,.277.445,2.4,2.4,0,0,0,1.02.148h1.508a3.353,3.353,0,0,1,2.172.609,2.144,2.144,0,0,1,.742,1.758,2.556,2.556,0,0,1-1.211,2.266,6.376,6.376,0,0,1-3.5.8,4.83,4.83,0,0,1-2.7-.625,2.02,2.02,0,0,1-.93-1.781,1.9,1.9,0,0,1,.5-1.34,2.7,2.7,0,0,1,1.41-.754,1.38,1.38,0,0,1-.605-.5,1.272,1.272,0,0,1-.238-.73,1.257,1.257,0,0,1,.273-.82,3.155,3.155,0,0,1,.813-.664,2.407,2.407,0,0,1-1.09-.941,2.769,2.769,0,0,1-.418-1.527,2.738,2.738,0,0,1,.887-2.18A3.728,3.728,0,0,1,43.8,8.2a6.152,6.152,0,0,1,.77.051,4.845,4.845,0,0,1,.605.105Zm-6.789,9.984a1.01,1.01,0,0,0,.535.914,2.941,2.941,0,0,0,1.5.32,4.544,4.544,0,0,0,2.234-.43,1.288,1.288,0,0,0,.734-1.141.856.856,0,0,0-.4-.8,3.231,3.231,0,0,0-1.5-.238H43.094a1.954,1.954,0,0,0-1.254.371A1.217,1.217,0,0,0,41.375,18.344Zm.789-7.187a1.739,1.739,0,0,0,.418,1.25,1.581,1.581,0,0,0,1.2.438q1.594,0,1.594-1.7a1.932,1.932,0,0,0-.395-1.3,1.5,1.5,0,0,0-1.2-.457,1.545,1.545,0,0,0-1.207.453A1.9,1.9,0,0,0,42.164,11.156ZM55.859,17,55.6,15.867h-.094a2.6,2.6,0,0,1-1.09.945,3.644,3.644,0,0,1-1.613.344,3.167,3.167,0,0,1-2.344-.781,3.239,3.239,0,0,1-.773-2.367V8.359h1.852v5.328a2.311,2.311,0,0,0,.406,1.488,1.551,1.551,0,0,0,1.273.5,2.028,2.028,0,0,0,1.7-.691,3.81,3.81,0,0,0,.543-2.316v-4.3H57.3V17Zm5.9,0H59.922V4.844h1.836Zm8.031,0-.367-1.2h-.062A3.54,3.54,0,0,1,68.1,16.871a3.978,3.978,0,0,1-1.625.285,2.75,2.75,0,0,1-1.988-.687,2.573,2.573,0,0,1-.715-1.945,2.284,2.284,0,0,1,.992-2.016,5.721,5.721,0,0,1,3.023-.742l1.492-.047v-.461a1.747,1.747,0,0,0-.387-1.238,1.577,1.577,0,0,0-1.2-.41,4.147,4.147,0,0,0-1.273.2,9.61,9.61,0,0,0-1.172.461l-.594-1.312A6.39,6.39,0,0,1,66.2,8.395,7.083,7.083,0,0,1,67.773,8.2a3.738,3.738,0,0,1,2.488.719,2.814,2.814,0,0,1,.84,2.258V17Zm-2.734-1.25a2.274,2.274,0,0,0,1.605-.559,2.025,2.025,0,0,0,.605-1.566v-.75l-1.109.047a3.8,3.8,0,0,0-1.887.434,1.317,1.317,0,0,0-.59,1.184,1.155,1.155,0,0,0,.344.895A1.477,1.477,0,0,0,67.055,15.75Zm9.828-.078a4.465,4.465,0,0,0,1.344-.211v1.383a3.706,3.706,0,0,1-.785.223,5.409,5.409,0,0,1-1,.09q-2.609,0-2.609-2.75V9.75h-1.18V8.938l1.266-.672.625-1.828H75.68V8.359h2.461V9.75H75.68v4.625a1.3,1.3,0,0,0,.332.98A1.21,1.21,0,0,0,76.883,15.672Zm10.734-3.008a4.716,4.716,0,0,1-1.086,3.3,3.891,3.891,0,0,1-3.023,1.188,4.143,4.143,0,0,1-2.141-.547,3.61,3.61,0,0,1-1.43-1.57,5.348,5.348,0,0,1-.5-2.375,4.684,4.684,0,0,1,1.078-3.281A3.909,3.909,0,0,1,83.555,8.2,3.807,3.807,0,0,1,86.523,9.41,4.663,4.663,0,0,1,87.617,12.664Zm-6.289,0q0,2.992,2.211,2.992,2.188,0,2.188-2.992,0-2.961-2.2-2.961a1.879,1.879,0,0,0-1.676.766A3.9,3.9,0,0,0,81.328,12.664ZM94.109,8.2a4.42,4.42,0,0,1,.914.078l-.18,1.711a3.47,3.47,0,0,0-.812-.094,2.351,2.351,0,0,0-1.785.719,2.6,2.6,0,0,0-.684,1.867V17H89.727V8.359h1.438l.242,1.523H91.5a3.423,3.423,0,0,1,1.121-1.227A2.665,2.665,0,0,1,94.109,8.2Zm1.2.156h2l1.758,4.9a9.294,9.294,0,0,1,.531,1.969h.063a8.212,8.212,0,0,1,.258-1.043q.188-.613,1.984-5.824h1.984l-3.7,9.789q-1.008,2.7-3.359,2.7a5.287,5.287,0,0,1-1.187-.133V19.258a4.3,4.3,0,0,0,.945.094,1.936,1.936,0,0,0,1.867-1.539l.32-.812ZM35.848,37l-1.141-3.172H30.34L29.223,37H27.254l4.273-11.469h2.031L37.832,37Zm-1.633-4.781-1.07-3.109q-.117-.313-.324-.984t-.285-.984a17.509,17.509,0,0,1-.617,2.1l-1.031,2.977Zm9.313,4.938a3.026,3.026,0,0,1-2.547-1.18h-.109q.109,1.094.109,1.328v3.539H39.145V28.359h1.484q.063.242.258,1.156h.094A2.876,2.876,0,0,1,43.559,28.2a3,3,0,0,1,2.52,1.172,5.284,5.284,0,0,1,.9,3.289,5.288,5.288,0,0,1-.918,3.3A3.026,3.026,0,0,1,43.527,37.156ZM43.082,29.7a1.908,1.908,0,0,0-1.6.641,3.32,3.32,0,0,0-.5,2.047v.273a4.042,4.042,0,0,0,.5,2.285,1.86,1.86,0,0,0,1.633.707,1.658,1.658,0,0,0,1.469-.781,4.035,4.035,0,0,0,.516-2.227,3.893,3.893,0,0,0-.512-2.2A1.707,1.707,0,0,0,43.082,29.7ZM53.5,37.156a3.026,3.026,0,0,1-2.547-1.18H50.84q.109,1.094.109,1.328v3.539H49.113V28.359H50.6q.063.242.258,1.156h.094A2.876,2.876,0,0,1,53.527,28.2a3,3,0,0,1,2.52,1.172,5.284,5.284,0,0,1,.9,3.289,5.288,5.288,0,0,1-.918,3.3A3.026,3.026,0,0,1,53.5,37.156ZM53.051,29.7a1.908,1.908,0,0,0-1.6.641,3.32,3.32,0,0,0-.5,2.047v.273a4.042,4.042,0,0,0,.5,2.285,1.86,1.86,0,0,0,1.633.707,1.658,1.658,0,0,0,1.469-.781,4.035,4.035,0,0,0,.516-2.227,3.893,3.893,0,0,0-.512-2.2A1.707,1.707,0,0,0,53.051,29.7Zm10.414-1.5a4.419,4.419,0,0,1,.914.078l-.18,1.711a3.47,3.47,0,0,0-.812-.094,2.351,2.351,0,0,0-1.785.719,2.6,2.6,0,0,0-.684,1.867V37H59.082V28.359H60.52l.242,1.523h.094a3.423,3.423,0,0,1,1.121-1.227A2.665,2.665,0,0,1,63.465,28.2Zm10.18,4.461a4.716,4.716,0,0,1-1.086,3.3,3.891,3.891,0,0,1-3.023,1.188,4.143,4.143,0,0,1-2.141-.547,3.61,3.61,0,0,1-1.43-1.57,5.348,5.348,0,0,1-.5-2.375,4.684,4.684,0,0,1,1.078-3.281,3.909,3.909,0,0,1,3.039-1.18,3.807,3.807,0,0,1,2.969,1.207A4.663,4.663,0,0,1,73.645,32.664Zm-6.289,0q0,2.992,2.211,2.992,2.188,0,2.188-2.992,0-2.961-2.2-2.961a1.879,1.879,0,0,0-1.676.766A3.9,3.9,0,0,0,67.355,32.664ZM77.723,37l-3.281-8.641h1.938l1.758,5.023a9.954,9.954,0,0,1,.547,2.047h.063a13.744,13.744,0,0,1,.547-2.047l1.758-5.023H83L79.707,37Zm12,0-.367-1.2h-.062a3.54,3.54,0,0,1-1.258,1.074,3.978,3.978,0,0,1-1.625.285,2.75,2.75,0,0,1-1.988-.687,2.573,2.573,0,0,1-.715-1.945,2.284,2.284,0,0,1,.992-2.016,5.721,5.721,0,0,1,3.023-.742l1.492-.047v-.461a1.747,1.747,0,0,0-.387-1.238,1.577,1.577,0,0,0-1.2-.41,4.147,4.147,0,0,0-1.273.2,9.61,9.61,0,0,0-1.172.461l-.594-1.312a6.39,6.39,0,0,1,1.539-.559,7.083,7.083,0,0,1,1.578-.191,3.738,3.738,0,0,1,2.488.719,2.814,2.814,0,0,1,.84,2.258V37Zm-2.734-1.25a2.274,2.274,0,0,0,1.605-.559,2.025,2.025,0,0,0,.605-1.566v-.75l-1.109.047a3.8,3.8,0,0,0-1.887.434,1.317,1.317,0,0,0-.59,1.184,1.155,1.155,0,0,0,.344.895A1.477,1.477,0,0,0,86.988,35.75ZM95.434,37H93.6V24.844h1.836Z" transform="translate(238 108)" fill="#222"/>
    <path id="Path_26742" data-name="Path 26742" d="M48.633,17,45.32,7.461h-.062q.133,2.125.133,3.984V17H43.7V5.578h2.633L49.5,14.664h.047l3.266-9.086h2.641V17h-1.8V11.352q0-.852.043-2.219t.074-1.656h-.062L50.281,17Zm15.039,0L63.3,15.8h-.062a3.54,3.54,0,0,1-1.258,1.074,3.978,3.978,0,0,1-1.625.285,2.75,2.75,0,0,1-1.988-.687,2.573,2.573,0,0,1-.715-1.945,2.284,2.284,0,0,1,.992-2.016,5.721,5.721,0,0,1,3.023-.742l1.492-.047v-.461a1.747,1.747,0,0,0-.387-1.238,1.577,1.577,0,0,0-1.2-.41,4.147,4.147,0,0,0-1.273.2,9.61,9.61,0,0,0-1.172.461l-.594-1.312a6.39,6.39,0,0,1,1.539-.559A7.083,7.083,0,0,1,61.656,8.2a3.738,3.738,0,0,1,2.488.719,2.814,2.814,0,0,1,.84,2.258V17Zm-2.734-1.25a2.274,2.274,0,0,0,1.605-.559,2.025,2.025,0,0,0,.605-1.566v-.75l-1.109.047a3.8,3.8,0,0,0-1.887.434,1.317,1.317,0,0,0-.59,1.184,1.155,1.155,0,0,0,.344.895A1.477,1.477,0,0,0,60.938,15.75Zm12.414-1.211a2.261,2.261,0,0,1-.922,1.941,4.414,4.414,0,0,1-2.641.676,6.237,6.237,0,0,1-2.773-.523V15.047a6.809,6.809,0,0,0,2.836.7q1.7,0,1.7-1.023a.811.811,0,0,0-.187-.547,2.219,2.219,0,0,0-.617-.453,10.622,10.622,0,0,0-1.2-.531,5.529,5.529,0,0,1-2.02-1.156,2.139,2.139,0,0,1-.527-1.5,1.97,1.97,0,0,1,.895-1.723A4.245,4.245,0,0,1,70.328,8.2a6.893,6.893,0,0,1,2.883.617L72.617,10.2a6.412,6.412,0,0,0-2.352-.578q-1.453,0-1.453.828a.833.833,0,0,0,.379.688,8.332,8.332,0,0,0,1.652.773,7.553,7.553,0,0,1,1.555.758,2.265,2.265,0,0,1,.719.793A2.3,2.3,0,0,1,73.352,14.539Zm7.789,0a2.261,2.261,0,0,1-.922,1.941,4.414,4.414,0,0,1-2.641.676,6.237,6.237,0,0,1-2.773-.523V15.047a6.809,6.809,0,0,0,2.836.7q1.7,0,1.7-1.023a.811.811,0,0,0-.187-.547,2.219,2.219,0,0,0-.617-.453,10.622,10.622,0,0,0-1.2-.531,5.529,5.529,0,0,1-2.02-1.156,2.139,2.139,0,0,1-.527-1.5,1.97,1.97,0,0,1,.895-1.723A4.245,4.245,0,0,1,78.117,8.2,6.893,6.893,0,0,1,81,8.82L80.406,10.2a6.412,6.412,0,0,0-2.352-.578q-1.453,0-1.453.828a.833.833,0,0,0,.379.688,8.332,8.332,0,0,0,1.652.773,7.553,7.553,0,0,1,1.555.758,2.265,2.265,0,0,1,.719.793A2.3,2.3,0,0,1,81.141,14.539ZM28.449,29.031a3.33,3.33,0,0,1-1.172,2.742,5.163,5.163,0,0,1-3.336.953H22.754V37H20.887V25.578h3.289a4.976,4.976,0,0,1,3.207.875A3.141,3.141,0,0,1,28.449,29.031Zm-5.7,2.125h.992a3.555,3.555,0,0,0,2.109-.5,1.82,1.82,0,0,0,.672-1.562,1.773,1.773,0,0,0-.6-1.469,2.971,2.971,0,0,0-1.875-.484h-1.3ZM34.918,28.2a4.419,4.419,0,0,1,.914.078l-.18,1.711a3.47,3.47,0,0,0-.812-.094,2.351,2.351,0,0,0-1.785.719,2.6,2.6,0,0,0-.684,1.867V37H30.535V28.359h1.438l.242,1.523h.094a3.423,3.423,0,0,1,1.121-1.227A2.665,2.665,0,0,1,34.918,28.2ZM45.1,32.664a4.716,4.716,0,0,1-1.086,3.3,3.891,3.891,0,0,1-3.023,1.188,4.143,4.143,0,0,1-2.141-.547,3.61,3.61,0,0,1-1.43-1.57,5.348,5.348,0,0,1-.5-2.375A4.684,4.684,0,0,1,38,29.383a3.909,3.909,0,0,1,3.039-1.18A3.807,3.807,0,0,1,44,29.41,4.662,4.662,0,0,1,45.1,32.664Zm-6.289,0q0,2.992,2.211,2.992,2.187,0,2.188-2.992,0-2.961-2.2-2.961a1.879,1.879,0,0,0-1.676.766A3.9,3.9,0,0,0,38.809,32.664Zm11.313,4.492A3.01,3.01,0,0,1,47.6,35.984a5.267,5.267,0,0,1-.906-3.289,5.284,5.284,0,0,1,.918-3.309A3.038,3.038,0,0,1,50.152,28.2a2.979,2.979,0,0,1,2.594,1.258h.094a11.005,11.005,0,0,1-.133-1.469V24.844h1.844V37H53.113l-.32-1.133h-.086A2.935,2.935,0,0,1,50.121,37.156Zm.492-1.484a2,2,0,0,0,1.648-.637,3.352,3.352,0,0,0,.531-2.066v-.258a3.873,3.873,0,0,0-.531-2.32A1.971,1.971,0,0,0,50.6,29.7a1.688,1.688,0,0,0-1.492.785,4.024,4.024,0,0,0-.523,2.238,3.923,3.923,0,0,0,.508,2.191A1.714,1.714,0,0,0,50.613,35.672ZM63.27,37l-.258-1.133h-.094a2.6,2.6,0,0,1-1.09.945,3.644,3.644,0,0,1-1.613.344,3.167,3.167,0,0,1-2.344-.781,3.239,3.239,0,0,1-.773-2.367V28.359h1.852v5.328a2.311,2.311,0,0,0,.406,1.488,1.551,1.551,0,0,0,1.273.5,2.028,2.028,0,0,0,1.7-.691,3.81,3.81,0,0,0,.543-2.316v-4.3h1.844V37Zm7.547.156a3.783,3.783,0,0,1-2.98-1.145,4.782,4.782,0,0,1-1.02-3.285,4.809,4.809,0,0,1,1.066-3.352A3.956,3.956,0,0,1,70.965,28.2a5.776,5.776,0,0,1,2.461.508l-.555,1.477a5.56,5.56,0,0,0-1.922-.453q-2.242,0-2.242,2.977a3.565,3.565,0,0,0,.559,2.184,1.934,1.934,0,0,0,1.637.73,4.7,4.7,0,0,0,2.32-.609v1.6a3.626,3.626,0,0,1-1.051.414A6.305,6.305,0,0,1,70.816,37.156Zm7.656-1.484a4.465,4.465,0,0,0,1.344-.211v1.383a3.706,3.706,0,0,1-.785.223,5.41,5.41,0,0,1-1,.09q-2.609,0-2.609-2.75V29.75h-1.18v-.812l1.266-.672.625-1.828H77.27v1.922H79.73V29.75H77.27v4.625a1.3,1.3,0,0,0,.332.98A1.21,1.21,0,0,0,78.473,35.672ZM83.379,37H81.543V28.359h1.836ZM81.434,26.07a1.017,1.017,0,0,1,.27-.758,1.05,1.05,0,0,1,.77-.266,1.028,1.028,0,0,1,.754.266,1.017,1.017,0,0,1,.27.758,1,1,0,0,1-.27.738,1.019,1.019,0,0,1-.754.27,1.041,1.041,0,0,1-.77-.27A1,1,0,0,1,81.434,26.07Zm12.234,6.594a4.716,4.716,0,0,1-1.086,3.3,3.891,3.891,0,0,1-3.023,1.188,4.143,4.143,0,0,1-2.141-.547,3.61,3.61,0,0,1-1.43-1.57,5.348,5.348,0,0,1-.5-2.375,4.684,4.684,0,0,1,1.078-3.281,3.909,3.909,0,0,1,3.039-1.18,3.807,3.807,0,0,1,2.969,1.207A4.663,4.663,0,0,1,93.668,32.664Zm-6.289,0q0,2.992,2.211,2.992,2.188,0,2.188-2.992,0-2.961-2.2-2.961a1.879,1.879,0,0,0-1.676.766A3.9,3.9,0,0,0,87.379,32.664Zm16,4.336h-1.844V31.688a2.325,2.325,0,0,0-.4-1.492,1.555,1.555,0,0,0-1.277-.492,2.031,2.031,0,0,0-1.7.688,3.8,3.8,0,0,0-.539,2.3V37H95.777V28.359h1.438l.258,1.133h.094a2.556,2.556,0,0,1,1.109-.953,3.718,3.718,0,0,1,1.594-.336q3.109,0,3.109,3.164Z" transform="translate(238 346)" fill="#222"/>
    <g id="Group_11093" data-name="Group 11093" transform="translate(-126 -3004)">
      <path id="Path_1375" data-name="Path 1375" d="M638,140H578v-7.978l2.341-3.512V80h55.317v48.51L638,132.022Zm-58.537-1.463h57.073v-6.071l-2.341-3.512V81.463H581.8v47.49l-2.341,3.512Z" transform="translate(-392 2962)" fill="#222"/>
      <path id="Line_1302" data-name="Line 1302" d="M54.146.463H0V-1H54.146Z" transform="translate(188.927 3091.293)" fill="#222"/>
      <path id="Line_1303" data-name="Line 1303" d="M2.927.463H0V-1H2.927Z" transform="translate(191.122 3097.146)" fill="#222"/>
      <path id="Line_1304" data-name="Line 1304" d="M2.927.463H0V-1H2.927Z" transform="translate(196.976 3097.146)" fill="#222"/>
      <path id="Line_1305" data-name="Line 1305" d="M2.927.463H0V-1H2.927Z" transform="translate(202.829 3097.146)" fill="#222"/>
      <path id="Line_1306" data-name="Line 1306" d="M17.561.463H0V-1H17.561Z" transform="translate(224.049 3097.146)" fill="#222"/>
      <path id="Union_1" data-name="Union 1" d="M-914,1990.964v-12.642l10.949-6.322,10.948,6.322v12.642l-10.948,6.322Zm11.61,4.251,8.825-5.1v-10.108l-8.825,5.1Zm-10.147-5.1,8.683,5.013v-10.108l-8.683-5.014Zm9.486-6.322,8.753-5.054-8.753-5.054-8.754,5.054Z" transform="translate(1119.256 1084.521)" fill="#57bc00"/>
      <path id="Line_1308" data-name="Line 1308" d="M5.854.463H0V-1H5.854Z" transform="translate(188.927 3069.342)" fill="#222"/>
      <path id="Path_1378" data-name="Path 1378" d="M596.454,130.863l-3.559-2.055V102.117l3.559-2.055.732,1.267-2.827,1.632v25l2.827,1.632Z" transform="translate(-398.176 2953.701)" fill="#222"/>
      <path id="Line_1309" data-name="Line 1309" d="M3.659.463H0V-1H3.659Z" transform="translate(198.439 3066.415)" fill="#222"/>
      <path id="Line_1310" data-name="Line 1310" d="M3.659.463H0V-1H3.659Z" transform="translate(198.439 3072.268)" fill="#222"/>
      <path id="Line_1311" data-name="Line 1311" d="M3.659.463H0V-1H3.659Z" transform="translate(198.439 3078.122)" fill="#222"/>
      <path id="Line_1312" data-name="Line 1312" d="M3.659.463H0V-1H3.659Z" transform="translate(198.439 3060.561)" fill="#222"/>
      <path id="Line_1313" data-name="Line 1313" d="M5.854.463H0V-1H5.854Z" transform="translate(237.22 3069.342)" fill="#222"/>
      <path id="Path_1379" data-name="Path 1379" d="M658.882,130.863l-.732-1.267,2.827-1.632v-25l-2.827-1.632.732-1.267,3.559,2.055v26.692Z" transform="translate(-425.16 2953.701)" fill="#222"/>
      <path id="Line_1314" data-name="Line 1314" d="M3.659.463H0V-1H3.659Z" transform="translate(229.902 3066.415)" fill="#222"/>
      <path id="Line_1315" data-name="Line 1315" d="M3.659.463H0V-1H3.659Z" transform="translate(229.902 3072.268)" fill="#222"/>
      <path id="Line_1316" data-name="Line 1316" d="M3.659.463H0V-1H3.659Z" transform="translate(229.902 3078.122)" fill="#222"/>
      <path id="Line_1317" data-name="Line 1317" d="M3.659.463H0V-1H3.659Z" transform="translate(229.902 3060.561)" fill="#222"/>
      <path id="Line_1318" data-name="Line 1318" d="M54.146.463H0V-1H54.146Z" transform="translate(188.927 3048.854)" fill="#222"/>
    </g>
    <path id="Path_26744" data-name="Path 26744" d="M35.193,12.558a7.029,7.029,0,0,1-1.569,4.878,5.674,5.674,0,0,1-4.443,1.74,5.713,5.713,0,0,1-4.469-1.727,7.073,7.073,0,0,1-1.56-4.909,6.963,6.963,0,0,1,1.569-4.887A5.781,5.781,0,0,1,29.2,5.948a5.664,5.664,0,0,1,4.43,1.731A7.022,7.022,0,0,1,35.193,12.558Zm-9.809,0a5.762,5.762,0,0,0,.958,3.6,3.382,3.382,0,0,0,2.839,1.226,3.376,3.376,0,0,0,2.826-1.213,5.772,5.772,0,0,0,.954-3.612,5.784,5.784,0,0,0-.945-3.586A3.34,3.34,0,0,0,29.2,7.75a3.41,3.41,0,0,0-2.852,1.222A5.706,5.706,0,0,0,25.385,12.558ZM46.285,19H44.211V13.023a2.616,2.616,0,0,0-.453-1.679,1.75,1.75,0,0,0-1.437-.554,2.285,2.285,0,0,0-1.916.773,4.27,4.27,0,0,0-.606,2.593V19H37.733V9.279h1.617l.29,1.274h.105a2.876,2.876,0,0,1,1.248-1.072A4.182,4.182,0,0,1,42.787,9.1q3.5,0,3.5,3.56Zm7.119.176a4.7,4.7,0,0,1-3.546-1.323,5.021,5.021,0,0,1-1.279-3.643,5.509,5.509,0,0,1,1.187-3.744A4.1,4.1,0,0,1,53.026,9.1a4.006,4.006,0,0,1,3.041,1.169,4.467,4.467,0,0,1,1.116,3.217v1.116H50.706a3.193,3.193,0,0,0,.765,2.175,2.663,2.663,0,0,0,2.03.76,7.5,7.5,0,0,0,1.6-.163,8.408,8.408,0,0,0,1.6-.541v1.679a6.342,6.342,0,0,1-1.529.51A9.378,9.378,0,0,1,53.4,19.176Zm-.378-8.508a2.075,2.075,0,0,0-1.578.624,2.974,2.974,0,0,0-.708,1.819h4.412a2.691,2.691,0,0,0-.58-1.824A1.984,1.984,0,0,0,53.026,10.668Zm18.809,4.843A3.234,3.234,0,0,1,70.6,18.2a5.393,5.393,0,0,1-3.419.976,8.158,8.158,0,0,1-3.568-.677V16.513a9.7,9.7,0,0,0,1.868.65,7.919,7.919,0,0,0,1.841.237,2.929,2.929,0,0,0,1.841-.475,1.548,1.548,0,0,0,.593-1.274,1.6,1.6,0,0,0-.545-1.222,8.2,8.2,0,0,0-2.25-1.187,5.952,5.952,0,0,1-2.479-1.626,3.44,3.44,0,0,1-.721-2.2A3.077,3.077,0,0,1,64.9,6.889a4.74,4.74,0,0,1,3.067-.923,9.012,9.012,0,0,1,3.674.809l-.668,1.714a8.027,8.027,0,0,0-3.059-.721,2.347,2.347,0,0,0-1.547.444,1.458,1.458,0,0,0-.527,1.173,1.652,1.652,0,0,0,.211.857,2.155,2.155,0,0,0,.694.672,11.745,11.745,0,0,0,1.74.835,9.522,9.522,0,0,1,2.074,1.1A3.231,3.231,0,0,1,71.527,14,3.463,3.463,0,0,1,71.835,15.511Zm5.889,2a5.023,5.023,0,0,0,1.512-.237v1.556a4.169,4.169,0,0,1-.883.25,6.086,6.086,0,0,1-1.121.1q-2.936,0-2.936-3.094V10.844H72.969V9.93l1.424-.756.7-2.057H76.37V9.279h2.769v1.564H76.37v5.2a1.46,1.46,0,0,0,.374,1.1A1.362,1.362,0,0,0,77.724,17.506ZM89.8,14.122a5.306,5.306,0,0,1-1.222,3.718,4.377,4.377,0,0,1-3.4,1.336,4.66,4.66,0,0,1-2.408-.615,4.062,4.062,0,0,1-1.608-1.767,6.017,6.017,0,0,1-.562-2.672,5.27,5.27,0,0,1,1.213-3.691A4.4,4.4,0,0,1,85.229,9.1a4.282,4.282,0,0,1,3.34,1.358A5.245,5.245,0,0,1,89.8,14.122Zm-7.075,0q0,3.366,2.487,3.366,2.461,0,2.461-3.366,0-3.331-2.479-3.331a2.113,2.113,0,0,0-1.885.861A4.383,4.383,0,0,0,82.725,14.122ZM97.1,19.176a3.4,3.4,0,0,1-2.865-1.327h-.123q.123,1.23.123,1.494v3.981H92.173V9.279h1.67q.07.272.29,1.3h.105a3.236,3.236,0,0,1,2.9-1.477,3.374,3.374,0,0,1,2.834,1.318,5.944,5.944,0,0,1,1.015,3.7,5.948,5.948,0,0,1-1.033,3.718A3.4,3.4,0,0,1,97.1,19.176Zm-.5-8.385a2.147,2.147,0,0,0-1.8.721,3.735,3.735,0,0,0-.567,2.3v.308a4.547,4.547,0,0,0,.563,2.571,2.092,2.092,0,0,0,1.837.8,1.865,1.865,0,0,0,1.652-.879,4.539,4.539,0,0,0,.58-2.5,4.38,4.38,0,0,0-.576-2.474A1.92,1.92,0,0,0,96.6,10.791ZM40.124,35.511A3.234,3.234,0,0,1,38.885,38.2a5.393,5.393,0,0,1-3.419.976A8.158,8.158,0,0,1,31.9,38.5V36.513a9.7,9.7,0,0,0,1.868.65,7.919,7.919,0,0,0,1.841.237,2.929,2.929,0,0,0,1.841-.475,1.548,1.548,0,0,0,.593-1.274A1.6,1.6,0,0,0,37.5,34.43a8.2,8.2,0,0,0-2.25-1.187,5.952,5.952,0,0,1-2.479-1.626,3.44,3.44,0,0,1-.721-2.2,3.077,3.077,0,0,1,1.143-2.531,4.74,4.74,0,0,1,3.067-.923,9.012,9.012,0,0,1,3.674.809l-.668,1.714a8.027,8.027,0,0,0-3.059-.721,2.347,2.347,0,0,0-1.547.444,1.458,1.458,0,0,0-.527,1.173,1.652,1.652,0,0,0,.211.857,2.155,2.155,0,0,0,.694.672,11.745,11.745,0,0,0,1.74.835,9.522,9.522,0,0,1,2.074,1.1A3.231,3.231,0,0,1,39.816,34,3.463,3.463,0,0,1,40.124,35.511Zm6.513,3.665a4.7,4.7,0,0,1-3.546-1.323,5.021,5.021,0,0,1-1.279-3.643A5.509,5.509,0,0,1,43,30.466,4.1,4.1,0,0,1,46.259,29.1,4.006,4.006,0,0,1,49.3,30.272a4.467,4.467,0,0,1,1.116,3.217v1.116H43.938a3.193,3.193,0,0,0,.765,2.175,2.663,2.663,0,0,0,2.03.76,7.5,7.5,0,0,0,1.6-.163,8.408,8.408,0,0,0,1.6-.541v1.679a6.342,6.342,0,0,1-1.529.51A9.378,9.378,0,0,1,46.637,39.176Zm-.378-8.508a2.075,2.075,0,0,0-1.578.624,2.974,2.974,0,0,0-.708,1.819h4.412a2.691,2.691,0,0,0-.58-1.824A1.984,1.984,0,0,0,46.259,30.668ZM57.693,29.1a4.972,4.972,0,0,1,1.028.088l-.2,1.925a3.9,3.9,0,0,0-.914-.105,2.645,2.645,0,0,0-2.008.809,2.923,2.923,0,0,0-.769,2.1V39H52.763V29.279H54.38l.272,1.714h.105a3.851,3.851,0,0,1,1.261-1.38A3,3,0,0,1,57.693,29.1ZM62.738,39l-3.691-9.721h2.18L63.2,34.931a11.2,11.2,0,0,1,.615,2.3h.07a15.462,15.462,0,0,1,.615-2.3l1.978-5.651h2.2L64.971,39Zm9.483,0H70.156V29.279h2.065ZM70.033,26.7a1.144,1.144,0,0,1,.3-.853,1.182,1.182,0,0,1,.866-.3,1.156,1.156,0,0,1,.848.3,1.144,1.144,0,0,1,.3.853,1.122,1.122,0,0,1-.3.831,1.147,1.147,0,0,1-.848.3,1.171,1.171,0,0,1-.866-.3A1.122,1.122,0,0,1,70.033,26.7Zm9.062,12.472a4.256,4.256,0,0,1-3.353-1.288,5.38,5.38,0,0,1-1.147-3.7,5.41,5.41,0,0,1,1.2-3.771A4.45,4.45,0,0,1,79.262,29.1a6.5,6.5,0,0,1,2.769.571l-.624,1.661a6.255,6.255,0,0,0-2.162-.51q-2.522,0-2.522,3.349a4.01,4.01,0,0,0,.628,2.457,2.175,2.175,0,0,0,1.841.822,5.283,5.283,0,0,0,2.61-.686v1.8a4.079,4.079,0,0,1-1.182.466A7.093,7.093,0,0,1,79.095,39.176Zm9.237,0a4.7,4.7,0,0,1-3.546-1.323,5.021,5.021,0,0,1-1.279-3.643,5.509,5.509,0,0,1,1.187-3.744A4.1,4.1,0,0,1,87.954,29.1,4.006,4.006,0,0,1,91,30.272a4.467,4.467,0,0,1,1.116,3.217v1.116H85.634a3.193,3.193,0,0,0,.765,2.175,2.663,2.663,0,0,0,2.03.76,7.5,7.5,0,0,0,1.6-.163,8.408,8.408,0,0,0,1.6-.541v1.679a6.342,6.342,0,0,1-1.529.51A9.378,9.378,0,0,1,88.332,39.176Zm-.378-8.508a2.075,2.075,0,0,0-1.578.624,2.974,2.974,0,0,0-.708,1.819h4.412a2.691,2.691,0,0,0-.58-1.824A1.984,1.984,0,0,0,87.954,30.668Z" transform="translate(134 194)" fill="#222"/>
    <g id="Group_11094" data-name="Group 11094" transform="translate(7 -29)">
      <path id="Path_1394" data-name="Path 1394" d="M381.39,157.89H377V143.5h1.463v12.927h1.463V143.5h1.463Z" transform="translate(-58.39 -39.183)" fill="#222"/>
      <path id="Rectangle_265" data-name="Rectangle 265" d="M-1.5-1.5h60V6.793h-60ZM57.037-.037H-.037V5.329H57.037Z" transform="translate(264.5 98.256)" fill="#222"/>
      <path id="Path_1395" data-name="Path 1395" d="M267.39,157.89H263V143.5h1.463v12.927h1.463V143.5h1.463Z" transform="translate(0 -39.183)" fill="#222"/>
      <path id="Line_1335" data-name="Line 1335" d="M20.976-.037H0V-1.5H20.976Z" transform="translate(267.146 110.939)" fill="#222"/>
      <path id="Path_1396" data-name="Path 1396" d="M324.22,155.585h-1.463v-5.122h-8.293v5.122H313V149h11.22Z" transform="translate(-25.61 -42)" fill="#222"/>
      <path id="Path_1397" data-name="Path 1397" d="M314.271,158.536v6.25l-2.5,1.5-.528,3.7h-4.337l.564-9.592Zm-1.463,5.422v-3.506l-3.935,1.073-.411,6.993h1.516l.447-3.131Z" transform="translate(-22.49 -46.884)" fill="#222"/>
      <path id="Line_1336" data-name="Line 1336" d="M20.976-.037H0V-1.5H20.976Z" transform="translate(297.878 110.939)" fill="#222"/>
      <path id="Path_1398" data-name="Path 1398" d="M327,158.536l6.8,1.854.564,9.592h-4.337l-.528-3.7-2.5-1.5Zm5.4,2.989-3.935-1.073v3.506l2.382,1.429.447,3.131h1.516Z" transform="translate(-32.78 -46.884)" fill="#222"/>
      <path id="Line_1337" data-name="Line 1337" d="M3.9-.037H0V-1.5H3.9Z" transform="translate(291.049 116.305)" fill="#222"/>
      <path id="Line_1338" data-name="Line 1338" d="M20.976-.037H0V-1.5H20.976Z" transform="translate(267.146 113.866)" fill="#222"/>
      <path id="Line_1339" data-name="Line 1339" d="M20.976-.037H0V-1.5H20.976Z" transform="translate(297.878 113.866)" fill="#222"/>
      <path id="Path_1399" data-name="Path 1399" d="M303,149.969a14.593,14.593,0,0,1-5.556-.97,8.779,8.779,0,0,1-3.2-2.2,6.889,6.889,0,0,1-1.724-3.312l1.448-.213v0a5.567,5.567,0,0,0,1.419,2.609,7.389,7.389,0,0,0,2.675,1.788,13.228,13.228,0,0,0,4.939.835Z" transform="translate(-15.118 -39.067)" fill="#222"/>
      <path id="Path_1400" data-name="Path 1400" d="M335,149.969v-1.463a13.228,13.228,0,0,0,4.939-.835,7.39,7.39,0,0,0,2.675-1.788,5.567,5.567,0,0,0,1.419-2.609v0l1.448.213a6.889,6.889,0,0,1-1.724,3.312,8.778,8.778,0,0,1-3.2,2.2A14.594,14.594,0,0,1,335,149.969Z" transform="translate(-36.878 -39.067)" fill="#222"/>
      <path id="Ellipse_45" data-name="Ellipse 45" d="M.7-1.5A2.2,2.2,0,1,1-1.5.7,2.2,2.2,0,0,1,.7-1.5Zm0,2.927A.732.732,0,1,0-.037.7.733.733,0,0,0,.7,1.427Z" transform="translate(267.427 100.207)" fill="#222"/>
      <path id="Ellipse_46" data-name="Ellipse 46" d="M.7-1.5A2.2,2.2,0,1,1-1.5.7,2.2,2.2,0,0,1,.7-1.5Zm0,2.927A.732.732,0,1,0-.037.7.733.733,0,0,0,.7,1.427Z" transform="translate(273.28 100.207)" fill="#222"/>
      <path id="Line_1340" data-name="Line 1340" d="M3.9-.037H0V-1.5H3.9Z" transform="translate(315.439 101.671)" fill="#222"/>
      <path id="Ellipse_47" data-name="Ellipse 47" d="M2.646-1.5A4.146,4.146,0,1,1-1.5,2.646,4.151,4.151,0,0,1,2.646-1.5Zm0,6.829A2.683,2.683,0,1,0-.037,2.646,2.686,2.686,0,0,0,2.646,5.329Z" transform="translate(290.354 120.207)" fill="#222"/>
      <path id="Path_1401" data-name="Path 1401" d="M323.4,110.951h-1.463a10.488,10.488,0,1,0-20.976,0H299.5a11.951,11.951,0,1,1,23.9,0Z" transform="translate(-18.695 -16.39)" fill="#57bc00"/>
      <path id="Path_1402" data-name="Path 1402" d="M323.122,94.561h-1.463V92.08a1.668,1.668,0,0,0-1.666-1.666h-2.464a3.133,3.133,0,0,1-1.822-.579,3.031,3.031,0,0,1-1.141-1.546,20.191,20.191,0,0,0-1.132-2.767,3.1,3.1,0,0,1,.6-3.574l1.732-1.732a1.666,1.666,0,0,0,0-2.355l-3.508-3.508a1.667,1.667,0,0,0-2.355,0l-1.654,1.654a3.129,3.129,0,0,1-1.712.881,3.037,3.037,0,0,1-1.91-.3,20.2,20.2,0,0,0-2.837-1.209,3.1,3.1,0,0,1-2.086-2.954V70.129a1.668,1.668,0,0,0-1.666-1.666h-4.961a1.668,1.668,0,0,0-1.666,1.666v2.142a3.138,3.138,0,0,1-.586,1.833,3.016,3.016,0,0,1-1.565,1.139,20.2,20.2,0,0,0-2.993,1.2,3.091,3.091,0,0,1-3.567-.608l-1.487-1.487a1.668,1.668,0,0,0-2.355,0l-3.508,3.508a1.666,1.666,0,0,0,0,2.355l1.41,1.41a3.138,3.138,0,0,1,.881,1.7,3.015,3.015,0,0,1-.3,1.908,20.152,20.152,0,0,0-1.267,3.016,3.1,3.1,0,0,1-2.931,2.16h-2.021a1.668,1.668,0,0,0-1.666,1.666v2.48H268V92.08a3.133,3.133,0,0,1,3.129-3.129h2.021a1.636,1.636,0,0,0,1.54-1.152,21.617,21.617,0,0,1,1.36-3.236,1.648,1.648,0,0,0-.322-1.9l-1.41-1.41a3.129,3.129,0,0,1,0-4.425l3.508-3.508a3.133,3.133,0,0,1,4.425,0l1.487,1.487a1.63,1.63,0,0,0,1.878.334,21.666,21.666,0,0,1,3.21-1.292,1.647,1.647,0,0,0,1.124-1.575V70.129A3.133,3.133,0,0,1,293.081,67h4.961a3.133,3.133,0,0,1,3.129,3.129v2.295a1.638,1.638,0,0,0,1.091,1.568,21.676,21.676,0,0,1,3.043,1.3,1.584,1.584,0,0,0,1,.155,1.674,1.674,0,0,0,.916-.472l1.654-1.654a3.133,3.133,0,0,1,4.425,0l3.508,3.508a3.129,3.129,0,0,1,0,4.425l-1.732,1.732a1.637,1.637,0,0,0-.328,1.886,21.663,21.663,0,0,1,1.214,2.968,1.634,1.634,0,0,0,1.571,1.113h2.464a3.133,3.133,0,0,1,3.129,3.129Z" transform="translate(-2.561)" fill="#57bc00"/>
      <path id="Path_1403" data-name="Path 1403" d="M323.159,105.829H321.7a15.366,15.366,0,1,0-30.732,0H289.5a16.829,16.829,0,1,1,33.659,0Z" transform="translate(-13.573 -11.268)" fill="#57bc00"/>
    </g>
    <g id="Group_11095" data-name="Group 11095" transform="translate(-2196 -2618.5)">
      <rect id="Rectangle_264" data-name="Rectangle 264" width="60" height="58.252" transform="translate(2466 2895.374)" fill="none"/>
      <path id="Line_1319" data-name="Line 1319" d="M.152,5.75-.761,4.244,2.86,2.176l.913,1.506Zm7.24-4.135L6.48.109l2.454-1.4L9.847.213Z" transform="translate(2508.074 2913.273)" fill="#000222"/>
      <path id="Line_1320" data-name="Line 1320" d="M8.318,5.4,6.48,4.348l.913-1.506,1.839,1.05ZM2.86,2.281-.761.213.152-1.293,3.772.775Z" transform="translate(2475.314 2913.273)" fill="#000222"/>
      <path id="Line_1321" data-name="Line 1321" d="M.3,10.265H-1.5V8.155H.3Zm0-6.187H-1.5V0H.3Z" transform="translate(2496.689 2938.351)" fill="#000222"/>
      <path id="Ellipse_29" data-name="Ellipse 29" d="M2.4-1.5A3.849,3.849,0,0,1,6.3,2.286,3.849,3.849,0,0,1,2.4,6.073,3.849,3.849,0,0,1-1.5,2.286,3.849,3.849,0,0,1,2.4-1.5Zm0,5.825A2.072,2.072,0,0,0,4.5,2.286,2.072,2.072,0,0,0,2.4.248,2.072,2.072,0,0,0,.3,2.286,2.072,2.072,0,0,0,2.4,4.325Z" transform="translate(2493.6 2896)"/>
      <path id="Ellipse_30" data-name="Ellipse 30" d="M2.4-1.5A3.849,3.849,0,0,1,6.3,2.286,3.849,3.849,0,0,1,2.4,6.073,3.849,3.849,0,0,1-1.5,2.286,3.849,3.849,0,0,1,2.4-1.5Zm0,5.825A2.072,2.072,0,0,0,4.5,2.286,2.072,2.072,0,0,0,2.4.248,2.072,2.072,0,0,0,.3,2.286,2.072,2.072,0,0,0,2.4,4.325Z" transform="translate(2493.6 2948.427)"/>
      <path id="Ellipse_31" data-name="Ellipse 31" d="M2.4-1.5A3.849,3.849,0,0,1,6.3,2.286,3.849,3.849,0,0,1,2.4,6.073,3.849,3.849,0,0,1-1.5,2.286,3.849,3.849,0,0,1,2.4-1.5Zm0,5.825A2.072,2.072,0,0,0,4.5,2.286,2.072,2.072,0,0,0,2.4.248,2.072,2.072,0,0,0,.3,2.286,2.072,2.072,0,0,0,2.4,4.325Z" transform="translate(2470.2 2909.398)"/>
      <path id="Ellipse_32" data-name="Ellipse 32" d="M2.4-1.5A3.849,3.849,0,0,1,6.3,2.286,3.849,3.849,0,0,1,2.4,6.073,3.849,3.849,0,0,1-1.5,2.286,3.849,3.849,0,0,1,2.4-1.5Zm0,5.825A2.072,2.072,0,0,0,4.5,2.286,2.072,2.072,0,0,0,2.4.248,2.072,2.072,0,0,0,.3,2.286,2.072,2.072,0,0,0,2.4,4.325Z" transform="translate(2470.2 2935.029)"/>
      <path id="Ellipse_33" data-name="Ellipse 33" d="M2.4-1.5A3.849,3.849,0,0,1,6.3,2.286,3.849,3.849,0,0,1,2.4,6.073,3.849,3.849,0,0,1-1.5,2.286,3.849,3.849,0,0,1,2.4-1.5Zm0,5.825A2.072,2.072,0,0,0,4.5,2.286,2.072,2.072,0,0,0,2.4.248,2.072,2.072,0,0,0,.3,2.286,2.072,2.072,0,0,0,2.4,4.325Z" transform="translate(2517 2909.398)"/>
      <path id="Ellipse_34" data-name="Ellipse 34" d="M2.4-1.5A3.849,3.849,0,0,1,6.3,2.286,3.849,3.849,0,0,1,2.4,6.073,3.849,3.849,0,0,1-1.5,2.286,3.849,3.849,0,0,1,2.4-1.5Zm0,5.825A2.072,2.072,0,0,0,4.5,2.286,2.072,2.072,0,0,0,2.4.248,2.072,2.072,0,0,0,.3,2.286,2.072,2.072,0,0,0,2.4,4.325Z" transform="translate(2517 2935.029)"/>
      <path id="Line_1322" data-name="Line 1322" d="M17.595,10.489-.75.214.15-1.3,18.494,8.976Z" transform="translate(2475.358 2939.526)"/>
      <path id="Line_1323" data-name="Line 1323" d="M.3,19.806H-1.5V0H.3Z" transform="translate(2473.2 2914.597)"/>
      <path id="Line_1324" data-name="Line 1324" d="M.15,10.49l-.9-1.514L17.6-1.3l.9,1.514Z" transform="translate(2475.357 2900.284)"/>
      <path id="Line_1325" data-name="Line 1325" d="M17.6,10.49-.75.214.15-1.3,18.5,8.976Z" transform="translate(2498.896 2900.283)"/>
      <path id="Line_1326" data-name="Line 1326" d="M.3,19.806H-1.5V0H.3Z" transform="translate(2520 2914.597)"/>
      <path id="Line_1327" data-name="Line 1327" d="M.15,10.49l-.9-1.514L17.6-1.3,18.5.214Z" transform="translate(2498.896 2939.526)"/>
      <path id="Union_2" data-name="Union 2" d="M1306,1614.489v-12.65l11.1-6.339,11.1,6.339v12.65l-11.1,6.339Zm11.929,3.839,8.472-4.839v-9.623l-8.472,4.838Zm-10.129-4.839,8.329,4.757v-9.624l-8.329-4.757Zm9.3-6.339,8.426-4.812-8.426-4.812-8.425,4.812Z" transform="translate(1179.137 1316.336)" fill="#57bc00"/>
    </g>
  </g>
</svg>
