<svg xmlns="http://www.w3.org/2000/svg" width="390" height="426"><defs><linearGradient id="b" x1=".5" y1="-.777" x2=".5" y2="1" gradientUnits="objectBoundingBox"><stop offset="0" stop-color="#57bc00" stop-opacity=".431"/><stop offset="1" stop-color="#83c6e6" stop-opacity=".545"/></linearGradient><clipPath id="a"><path d="M0 0h390v426H0z"/></clipPath><filter id="c" x="119" y="139" width="154" height="154" filterUnits="userSpaceOnUse"><feOffset/><feGaussianBlur stdDeviation="5" result="blur"/><feFlood flood-opacity=".102"/><feComposite operator="in" in2="blur"/><feComposite in="SourceGraphic"/></filter></defs><g clip-path="url(#a)"><rect data-name="Rectangle 8272" width="180" height="198" rx="5" fill="url(#b)"/><rect data-name="Rectangle 8278" width="180" height="198" rx="5" transform="translate(0 228)" fill="url(#b)"/><rect data-name="Rectangle 8274" width="180" height="198" rx="5" transform="translate(210)" fill="url(#b)"/><rect data-name="Rectangle 8276" width="180" height="198" rx="5" transform="translate(210 228)" fill="url(#b)"/><rect data-name="Rectangle 8273" width="164" height="182" rx="5" transform="translate(8 8)" fill="#fff"/><rect data-name="Rectangle 8279" width="164" height="182" rx="5" transform="translate(8 236)" fill="#fff"/><rect data-name="Rectangle 8275" width="164" height="182" rx="5" transform="translate(218 8)" fill="#fff"/><rect data-name="Rectangle 8277" width="164" height="182" rx="5" transform="translate(218 236)" fill="#fff"/><g filter="url(#c)"><circle data-name="Ellipse 1" cx="62" cy="62" r="62" transform="translate(134 154)" fill="#fff"/></g><g data-name="Group 11090"><path data-name="Path 1391" d="M104.272 276H120v60h-15.728v-21.573l.711-.135a8.441 8.441 0 0 0 0-16.585l-.711-.135Zm13.981 1.748H106.02v18.4a10.19 10.19 0 0 1 0 19.7v18.4h12.233Z" fill="#222"/><path data-name="Ellipse 38" d="M103.399 299.301a6.7 6.7 0 0 1 6.7 6.7 6.7 6.7 0 0 1-6.7 6.7 6.7 6.7 0 0 1-6.7-6.7 6.7 6.7 0 0 1 6.7-6.7Zm0 11.65a4.951 4.951 0 1 0-4.952-4.95 4.957 4.957 0 0 0 4.952 4.95Z" fill="#72b937"/><path data-name="Path 1392" d="M75.728 336H60v-60h15.728v13.43l-.656.169a6.11 6.11 0 0 0-4.587 5.915v20.971a6.11 6.11 0 0 0 4.587 5.915l.656.169Zm-13.981-1.748H73.98v-10.359a7.857 7.857 0 0 1-5.243-7.408v-20.97a7.857 7.857 0 0 1 5.243-7.408v-10.359H61.748Z" fill="#222"/><path data-name="Path 1393" d="M77.476 276h25.049v21.573l-.711.135a8.442 8.442 0 0 0 0 16.585l.711.135V336H77.476v-13.43l.656-.169a6.11 6.11 0 0 0 4.587-5.915v-20.971a6.11 6.11 0 0 0-4.587-5.915l-.656-.17Zm23.3 1.748H79.224v10.359a7.856 7.856 0 0 1 5.243 7.408v20.971a7.856 7.856 0 0 1-5.243 7.408v10.359h21.552v-18.4a10.19 10.19 0 0 1 0-19.7Z" fill="#222"/><path data-name="Rectangle 263" d="M76.602 291.146a4.374 4.374 0 0 1 4.369 4.369v20.971a4.369 4.369 0 0 1-8.738 0v-20.971a4.374 4.374 0 0 1 4.369-4.369Zm0 27.961a2.624 2.624 0 0 0 2.621-2.621v-20.971a2.624 2.624 0 0 0-2.621-2.621 2.624 2.624 0 0 0-2.621 2.621v20.971a2.624 2.624 0 0 0 2.621 2.621Z" fill="#72b937"/><path data-name="Ellipse 39" d="M65.534 278.913a2.621 2.621 0 1 1-2.621 2.621 2.624 2.624 0 0 1 2.621-2.621Zm0 3.5a.874.874 0 1 0-.874-.874.875.875 0 0 0 .874.874Z" fill="#222"/><path data-name="Ellipse 40" d="M65.534 327.845a2.621 2.621 0 1 1-2.621 2.621 2.624 2.624 0 0 1 2.621-2.621Zm0 3.5a.874.874 0 1 0-.874-.874.875.875 0 0 0 .874.874Z" fill="#222"/><path data-name="Ellipse 41" d="M114.466 278.913a2.621 2.621 0 1 1-2.621 2.621 2.624 2.624 0 0 1 2.621-2.621Zm0 3.5a.874.874 0 1 0-.874-.874.875.875 0 0 0 .874.874Z" fill="#222"/><path data-name="Ellipse 42" d="M114.466 327.845a2.621 2.621 0 1 1-2.621 2.621 2.624 2.624 0 0 1 2.621-2.621Zm0 3.5a.874.874 0 1 0-.874-.874.875.875 0 0 0 .874.874Z" fill="#222"/><path data-name="Ellipse 43" d="M90.582 278.913a2.621 2.621 0 1 1-2.621 2.621 2.624 2.624 0 0 1 2.621-2.621Zm0 3.5a.874.874 0 1 0-.874-.874.875.875 0 0 0 .874.874Z" fill="#222"/><path data-name="Ellipse 44" d="M90.582 327.845a2.621 2.621 0 1 1-2.621 2.621 2.624 2.624 0 0 1 2.621-2.621Zm0 3.5a.874.874 0 1 0-.874-.874.875.875 0 0 0 .874.874Z" fill="#222"/></g><path data-name="Path 26740" d="M68.645 117.031a3.33 3.33 0 0 1-1.172 2.742 5.163 5.163 0 0 1-3.336.953h-1.188V125h-1.867v-11.422h3.289a4.976 4.976 0 0 1 3.207.875 3.141 3.141 0 0 1 1.067 2.578Zm-5.7 2.125h.992a3.555 3.555 0 0 0 2.109-.5 1.82 1.82 0 0 0 .672-1.562 1.773 1.773 0 0 0-.6-1.469 2.971 2.971 0 0 0-1.875-.484h-1.3Zm12.168-2.956a4.42 4.42 0 0 1 .914.078l-.18 1.711a3.47 3.47 0 0 0-.812-.094 2.351 2.351 0 0 0-1.785.719 2.6 2.6 0 0 0-.684 1.867V125H70.73v-8.641h1.438l.242 1.523h.09a3.423 3.423 0 0 1 1.121-1.227 2.665 2.665 0 0 1 1.492-.455Zm10.18 4.461a4.716 4.716 0 0 1-1.086 3.3 3.891 3.891 0 0 1-3.023 1.188 4.143 4.143 0 0 1-2.141-.547 3.61 3.61 0 0 1-1.43-1.57 5.348 5.348 0 0 1-.5-2.375 4.684 4.684 0 0 1 1.078-3.281 3.909 3.909 0 0 1 3.039-1.176 3.807 3.807 0 0 1 2.97 1.21 4.662 4.662 0 0 1 1.093 3.254Zm-6.289 0q0 2.992 2.211 2.992 2.187 0 2.188-2.992Q83.4 117.7 81.2 117.7a1.879 1.879 0 0 0-1.676.766 3.9 3.9 0 0 0-.524 2.198Zm11.313 4.492a3.01 3.01 0 0 1-2.523-1.172 5.267 5.267 0 0 1-.906-3.289 5.284 5.284 0 0 1 .912-3.305 3.038 3.038 0 0 1 2.548-1.187 2.979 2.979 0 0 1 2.594 1.258h.094a11.006 11.006 0 0 1-.136-1.466v-3.148h1.844V125h-1.435l-.32-1.133H92.9a2.935 2.935 0 0 1-2.584 1.289Zm.492-1.484a2 2 0 0 0 1.648-.637 3.352 3.352 0 0 0 .531-2.066v-.258a3.873 3.873 0 0 0-.531-2.32 1.971 1.971 0 0 0-1.664-.688 1.688 1.688 0 0 0-1.492.785 4.024 4.024 0 0 0-.523 2.238 3.923 3.923 0 0 0 .508 2.191 1.714 1.714 0 0 0 1.523.758ZM103.465 125l-.258-1.133h-.094a2.6 2.6 0 0 1-1.09.945 3.644 3.644 0 0 1-1.613.344 3.167 3.167 0 0 1-2.344-.781 3.239 3.239 0 0 1-.773-2.367v-5.649h1.852v5.328a2.311 2.311 0 0 0 .406 1.488 1.551 1.551 0 0 0 1.273.5 2.028 2.028 0 0 0 1.7-.691 3.81 3.81 0 0 0 .543-2.316v-4.3h1.843V125Zm7.547.156a3.783 3.783 0 0 1-2.98-1.145 4.782 4.782 0 0 1-1.02-3.285 4.809 4.809 0 0 1 1.066-3.352 3.956 3.956 0 0 1 3.082-1.174 5.776 5.776 0 0 1 2.461.508l-.555 1.477a5.56 5.56 0 0 0-1.922-.453q-2.242 0-2.242 2.977a3.565 3.565 0 0 0 .559 2.184 1.934 1.934 0 0 0 1.637.73 4.7 4.7 0 0 0 2.32-.609v1.6a3.626 3.626 0 0 1-1.051.414 6.305 6.305 0 0 1-1.355.128Zm7.656-1.484a4.465 4.465 0 0 0 1.344-.211v1.383a3.706 3.706 0 0 1-.785.223 5.409 5.409 0 0 1-1 .09q-2.609 0-2.609-2.75v-4.657h-1.18v-.812l1.266-.672.625-1.828h1.133v1.921h2.461v1.391h-2.458v4.625a1.3 1.3 0 0 0 .332.98 1.21 1.21 0 0 0 .871.317ZM48.844 139.18a5.692 5.692 0 0 1-1.57 4.324A6.307 6.307 0 0 1 42.75 145h-3.2v-11.422h3.531a5.843 5.843 0 0 1 4.242 1.469 5.488 5.488 0 0 1 1.521 4.133Zm-1.969.063q0-4.1-3.836-4.1h-1.617v8.287h1.328q4.125 0 4.125-4.188Zm8 5.914a4.18 4.18 0 0 1-3.152-1.176 4.463 4.463 0 0 1-1.137-3.238 4.9 4.9 0 0 1 1.055-3.328 3.643 3.643 0 0 1 2.9-1.211 3.561 3.561 0 0 1 2.7 1.039 3.97 3.97 0 0 1 .992 2.859v.992h-5.756a2.838 2.838 0 0 0 .68 1.934 2.367 2.367 0 0 0 1.8.676 6.662 6.662 0 0 0 1.426-.145 7.474 7.474 0 0 0 1.418-.48v1.491a5.637 5.637 0 0 1-1.359.453 8.336 8.336 0 0 1-1.567.133Zm-.336-7.562a1.845 1.845 0 0 0-1.4.555 2.644 2.644 0 0 0-.629 1.617h3.92a2.392 2.392 0 0 0-.516-1.621 1.764 1.764 0 0 0-1.375-.552Zm7.75 7.405-3.281-8.641h1.938l1.754 5.024a9.954 9.954 0 0 1 .547 2.047h.063a13.744 13.744 0 0 1 .547-2.047l1.758-5.023h1.955L64.273 145Zm10.367.156a4.18 4.18 0 0 1-3.156-1.176 4.463 4.463 0 0 1-1.137-3.238 4.9 4.9 0 0 1 1.055-3.328 3.643 3.643 0 0 1 2.9-1.211 3.561 3.561 0 0 1 2.7 1.039 3.97 3.97 0 0 1 .992 2.859v.992h-5.752a2.838 2.838 0 0 0 .68 1.934 2.367 2.367 0 0 0 1.8.676 6.662 6.662 0 0 0 1.426-.145 7.474 7.474 0 0 0 1.418-.48v1.492a5.637 5.637 0 0 1-1.359.453 8.335 8.335 0 0 1-1.567.133Zm-.336-7.562a1.845 1.845 0 0 0-1.4.555 2.643 2.643 0 0 0-.629 1.617h3.922a2.392 2.392 0 0 0-.516-1.621 1.764 1.764 0 0 0-1.377-.551ZM79.938 145H78.1v-12.156h1.836Zm10.289-4.336a4.716 4.716 0 0 1-1.086 3.3 3.891 3.891 0 0 1-3.023 1.188 4.143 4.143 0 0 1-2.141-.547 3.61 3.61 0 0 1-1.43-1.57 5.348 5.348 0 0 1-.5-2.375 4.684 4.684 0 0 1 1.078-3.281 3.909 3.909 0 0 1 3.039-1.18 3.807 3.807 0 0 1 2.969 1.207 4.662 4.662 0 0 1 1.094 3.258Zm-6.289 0q0 2.992 2.211 2.992 2.187 0 2.188-2.992 0-2.961-2.2-2.961a1.879 1.879 0 0 0-1.676.766 3.9 3.9 0 0 0-.523 2.195Zm12.781 4.492a3.026 3.026 0 0 1-2.547-1.18h-.109q.109 1.094.109 1.328v3.539h-1.836v-12.484h1.484q.062.242.258 1.156h.094a2.876 2.876 0 0 1 2.578-1.315 3 3 0 0 1 2.52 1.172 5.284 5.284 0 0 1 .9 3.289 5.288 5.288 0 0 1-.918 3.3 3.026 3.026 0 0 1-2.533 1.195Zm-.446-7.456a1.908 1.908 0 0 0-1.6.641 3.32 3.32 0 0 0-.5 2.047v.273a4.041 4.041 0 0 0 .5 2.285 1.86 1.86 0 0 0 1.633.707 1.658 1.658 0 0 0 1.469-.781 4.035 4.035 0 0 0 .516-2.227 3.893 3.893 0 0 0-.512-2.2 1.707 1.707 0 0 0-1.506-.745Zm13.313 7.3h-1.844v-5.328a2.416 2.416 0 0 0-.375-1.48 1.384 1.384 0 0 0-1.167-.492 1.787 1.787 0 0 0-1.559.691 4.057 4.057 0 0 0-.5 2.3V145H102.3v-8.641h1.438l.262 1.133h.094a2.394 2.394 0 0 1 1.043-.953 3.363 3.363 0 0 1 1.5-.336 2.628 2.628 0 0 1 2.641 1.359h.125a2.634 2.634 0 0 1 1.078-1 3.422 3.422 0 0 1 1.594-.359 2.9 2.9 0 0 1 2.254.781 3.46 3.46 0 0 1 .707 2.383V145H113.2v-5.328a2.4 2.4 0 0 0-.379-1.48 1.4 1.4 0 0 0-1.176-.488 1.822 1.822 0 0 0-1.566.668 3.443 3.443 0 0 0-.5 2.051Zm11.789.156a4.18 4.18 0 0 1-3.152-1.176 4.463 4.463 0 0 1-1.137-3.238 4.9 4.9 0 0 1 1.055-3.328 3.643 3.643 0 0 1 2.9-1.211 3.561 3.561 0 0 1 2.7 1.039 3.97 3.97 0 0 1 .992 2.859v.992h-5.756a2.838 2.838 0 0 0 .68 1.934 2.367 2.367 0 0 0 1.8.676 6.662 6.662 0 0 0 1.426-.145 7.474 7.474 0 0 0 1.418-.48v1.492a5.637 5.637 0 0 1-1.359.453 8.336 8.336 0 0 1-1.567.133Zm-.336-7.562a1.845 1.845 0 0 0-1.4.555 2.644 2.644 0 0 0-.629 1.617h3.92a2.392 2.392 0 0 0-.516-1.621 1.764 1.764 0 0 0-1.375-.551ZM134.422 145h-1.844v-5.312a2.325 2.325 0 0 0-.4-1.492 1.555 1.555 0 0 0-1.278-.496 2.031 2.031 0 0 0-1.7.688 3.8 3.8 0 0 0-.539 2.3V145h-1.841v-8.641h1.438l.258 1.133h.094a2.556 2.556 0 0 1 1.109-.953 3.718 3.718 0 0 1 1.594-.336q3.109 0 3.109 3.164Zm5.773-1.328a4.465 4.465 0 0 0 1.344-.211v1.383a3.706 3.706 0 0 1-.785.223 5.41 5.41 0 0 1-1 .09q-2.609 0-2.609-2.75v-4.657h-1.18v-.812l1.266-.672.625-1.828h1.133v1.922h2.461v1.39h-2.461v4.625a1.3 1.3 0 0 0 .332.98 1.21 1.21 0 0 0 .879.317Z" fill="#222"/><path data-name="Path 26743" d="M35.766 356.891h1.3a2.961 2.961 0 0 0 1.891-.484 1.757 1.757 0 0 0 .586-1.437 1.547 1.547 0 0 0-.633-1.391 3.47 3.47 0 0 0-1.91-.423h-1.234Zm0 1.547V363H33.9v-11.422h3.225a5.3 5.3 0 0 1 3.273.828 2.973 2.973 0 0 1 1.063 2.5 3.125 3.125 0 0 1-2.219 3.039L42.469 363h-2.125l-2.735-4.562ZM49.336 363l-.367-1.2h-.062a3.54 3.54 0 0 1-1.258 1.074 3.978 3.978 0 0 1-1.625.285 2.75 2.75 0 0 1-1.988-.687 2.573 2.573 0 0 1-.715-1.945 2.284 2.284 0 0 1 .992-2.016 5.721 5.721 0 0 1 3.023-.742l1.492-.047v-.461a1.747 1.747 0 0 0-.387-1.238 1.577 1.577 0 0 0-1.2-.41 4.147 4.147 0 0 0-1.273.2 9.61 9.61 0 0 0-1.172.461l-.596-1.321a6.39 6.39 0 0 1 1.539-.559 7.083 7.083 0 0 1 1.581-.194 3.738 3.738 0 0 1 2.488.719 2.814 2.814 0 0 1 .84 2.258V363Zm-2.736-1.25a2.274 2.274 0 0 0 1.605-.559 2.025 2.025 0 0 0 .605-1.566v-.75l-1.109.047a3.8 3.8 0 0 0-1.887.434 1.317 1.317 0 0 0-.59 1.184 1.155 1.155 0 0 0 .344.895 1.477 1.477 0 0 0 1.032.315Zm10.992 1.406a3.026 3.026 0 0 1-2.547-1.18h-.109q.109 1.094.109 1.328v3.539h-1.834v-12.484H54.7q.062.242.258 1.156h.094a2.876 2.876 0 0 1 2.573-1.315 3 3 0 0 1 2.52 1.172 5.284 5.284 0 0 1 .9 3.289 5.288 5.288 0 0 1-.918 3.3 3.026 3.026 0 0 1-2.533 1.195Zm-.444-7.456a1.908 1.908 0 0 0-1.6.641 3.32 3.32 0 0 0-.5 2.047v.273a4.041 4.041 0 0 0 .5 2.285 1.86 1.86 0 0 0 1.633.707 1.658 1.658 0 0 0 1.469-.781 4.035 4.035 0 0 0 .516-2.227 3.893 3.893 0 0 0-.512-2.2 1.707 1.707 0 0 0-1.506-.745Zm7.868 7.3H63.18v-8.641h1.836Zm-1.946-10.93a1.017 1.017 0 0 1 .27-.758 1.05 1.05 0 0 1 .77-.266 1.028 1.028 0 0 1 .754.266 1.017 1.017 0 0 1 .27.758 1 1 0 0 1-.27.738 1.019 1.019 0 0 1-.754.27 1.041 1.041 0 0 1-.77-.27 1 1 0 0 1-.27-.738Zm7.484 11.086a3.01 3.01 0 0 1-2.523-1.172 5.267 5.267 0 0 1-.906-3.289 5.284 5.284 0 0 1 .918-3.309 3.038 3.038 0 0 1 2.543-1.186 2.979 2.979 0 0 1 2.594 1.261h.094a11.005 11.005 0 0 1-.133-1.469v-3.148h1.844V363h-1.438l-.32-1.133h-.086a2.935 2.935 0 0 1-2.586 1.289Zm.492-1.484a2 2 0 0 0 1.648-.637 3.352 3.352 0 0 0 .531-2.066v-.258a3.873 3.873 0 0 0-.531-2.32 1.971 1.971 0 0 0-1.663-.691 1.688 1.688 0 0 0-1.492.785 4.024 4.024 0 0 0-.523 2.238 3.923 3.923 0 0 0 .508 2.191 1.714 1.714 0 0 0 1.523.758ZM85.906 363h-1.867v-9.82H80.68v-1.6h8.586v1.6h-3.36Zm6.75 0H90.82v-8.641h1.836Zm-1.945-10.93a1.017 1.017 0 0 1 .27-.758 1.05 1.05 0 0 1 .77-.266 1.028 1.028 0 0 1 .754.266 1.017 1.017 0 0 1 .27.758 1 1 0 0 1-.27.738 1.019 1.019 0 0 1-.754.27 1.041 1.041 0 0 1-.77-.27 1 1 0 0 1-.27-.738ZM102.563 363h-1.844v-5.328a2.416 2.416 0 0 0-.375-1.48 1.384 1.384 0 0 0-1.172-.492 1.787 1.787 0 0 0-1.559.691 4.057 4.057 0 0 0-.5 2.3V363h-1.832v-8.641h1.438l.258 1.133h.094a2.394 2.394 0 0 1 1.043-.953 3.363 3.363 0 0 1 1.5-.336 2.628 2.628 0 0 1 2.641 1.359h.125a2.634 2.634 0 0 1 1.078-1 3.422 3.422 0 0 1 1.597-.362 2.9 2.9 0 0 1 2.254.781 3.46 3.46 0 0 1 .707 2.383V363h-1.836v-5.328a2.4 2.4 0 0 0-.379-1.48 1.4 1.4 0 0 0-1.176-.492 1.822 1.822 0 0 0-1.566.668 3.443 3.443 0 0 0-.5 2.051Zm11.789.156a4.18 4.18 0 0 1-3.152-1.176 4.463 4.463 0 0 1-1.137-3.238 4.9 4.9 0 0 1 1.055-3.328 3.643 3.643 0 0 1 2.9-1.211 3.561 3.561 0 0 1 2.7 1.039 3.97 3.97 0 0 1 .992 2.859v.992h-5.757a2.838 2.838 0 0 0 .68 1.934 2.367 2.367 0 0 0 1.8.676 6.662 6.662 0 0 0 1.426-.145 7.474 7.474 0 0 0 1.418-.48v1.492a5.637 5.637 0 0 1-1.359.453 8.336 8.336 0 0 1-1.566.133Zm-.336-7.562a1.845 1.845 0 0 0-1.4.555 2.644 2.644 0 0 0-.629 1.617h3.922a2.392 2.392 0 0 0-.516-1.621 1.764 1.764 0 0 0-1.377-.551Zm5.031 3.9v-1.564h4.016v1.563ZM129.086 363h-1.867v-9.82h-3.36v-1.6h8.586v1.6h-3.359Zm12.578-4.336a4.716 4.716 0 0 1-1.086 3.3 3.891 3.891 0 0 1-3.023 1.188 4.143 4.143 0 0 1-2.141-.547 3.61 3.61 0 0 1-1.43-1.57 5.348 5.348 0 0 1-.5-2.375 4.684 4.684 0 0 1 1.078-3.281 3.909 3.909 0 0 1 3.038-1.179 3.807 3.807 0 0 1 2.97 1.21 4.663 4.663 0 0 1 1.094 3.254Zm-6.289 0q0 2.992 2.211 2.992 2.188 0 2.188-2.992 0-2.961-2.2-2.961a1.879 1.879 0 0 0-1.676.766 3.9 3.9 0 0 0-.523 2.195Zm7.648.828v-1.562h4.016v1.563ZM68.645 383l-3.312-9.539h-.063q.133 2.125.133 3.984V383h-1.7v-11.422h2.637l3.172 9.086h.047l3.266-9.086h2.641V383h-1.8v-5.648q0-.852.043-2.219t.074-1.656h-.062L70.293 383Zm15.039 0-.367-1.2h-.062A3.54 3.54 0 0 1 82 382.871a3.978 3.978 0 0 1-1.625.285 2.75 2.75 0 0 1-1.988-.687 2.573 2.573 0 0 1-.715-1.945 2.284 2.284 0 0 1 .992-2.016 5.721 5.721 0 0 1 3.023-.742l1.492-.047v-.461a1.747 1.747 0 0 0-.387-1.238 1.577 1.577 0 0 0-1.2-.41 4.147 4.147 0 0 0-1.273.2 9.61 9.61 0 0 0-1.172.461l-.594-1.312a6.39 6.39 0 0 1 1.539-.559 7.083 7.083 0 0 1 1.578-.191 3.738 3.738 0 0 1 2.488.719A2.814 2.814 0 0 1 85 377.18V383Zm-2.734-1.25a2.274 2.274 0 0 0 1.605-.559 2.025 2.025 0 0 0 .605-1.566v-.75l-1.109.047a3.8 3.8 0 0 0-1.887.434 1.317 1.317 0 0 0-.59 1.184 1.155 1.155 0 0 0 .344.895 1.477 1.477 0 0 0 1.031.315Zm10.991-7.55a4.42 4.42 0 0 1 .914.078l-.18 1.711a3.47 3.47 0 0 0-.812-.094 2.351 2.351 0 0 0-1.785.719 2.6 2.6 0 0 0-.684 1.867V383h-1.835v-8.641H89l.242 1.523h.094a3.423 3.423 0 0 1 1.121-1.227 2.665 2.665 0 0 1 1.484-.455Zm4.289 4.234 1.039-1.3 2.609-2.781H102l-3.48 3.717 3.7 4.93h-2.161l-2.773-3.789-1.008.828V383h-1.82v-12.156h1.82v5.93l-.094 1.664Zm11.148 4.719a4.18 4.18 0 0 1-3.152-1.176 4.463 4.463 0 0 1-1.137-3.238 4.9 4.9 0 0 1 1.055-3.328 3.643 3.643 0 0 1 2.9-1.211 3.561 3.561 0 0 1 2.7 1.039 3.97 3.97 0 0 1 .992 2.859v.992h-5.756a2.838 2.838 0 0 0 .68 1.934 2.367 2.367 0 0 0 1.8.676 6.662 6.662 0 0 0 1.426-.145 7.474 7.474 0 0 0 1.418-.48v1.495a5.637 5.637 0 0 1-1.359.453 8.336 8.336 0 0 1-1.566.133Zm-.336-7.562a1.845 1.845 0 0 0-1.4.555 2.644 2.644 0 0 0-.629 1.617h3.922a2.392 2.392 0 0 0-.516-1.621 1.764 1.764 0 0 0-1.376-.548Zm9 6.078a4.465 4.465 0 0 0 1.344-.211v1.383a3.706 3.706 0 0 1-.785.223 5.41 5.41 0 0 1-1 .09q-2.601.002-2.601-2.748v-4.656h-1.18v-.812l1.266-.672.625-1.828h1.129v1.922h2.46v1.39h-2.46v4.625a1.3 1.3 0 0 0 .332.98 1.21 1.21 0 0 0 .871.317Z" fill="#222"/><path data-name="Path 26741" d="M261.484 118.891h1.3a2.961 2.961 0 0 0 1.891-.484 1.757 1.757 0 0 0 .586-1.437 1.547 1.547 0 0 0-.633-1.391 3.47 3.47 0 0 0-1.906-.422h-1.238Zm0 1.547V125h-1.867v-11.422h3.227a5.3 5.3 0 0 1 3.273.828 2.973 2.973 0 0 1 1.063 2.5 3.125 3.125 0 0 1-2.219 3.039l3.227 5.055h-2.125l-2.734-4.562Zm11.938 4.719a4.18 4.18 0 0 1-3.152-1.177 4.463 4.463 0 0 1-1.137-3.238 4.9 4.9 0 0 1 1.055-3.328 3.643 3.643 0 0 1 2.9-1.211 3.561 3.561 0 0 1 2.7 1.039 3.97 3.97 0 0 1 .992 2.859v.992h-5.757a2.838 2.838 0 0 0 .68 1.934 2.367 2.367 0 0 0 1.8.676 6.662 6.662 0 0 0 1.426-.145 7.474 7.474 0 0 0 1.418-.48v1.492a5.637 5.637 0 0 1-1.359.453 8.336 8.336 0 0 1-1.566.133Zm-.336-7.562a1.845 1.845 0 0 0-1.4.555 2.643 2.643 0 0 0-.629 1.617h3.922a2.392 2.392 0 0 0-.516-1.621 1.764 1.764 0 0 0-1.377-.552Zm13.078-1.236v1.008l-1.477.273a2.383 2.383 0 0 1 .336.672 2.651 2.651 0 0 1 .133.844 2.585 2.585 0 0 1-.922 2.1 3.858 3.858 0 0 1-2.539.766 4.117 4.117 0 0 1-.75-.062 1.034 1.034 0 0 0-.594.859.478.478 0 0 0 .277.445 2.4 2.4 0 0 0 1.02.148h1.508a3.353 3.353 0 0 1 2.172.609 2.144 2.144 0 0 1 .742 1.758 2.556 2.556 0 0 1-1.211 2.266 6.376 6.376 0 0 1-3.5.8 4.83 4.83 0 0 1-2.7-.625 2.02 2.02 0 0 1-.93-1.781 1.9 1.9 0 0 1 .5-1.34 2.7 2.7 0 0 1 1.41-.754 1.38 1.38 0 0 1-.605-.5 1.272 1.272 0 0 1-.238-.73 1.257 1.257 0 0 1 .273-.82 3.155 3.155 0 0 1 .813-.664 2.407 2.407 0 0 1-1.09-.941 2.769 2.769 0 0 1-.418-1.527 2.738 2.738 0 0 1 .887-2.18 3.728 3.728 0 0 1 2.539-.783 6.152 6.152 0 0 1 .77.051 4.845 4.845 0 0 1 .605.105Zm-6.789 9.984a1.01 1.01 0 0 0 .535.914 2.941 2.941 0 0 0 1.5.32 4.544 4.544 0 0 0 2.234-.43 1.288 1.288 0 0 0 .734-1.141.856.856 0 0 0-.4-.8 3.231 3.231 0 0 0-1.5-.238h-1.384a1.954 1.954 0 0 0-1.254.371 1.217 1.217 0 0 0-.465 1.005Zm.789-7.187a1.739 1.739 0 0 0 .418 1.25 1.581 1.581 0 0 0 1.2.438q1.594 0 1.594-1.7a1.932 1.932 0 0 0-.395-1.3 1.5 1.5 0 0 0-1.2-.457 1.545 1.545 0 0 0-1.207.453 1.9 1.9 0 0 0-.41 1.316ZM293.859 125l-.259-1.133h-.094a2.6 2.6 0 0 1-1.09.945 3.644 3.644 0 0 1-1.613.344 3.167 3.167 0 0 1-2.344-.781 3.239 3.239 0 0 1-.773-2.367v-5.649h1.852v5.328a2.311 2.311 0 0 0 .406 1.488 1.551 1.551 0 0 0 1.273.5 2.028 2.028 0 0 0 1.7-.691 3.81 3.81 0 0 0 .543-2.316v-4.3h1.84V125Zm5.9 0h-1.837v-12.156h1.836Zm8.031 0-.367-1.2h-.062a3.54 3.54 0 0 1-1.261 1.071 3.978 3.978 0 0 1-1.625.285 2.75 2.75 0 0 1-1.988-.687 2.573 2.573 0 0 1-.715-1.945 2.284 2.284 0 0 1 .992-2.016 5.721 5.721 0 0 1 3.023-.742l1.492-.047v-.461a1.747 1.747 0 0 0-.387-1.238 1.577 1.577 0 0 0-1.2-.41 4.147 4.147 0 0 0-1.273.2 9.61 9.61 0 0 0-1.172.461l-.594-1.312a6.39 6.39 0 0 1 1.547-.564 7.083 7.083 0 0 1 1.573-.195 3.738 3.738 0 0 1 2.488.719 2.814 2.814 0 0 1 .84 2.258V125Zm-2.734-1.25a2.274 2.274 0 0 0 1.605-.559 2.025 2.025 0 0 0 .605-1.566v-.75l-1.109.047a3.8 3.8 0 0 0-1.887.434 1.317 1.317 0 0 0-.59 1.184 1.155 1.155 0 0 0 .344.895 1.477 1.477 0 0 0 1.031.315Zm9.828-.078a4.465 4.465 0 0 0 1.344-.211v1.383a3.706 3.706 0 0 1-.785.223 5.409 5.409 0 0 1-1 .09q-2.609 0-2.609-2.75v-4.657h-1.18v-.812l1.266-.672.625-1.828h1.135v1.921h2.461v1.391h-2.461v4.625a1.3 1.3 0 0 0 .332.98 1.21 1.21 0 0 0 .871.317Zm10.734-3.008a4.716 4.716 0 0 1-1.086 3.3 3.891 3.891 0 0 1-3.023 1.188 4.143 4.143 0 0 1-2.141-.547 3.61 3.61 0 0 1-1.43-1.57 5.348 5.348 0 0 1-.5-2.375 4.684 4.684 0 0 1 1.078-3.281 3.909 3.909 0 0 1 3.039-1.179 3.807 3.807 0 0 1 2.968 1.21 4.663 4.663 0 0 1 1.094 3.254Zm-6.289 0q0 2.992 2.211 2.992 2.188 0 2.188-2.992 0-2.961-2.2-2.961a1.879 1.879 0 0 0-1.676.766 3.9 3.9 0 0 0-.524 2.195Zm12.78-4.464a4.42 4.42 0 0 1 .914.078l-.18 1.711a3.47 3.47 0 0 0-.812-.094 2.351 2.351 0 0 0-1.785.719 2.6 2.6 0 0 0-.684 1.867V125h-1.835v-8.641h1.438l.242 1.523h.093a3.423 3.423 0 0 1 1.121-1.227 2.665 2.665 0 0 1 1.488-.455Zm1.2.156h2l1.758 4.9a9.294 9.294 0 0 1 .531 1.969h.063a8.212 8.212 0 0 1 .258-1.043q.188-.613 1.984-5.824h1.984l-3.7 9.789q-1.008 2.7-3.359 2.7a5.287 5.287 0 0 1-1.187-.133v-1.456a4.3 4.3 0 0 0 .945.094 1.936 1.936 0 0 0 1.867-1.539l.32-.812ZM273.848 145l-1.141-3.172h-4.367L267.223 145h-1.969l4.273-11.469h2.031L275.832 145Zm-1.633-4.781-1.07-3.109q-.117-.313-.324-.984t-.285-.984a17.509 17.509 0 0 1-.617 2.1l-1.031 2.977Zm9.313 4.938a3.026 3.026 0 0 1-2.547-1.18h-.109q.109 1.094.109 1.328v3.539h-1.836v-12.485h1.484q.063.242.258 1.156h.094a2.876 2.876 0 0 1 2.578-1.315 3 3 0 0 1 2.52 1.172 5.284 5.284 0 0 1 .9 3.289 5.288 5.288 0 0 1-.918 3.3 3.026 3.026 0 0 1-2.534 1.195Zm-.446-7.457a1.908 1.908 0 0 0-1.6.641 3.32 3.32 0 0 0-.5 2.047v.273a4.042 4.042 0 0 0 .5 2.285 1.86 1.86 0 0 0 1.633.707 1.658 1.658 0 0 0 1.469-.781 4.035 4.035 0 0 0 .516-2.227 3.893 3.893 0 0 0-.512-2.2 1.707 1.707 0 0 0-1.506-.745Zm10.418 7.456a3.026 3.026 0 0 1-2.547-1.18h-.113q.109 1.094.109 1.328v3.539h-1.836v-12.484h1.487q.063.242.258 1.156h.094a2.876 2.876 0 0 1 2.575-1.315 3 3 0 0 1 2.52 1.172 5.284 5.284 0 0 1 .9 3.289 5.288 5.288 0 0 1-.918 3.3 3.026 3.026 0 0 1-2.529 1.195Zm-.449-7.456a1.908 1.908 0 0 0-1.6.641 3.32 3.32 0 0 0-.5 2.047v.273a4.042 4.042 0 0 0 .5 2.285 1.86 1.86 0 0 0 1.633.707 1.658 1.658 0 0 0 1.469-.781 4.035 4.035 0 0 0 .516-2.227 3.893 3.893 0 0 0-.512-2.2 1.707 1.707 0 0 0-1.506-.745Zm10.414-1.5a4.419 4.419 0 0 1 .914.078l-.18 1.711a3.47 3.47 0 0 0-.812-.094 2.351 2.351 0 0 0-1.785.719 2.6 2.6 0 0 0-.684 1.867V145h-1.836v-8.641h1.438l.242 1.523h.094a3.423 3.423 0 0 1 1.121-1.227 2.665 2.665 0 0 1 1.488-.455Zm10.18 4.461a4.716 4.716 0 0 1-1.086 3.3 3.891 3.891 0 0 1-3.023 1.188 4.143 4.143 0 0 1-2.141-.547 3.61 3.61 0 0 1-1.43-1.57 5.348 5.348 0 0 1-.5-2.375 4.684 4.684 0 0 1 1.078-3.281 3.909 3.909 0 0 1 3.039-1.18 3.807 3.807 0 0 1 2.969 1.207 4.663 4.663 0 0 1 1.094 3.261Zm-6.289 0q0 2.992 2.211 2.992 2.188 0 2.188-2.992 0-2.961-2.2-2.961a1.879 1.879 0 0 0-1.676.766 3.9 3.9 0 0 0-.524 2.198ZM315.723 145l-3.281-8.641h1.938l1.758 5.023a9.954 9.954 0 0 1 .547 2.047h.063a13.744 13.744 0 0 1 .547-2.047l1.758-5.023H321L317.707 145Zm12 0-.367-1.2h-.062a3.54 3.54 0 0 1-1.258 1.074 3.978 3.978 0 0 1-1.625.285 2.75 2.75 0 0 1-1.988-.687 2.573 2.573 0 0 1-.715-1.945 2.284 2.284 0 0 1 .992-2.016 5.721 5.721 0 0 1 3.023-.742l1.492-.047v-.461a1.747 1.747 0 0 0-.387-1.238 1.577 1.577 0 0 0-1.2-.41 4.147 4.147 0 0 0-1.273.2 9.61 9.61 0 0 0-1.172.461l-.594-1.312a6.39 6.39 0 0 1 1.539-.559 7.083 7.083 0 0 1 1.578-.191 3.738 3.738 0 0 1 2.488.719 2.814 2.814 0 0 1 .84 2.258V145Zm-2.734-1.25a2.274 2.274 0 0 0 1.605-.559 2.025 2.025 0 0 0 .605-1.566v-.75l-1.109.047a3.8 3.8 0 0 0-1.887.434 1.317 1.317 0 0 0-.59 1.184 1.155 1.155 0 0 0 .344.895 1.477 1.477 0 0 0 1.031.315Zm8.445 1.25H331.6v-12.156h1.836Z" fill="#222"/><path data-name="Path 26742" d="m286.633 363-3.313-9.539h-.062q.133 2.125.133 3.984V363H281.7v-11.422h2.633l3.167 9.086h.047l3.266-9.086h2.641V363h-1.8v-5.648q0-.852.043-2.219t.074-1.656h-.062L288.281 363Zm15.039 0-.372-1.2h-.062a3.54 3.54 0 0 1-1.258 1.074 3.978 3.978 0 0 1-1.625.285 2.75 2.75 0 0 1-1.988-.687 2.573 2.573 0 0 1-.715-1.945 2.284 2.284 0 0 1 .992-2.016 5.721 5.721 0 0 1 3.023-.742l1.492-.047v-.461a1.747 1.747 0 0 0-.387-1.238 1.577 1.577 0 0 0-1.2-.41 4.147 4.147 0 0 0-1.273.2 9.61 9.61 0 0 0-1.172.461l-.594-1.312a6.39 6.39 0 0 1 1.539-.559 7.083 7.083 0 0 1 1.584-.203 3.738 3.738 0 0 1 2.488.719 2.814 2.814 0 0 1 .84 2.258V363Zm-2.734-1.25a2.274 2.274 0 0 0 1.605-.559 2.025 2.025 0 0 0 .605-1.566v-.75l-1.109.047a3.8 3.8 0 0 0-1.887.434 1.317 1.317 0 0 0-.59 1.184 1.155 1.155 0 0 0 .344.895 1.477 1.477 0 0 0 1.032.315Zm12.414-1.211a2.261 2.261 0 0 1-.922 1.941 4.414 4.414 0 0 1-2.641.676 6.237 6.237 0 0 1-2.773-.523v-1.586a6.809 6.809 0 0 0 2.836.7q1.7 0 1.7-1.023a.811.811 0 0 0-.187-.547 2.219 2.219 0 0 0-.617-.453 10.622 10.622 0 0 0-1.2-.531 5.529 5.529 0 0 1-2.02-1.156 2.139 2.139 0 0 1-.527-1.5 1.97 1.97 0 0 1 .895-1.723 4.245 4.245 0 0 1 2.432-.614 6.893 6.893 0 0 1 2.883.617l-.594 1.383a6.412 6.412 0 0 0-2.352-.578q-1.453 0-1.453.828a.833.833 0 0 0 .379.688 8.332 8.332 0 0 0 1.652.773 7.553 7.553 0 0 1 1.555.758 2.265 2.265 0 0 1 .719.793 2.3 2.3 0 0 1 .235 1.077Zm7.789 0a2.261 2.261 0 0 1-.922 1.941 4.414 4.414 0 0 1-2.641.676 6.237 6.237 0 0 1-2.773-.523v-1.586a6.809 6.809 0 0 0 2.836.7q1.7 0 1.7-1.023a.811.811 0 0 0-.187-.547 2.219 2.219 0 0 0-.617-.453 10.622 10.622 0 0 0-1.2-.531 5.529 5.529 0 0 1-2.02-1.156 2.139 2.139 0 0 1-.527-1.5 1.97 1.97 0 0 1 .895-1.723 4.245 4.245 0 0 1 2.432-.614 6.893 6.893 0 0 1 2.883.62l-.594 1.38a6.412 6.412 0 0 0-2.352-.578q-1.453 0-1.453.828a.833.833 0 0 0 .379.688 8.332 8.332 0 0 0 1.652.773 7.553 7.553 0 0 1 1.555.758 2.265 2.265 0 0 1 .719.793 2.3 2.3 0 0 1 .235 1.077Zm-52.692 14.492a3.33 3.33 0 0 1-1.172 2.742 5.163 5.163 0 0 1-3.336.953h-1.187V383h-1.867v-11.422h3.289a4.976 4.976 0 0 1 3.207.875 3.141 3.141 0 0 1 1.066 2.578Zm-5.7 2.125h.992a3.555 3.555 0 0 0 2.109-.5 1.82 1.82 0 0 0 .672-1.562 1.773 1.773 0 0 0-.6-1.469 2.971 2.971 0 0 0-1.875-.484h-1.3Zm12.169-2.956a4.419 4.419 0 0 1 .914.078l-.18 1.711a3.47 3.47 0 0 0-.812-.094 2.351 2.351 0 0 0-1.785.719 2.6 2.6 0 0 0-.684 1.867V383h-1.836v-8.641h1.438l.242 1.523h.094a3.423 3.423 0 0 1 1.121-1.227 2.665 2.665 0 0 1 1.488-.455Zm10.182 4.464a4.716 4.716 0 0 1-1.086 3.3 3.891 3.891 0 0 1-3.023 1.188 4.143 4.143 0 0 1-2.141-.547 3.61 3.61 0 0 1-1.43-1.57 5.348 5.348 0 0 1-.5-2.375 4.684 4.684 0 0 1 1.08-3.277 3.909 3.909 0 0 1 3.039-1.18A3.807 3.807 0 0 1 282 375.41a4.662 4.662 0 0 1 1.1 3.254Zm-6.289 0q0 2.992 2.211 2.992 2.187 0 2.188-2.992 0-2.961-2.2-2.961a1.879 1.879 0 0 0-1.676.766 3.9 3.9 0 0 0-.525 2.195Zm11.313 4.492a3.01 3.01 0 0 1-2.524-1.172 5.267 5.267 0 0 1-.906-3.289 5.284 5.284 0 0 1 .918-3.309 3.038 3.038 0 0 1 2.54-1.186 2.979 2.979 0 0 1 2.594 1.258h.094a11.005 11.005 0 0 1-.133-1.469v-3.145h1.844V383h-1.438l-.32-1.133h-.086a2.935 2.935 0 0 1-2.586 1.289Zm.492-1.484a2 2 0 0 0 1.648-.637 3.352 3.352 0 0 0 .531-2.066v-.258a3.873 3.873 0 0 0-.531-2.32 1.971 1.971 0 0 0-1.664-.691 1.688 1.688 0 0 0-1.492.785 4.024 4.024 0 0 0-.523 2.238 3.923 3.923 0 0 0 .508 2.191 1.714 1.714 0 0 0 1.52.758ZM301.27 383l-.258-1.133h-.094a2.6 2.6 0 0 1-1.09.945 3.644 3.644 0 0 1-1.613.344 3.167 3.167 0 0 1-2.344-.781 3.239 3.239 0 0 1-.773-2.367v-5.649h1.852v5.328a2.311 2.311 0 0 0 .406 1.488 1.551 1.551 0 0 0 1.273.5 2.028 2.028 0 0 0 1.7-.691 3.81 3.81 0 0 0 .543-2.316v-4.3h1.844V383Zm7.547.156a3.783 3.783 0 0 1-2.98-1.145 4.782 4.782 0 0 1-1.02-3.285 4.809 4.809 0 0 1 1.066-3.352 3.956 3.956 0 0 1 3.082-1.174 5.776 5.776 0 0 1 2.461.508l-.555 1.477a5.56 5.56 0 0 0-1.922-.453q-2.242 0-2.242 2.977a3.565 3.565 0 0 0 .559 2.184 1.934 1.934 0 0 0 1.637.73 4.7 4.7 0 0 0 2.32-.609v1.6a3.626 3.626 0 0 1-1.051.414 6.305 6.305 0 0 1-1.356.128Zm7.656-1.484a4.465 4.465 0 0 0 1.344-.211v1.383a3.706 3.706 0 0 1-.785.223 5.41 5.41 0 0 1-1 .09q-2.609 0-2.609-2.75v-4.657h-1.18v-.812l1.266-.672.625-1.828h1.136v1.922h2.46v1.39h-2.46v4.625a1.3 1.3 0 0 0 .332.98 1.21 1.21 0 0 0 .871.317Zm4.906 1.328h-1.836v-8.641h1.836Zm-1.945-10.93a1.017 1.017 0 0 1 .27-.758 1.05 1.05 0 0 1 .77-.266 1.028 1.028 0 0 1 .754.266 1.017 1.017 0 0 1 .27.758 1 1 0 0 1-.27.738 1.019 1.019 0 0 1-.754.27 1.041 1.041 0 0 1-.77-.27 1 1 0 0 1-.27-.738Zm12.234 6.594a4.716 4.716 0 0 1-1.086 3.3 3.891 3.891 0 0 1-3.023 1.188 4.143 4.143 0 0 1-2.141-.547 3.61 3.61 0 0 1-1.43-1.57 5.348 5.348 0 0 1-.5-2.375 4.684 4.684 0 0 1 1.078-3.281 3.909 3.909 0 0 1 3.039-1.18 3.807 3.807 0 0 1 2.969 1.207 4.663 4.663 0 0 1 1.094 3.258Zm-6.289 0q0 2.992 2.211 2.992 2.188 0 2.188-2.992 0-2.961-2.2-2.961a1.879 1.879 0 0 0-1.676.766 3.9 3.9 0 0 0-.523 2.195Zm16 4.336h-1.844v-5.312a2.325 2.325 0 0 0-.4-1.492 1.555 1.555 0 0 0-1.277-.492 2.031 2.031 0 0 0-1.7.688 3.8 3.8 0 0 0-.539 2.3V383h-1.842v-8.641h1.438l.258 1.133h.094a2.556 2.556 0 0 1 1.109-.953 3.718 3.718 0 0 1 1.594-.336q3.109 0 3.109 3.164Z" fill="#222"/><g data-name="Group 11093"><path data-name="Path 1375" d="M120 98H60v-7.978l2.341-3.512V38h55.317v48.51L120 90.022Zm-58.537-1.463h57.073v-6.071l-2.341-3.512V39.463H63.8v47.49l-2.341 3.512Z" fill="#222"/><path data-name="Line 1302" d="M117.073 87.756H62.927v-1.463h54.146Z" fill="#222"/><path data-name="Line 1303" d="M68.049 93.609h-2.927v-1.463h2.927Z" fill="#222"/><path data-name="Line 1304" d="M73.903 93.609h-2.927v-1.463h2.927Z" fill="#222"/><path data-name="Line 1305" d="M79.756 93.609h-2.927v-1.463h2.927Z" fill="#222"/><path data-name="Line 1306" d="M115.61 93.609H98.049v-1.463h17.561Z" fill="#222"/><path data-name="Union 1" d="M79.256 71.485V58.843l10.949-6.322 10.948 6.322v12.642l-10.948 6.322Zm11.61 4.251 8.825-5.1V60.528l-8.825 5.1Zm-10.147-5.1 8.683 5.013V65.541l-8.683-5.014Zm9.486-6.322 8.753-5.054-8.753-5.054-8.754 5.054Z" fill="#57bc00"/><path data-name="Line 1308" d="M68.781 65.805h-5.854v-1.463h5.854Z" fill="#222"/><path data-name="Path 1378" d="m72.278 80.564-3.559-2.055V51.818l3.559-2.055.732 1.267-2.827 1.632v25l2.827 1.632Z" fill="#222"/><path data-name="Line 1309" d="M76.098 62.878h-3.659v-1.463h3.659Z" fill="#222"/><path data-name="Line 1310" d="M76.098 68.731h-3.659v-1.463h3.659Z" fill="#222"/><path data-name="Line 1311" d="M76.098 74.585h-3.659v-1.463h3.659Z" fill="#222"/><path data-name="Line 1312" d="M76.098 57.024h-3.659v-1.463h3.659Z" fill="#222"/><path data-name="Line 1313" d="M117.074 65.805h-5.854v-1.463h5.854Z" fill="#222"/><path data-name="Path 1379" d="m107.722 80.564-.732-1.267 2.827-1.632v-25l-2.827-1.632.732-1.267 3.559 2.055v26.692Z" fill="#222"/><path data-name="Line 1314" d="M107.561 62.878h-3.659v-1.463h3.659Z" fill="#222"/><path data-name="Line 1315" d="M107.561 68.731h-3.659v-1.463h3.659Z" fill="#222"/><path data-name="Line 1316" d="M107.561 74.585h-3.659v-1.463h3.659Z" fill="#222"/><path data-name="Line 1317" d="M107.561 57.024h-3.659v-1.463h3.659Z" fill="#222"/><path data-name="Line 1318" d="M117.073 45.317H62.927v-1.463h54.146Z" fill="#222"/></g><path data-name="Path 26744" d="M169.193 206.558a7.029 7.029 0 0 1-1.569 4.878 5.674 5.674 0 0 1-4.443 1.74 5.713 5.713 0 0 1-4.469-1.727 7.073 7.073 0 0 1-1.56-4.909 6.963 6.963 0 0 1 1.569-4.887 5.781 5.781 0 0 1 4.479-1.705 5.664 5.664 0 0 1 4.43 1.731 7.022 7.022 0 0 1 1.563 4.879Zm-9.809 0a5.762 5.762 0 0 0 .958 3.6 3.382 3.382 0 0 0 2.839 1.226 3.376 3.376 0 0 0 2.826-1.213 5.772 5.772 0 0 0 .954-3.612 5.784 5.784 0 0 0-.945-3.586 3.34 3.34 0 0 0-2.816-1.223 3.41 3.41 0 0 0-2.852 1.222 5.706 5.706 0 0 0-.963 3.586ZM180.285 213h-2.074v-5.977a2.616 2.616 0 0 0-.453-1.679 1.75 1.75 0 0 0-1.437-.554 2.285 2.285 0 0 0-1.916.773 4.27 4.27 0 0 0-.606 2.593V213h-2.066v-9.721h1.617l.29 1.274h.105a2.876 2.876 0 0 1 1.248-1.072 4.182 4.182 0 0 1 1.794-.381q3.5 0 3.5 3.56Zm7.119.176a4.7 4.7 0 0 1-3.546-1.323 5.021 5.021 0 0 1-1.279-3.643 5.509 5.509 0 0 1 1.187-3.744 4.1 4.1 0 0 1 3.26-1.366 4.006 4.006 0 0 1 3.041 1.169 4.467 4.467 0 0 1 1.116 3.217v1.116h-6.477a3.193 3.193 0 0 0 .765 2.175 2.663 2.663 0 0 0 2.03.76 7.5 7.5 0 0 0 1.6-.163 8.408 8.408 0 0 0 1.6-.541v1.679a6.342 6.342 0 0 1-1.529.51 9.378 9.378 0 0 1-1.772.154Zm-.378-8.508a2.075 2.075 0 0 0-1.578.624 2.974 2.974 0 0 0-.708 1.819h4.412a2.691 2.691 0 0 0-.58-1.824 1.984 1.984 0 0 0-1.546-.619Zm18.809 4.843a3.234 3.234 0 0 1-1.235 2.689 5.393 5.393 0 0 1-3.419.976 8.158 8.158 0 0 1-3.568-.677v-1.986a9.7 9.7 0 0 0 1.868.65 7.919 7.919 0 0 0 1.841.237 2.929 2.929 0 0 0 1.841-.475 1.548 1.548 0 0 0 .593-1.274 1.6 1.6 0 0 0-.545-1.222 8.2 8.2 0 0 0-2.25-1.187 5.952 5.952 0 0 1-2.479-1.626 3.44 3.44 0 0 1-.721-2.2 3.077 3.077 0 0 1 1.139-2.527 4.74 4.74 0 0 1 3.067-.923 9.012 9.012 0 0 1 3.674.809l-.668 1.714a8.027 8.027 0 0 0-3.059-.721 2.347 2.347 0 0 0-1.547.444 1.458 1.458 0 0 0-.527 1.173 1.652 1.652 0 0 0 .211.857 2.155 2.155 0 0 0 .694.672 11.745 11.745 0 0 0 1.74.835 9.522 9.522 0 0 1 2.074 1.1 3.231 3.231 0 0 1 .968 1.151 3.463 3.463 0 0 1 .308 1.511Zm5.889 2a5.023 5.023 0 0 0 1.512-.237v1.556a4.169 4.169 0 0 1-.883.25 6.086 6.086 0 0 1-1.121.1q-2.936 0-2.936-3.094v-5.242h-1.327v-.914l1.424-.756.7-2.057h1.277v2.162h2.769v1.564h-2.769v5.2a1.46 1.46 0 0 0 .374 1.1 1.362 1.362 0 0 0 .98.363Zm12.076-3.389a5.306 5.306 0 0 1-1.222 3.718 4.377 4.377 0 0 1-3.4 1.336 4.66 4.66 0 0 1-2.408-.615 4.062 4.062 0 0 1-1.608-1.767 6.017 6.017 0 0 1-.562-2.672 5.27 5.27 0 0 1 1.213-3.691 4.4 4.4 0 0 1 3.416-1.331 4.282 4.282 0 0 1 3.34 1.358 5.245 5.245 0 0 1 1.231 3.664Zm-7.075 0q0 3.366 2.487 3.366 2.461 0 2.461-3.366 0-3.331-2.479-3.331a2.113 2.113 0 0 0-1.885.861 4.383 4.383 0 0 0-.584 2.47Zm14.375 5.054a3.4 3.4 0 0 1-2.865-1.327h-.123q.123 1.23.123 1.494v3.981h-2.062v-14.045h1.67q.07.272.29 1.3h.105a3.236 3.236 0 0 1 2.9-1.477 3.374 3.374 0 0 1 2.834 1.318 5.944 5.944 0 0 1 1.015 3.7 5.948 5.948 0 0 1-1.033 3.718 3.4 3.4 0 0 1-2.854 1.338Zm-.5-8.385a2.147 2.147 0 0 0-1.8.721 3.735 3.735 0 0 0-.567 2.3v.308a4.547 4.547 0 0 0 .563 2.571 2.092 2.092 0 0 0 1.837.8 1.865 1.865 0 0 0 1.652-.879 4.539 4.539 0 0 0 .58-2.5 4.38 4.38 0 0 0-.576-2.474 1.92 1.92 0 0 0-1.689-.847Zm-56.476 24.72a3.234 3.234 0 0 1-1.239 2.689 5.393 5.393 0 0 1-3.419.976 8.158 8.158 0 0 1-3.566-.676v-1.987a9.7 9.7 0 0 0 1.868.65 7.919 7.919 0 0 0 1.841.237 2.929 2.929 0 0 0 1.841-.475 1.548 1.548 0 0 0 .593-1.274 1.6 1.6 0 0 0-.543-1.221 8.2 8.2 0 0 0-2.25-1.187 5.952 5.952 0 0 1-2.479-1.626 3.44 3.44 0 0 1-.721-2.2 3.077 3.077 0 0 1 1.143-2.531 4.74 4.74 0 0 1 3.067-.923 9.012 9.012 0 0 1 3.674.809l-.668 1.714a8.027 8.027 0 0 0-3.059-.721 2.347 2.347 0 0 0-1.547.444 1.458 1.458 0 0 0-.527 1.173 1.652 1.652 0 0 0 .211.857 2.155 2.155 0 0 0 .694.672 11.745 11.745 0 0 0 1.74.835 9.522 9.522 0 0 1 2.074 1.1 3.231 3.231 0 0 1 .964 1.154 3.463 3.463 0 0 1 .308 1.511Zm6.513 3.665a4.7 4.7 0 0 1-3.546-1.323 5.021 5.021 0 0 1-1.279-3.643 5.509 5.509 0 0 1 1.188-3.744 4.1 4.1 0 0 1 3.259-1.366 4.006 4.006 0 0 1 3.041 1.172 4.467 4.467 0 0 1 1.116 3.217v1.116h-6.478a3.193 3.193 0 0 0 .765 2.175 2.663 2.663 0 0 0 2.03.76 7.5 7.5 0 0 0 1.6-.163 8.408 8.408 0 0 0 1.6-.541v1.679a6.342 6.342 0 0 1-1.529.51 9.378 9.378 0 0 1-1.767.151Zm-.378-8.508a2.075 2.075 0 0 0-1.578.624 2.974 2.974 0 0 0-.708 1.819h4.412a2.691 2.691 0 0 0-.58-1.824 1.984 1.984 0 0 0-1.546-.619Zm11.434-1.568a4.972 4.972 0 0 1 1.028.088l-.2 1.925a3.9 3.9 0 0 0-.914-.105 2.645 2.645 0 0 0-2.008.809 2.923 2.923 0 0 0-.769 2.1V233h-2.067v-9.721h1.617l.272 1.714h.105a3.851 3.851 0 0 1 1.261-1.38 3 3 0 0 1 1.675-.513Zm5.045 9.9-3.691-9.721h2.18l1.973 5.652a11.2 11.2 0 0 1 .615 2.3h.07a15.462 15.462 0 0 1 .615-2.3l1.978-5.651h2.2l-3.707 9.72Zm9.483 0h-2.065v-9.721h2.065Zm-2.188-12.3a1.144 1.144 0 0 1 .3-.853 1.182 1.182 0 0 1 .866-.3 1.156 1.156 0 0 1 .848.3 1.144 1.144 0 0 1 .3.853 1.122 1.122 0 0 1-.3.831 1.147 1.147 0 0 1-.848.3 1.171 1.171 0 0 1-.866-.3 1.122 1.122 0 0 1-.3-.831Zm9.062 12.472a4.256 4.256 0 0 1-3.353-1.288 5.38 5.38 0 0 1-1.147-3.7 5.41 5.41 0 0 1 1.2-3.771 4.45 4.45 0 0 1 3.467-1.313 6.5 6.5 0 0 1 2.769.571l-.624 1.661a6.255 6.255 0 0 0-2.162-.51q-2.522 0-2.522 3.349a4.01 4.01 0 0 0 .628 2.457 2.175 2.175 0 0 0 1.841.822 5.283 5.283 0 0 0 2.61-.686v1.8a4.079 4.079 0 0 1-1.182.466 7.093 7.093 0 0 1-1.525.146Zm9.237 0a4.7 4.7 0 0 1-3.546-1.323 5.021 5.021 0 0 1-1.279-3.643 5.509 5.509 0 0 1 1.187-3.744 4.1 4.1 0 0 1 3.26-1.362 4.006 4.006 0 0 1 3.046 1.172 4.467 4.467 0 0 1 1.116 3.217v1.116h-6.482a3.193 3.193 0 0 0 .765 2.175 2.663 2.663 0 0 0 2.03.76 7.5 7.5 0 0 0 1.6-.163 8.408 8.408 0 0 0 1.6-.541v1.679a6.342 6.342 0 0 1-1.529.51 9.378 9.378 0 0 1-1.768.151Zm-.378-8.508a2.075 2.075 0 0 0-1.578.624 2.974 2.974 0 0 0-.708 1.819h4.412a2.691 2.691 0 0 0-.58-1.824 1.984 1.984 0 0 0-1.546-.615Z" fill="#222"/><g data-name="Group 11094"><path data-name="Path 1394" d="M330 89.707h-4.39v-14.39h1.463v12.927h1.463V75.317h1.463Z" fill="#222"/><path data-name="Rectangle 265" d="M270 67.756h60v8.293h-60Zm58.537 1.463h-57.074v5.366h57.074Z" fill="#222"/><path data-name="Path 1395" d="M274.39 89.707H270v-14.39h1.463v12.927h1.463V75.317h1.463Z" fill="#222"/><path data-name="Line 1335" d="M295.122 81.902h-20.976v-1.463h20.976Z" fill="#222"/><path data-name="Path 1396" d="M305.61 84.585h-1.463v-5.122h-8.293v5.122h-1.464V78h11.22Z" fill="#222"/><path data-name="Path 1397" d="M298.781 82.652v6.25l-2.5 1.5-.528 3.7h-4.337l.564-9.592Zm-1.463 5.422v-3.506l-3.935 1.073-.411 6.993h1.516l.447-3.131Z" fill="#222"/><path data-name="Line 1336" d="M325.854 81.902h-20.976v-1.463h20.976Z" fill="#222"/><path data-name="Path 1398" d="m301.22 82.652 6.8 1.854.564 9.592h-4.337l-.528-3.7-2.5-1.5Zm5.4 2.989-3.935-1.073v3.506l2.382 1.429.447 3.131h1.516Z" fill="#222"/><path data-name="Line 1337" d="M301.949 87.268h-3.9v-1.463h3.9Z" fill="#222"/><path data-name="Line 1338" d="M295.122 84.829h-20.976v-1.463h20.976Z" fill="#222"/><path data-name="Line 1339" d="M325.854 84.829h-20.976v-1.463h20.976Z" fill="#222"/><path data-name="Path 1399" d="M294.882 81.902a14.593 14.593 0 0 1-5.556-.97 8.779 8.779 0 0 1-3.2-2.2 6.889 6.889 0 0 1-1.724-3.312l1.448-.213a5.567 5.567 0 0 0 1.419 2.609 7.389 7.389 0 0 0 2.675 1.788 13.228 13.228 0 0 0 4.939.835Z" fill="#222"/><path data-name="Path 1400" d="M305.122 81.902v-1.463a13.228 13.228 0 0 0 4.939-.835 7.39 7.39 0 0 0 2.675-1.788 5.567 5.567 0 0 0 1.419-2.609l1.448.213a6.889 6.889 0 0 1-1.724 3.312 8.778 8.778 0 0 1-3.2 2.2 14.594 14.594 0 0 1-5.557.97Z" fill="#222"/><path data-name="Ellipse 45" d="M275.127 69.707a2.2 2.2 0 1 1-2.2 2.2 2.2 2.2 0 0 1 2.2-2.2Zm0 2.927a.732.732 0 1 0-.737-.727.733.733 0 0 0 .737.727Z" fill="#222"/><path data-name="Ellipse 46" d="M280.98 69.707a2.2 2.2 0 1 1-2.2 2.2 2.2 2.2 0 0 1 2.2-2.2Zm0 2.927a.732.732 0 1 0-.737-.727.733.733 0 0 0 .737.727Z" fill="#222"/><path data-name="Line 1340" d="M326.339 72.634h-3.9v-1.463h3.9Z" fill="#222"/><path data-name="Ellipse 47" d="M300 89.707a4.146 4.146 0 1 1-4.146 4.146A4.151 4.151 0 0 1 300 89.707Zm0 6.829a2.683 2.683 0 1 0-2.683-2.683A2.686 2.686 0 0 0 300 96.536Z" fill="#222"/><path data-name="Path 1401" d="M311.705 65.561h-1.463a10.488 10.488 0 1 0-20.976 0h-1.461a11.951 11.951 0 1 1 23.9 0Z" fill="#57bc00"/><path data-name="Path 1402" d="M327.561 65.561h-1.463V63.08a1.668 1.668 0 0 0-1.666-1.666h-2.464a3.133 3.133 0 0 1-1.822-.579 3.031 3.031 0 0 1-1.141-1.546 20.191 20.191 0 0 0-1.132-2.767 3.1 3.1 0 0 1 .6-3.574l1.732-1.732a1.666 1.666 0 0 0 0-2.355l-3.508-3.508a1.667 1.667 0 0 0-2.355 0l-1.654 1.654a3.129 3.129 0 0 1-1.712.881 3.037 3.037 0 0 1-1.91-.3 20.2 20.2 0 0 0-2.837-1.209 3.1 3.1 0 0 1-2.086-2.954v-2.296a1.668 1.668 0 0 0-1.666-1.666h-4.961a1.668 1.668 0 0 0-1.666 1.666v2.142a3.138 3.138 0 0 1-.586 1.833 3.016 3.016 0 0 1-1.565 1.139 20.2 20.2 0 0 0-2.993 1.2 3.091 3.091 0 0 1-3.567-.608l-1.487-1.487a1.668 1.668 0 0 0-2.355 0l-3.508 3.508a1.666 1.666 0 0 0 0 2.355l1.41 1.41a3.138 3.138 0 0 1 .881 1.7 3.015 3.015 0 0 1-.3 1.908 20.152 20.152 0 0 0-1.267 3.016 3.1 3.1 0 0 1-2.931 2.16h-2.021a1.668 1.668 0 0 0-1.666 1.666v2.48h-1.456V63.08a3.133 3.133 0 0 1 3.129-3.129h2.021a1.636 1.636 0 0 0 1.54-1.152 21.617 21.617 0 0 1 1.36-3.236 1.648 1.648 0 0 0-.322-1.9l-1.41-1.41a3.129 3.129 0 0 1 0-4.425l3.508-3.508a3.133 3.133 0 0 1 4.425 0l1.487 1.487a1.63 1.63 0 0 0 1.878.334 21.666 21.666 0 0 1 3.21-1.292 1.647 1.647 0 0 0 1.124-1.575v-2.145A3.133 3.133 0 0 1 297.52 38h4.961a3.133 3.133 0 0 1 3.129 3.129v2.295a1.638 1.638 0 0 0 1.091 1.568 21.676 21.676 0 0 1 3.043 1.3 1.584 1.584 0 0 0 1 .155 1.674 1.674 0 0 0 .916-.472l1.654-1.654a3.133 3.133 0 0 1 4.425 0l3.508 3.508a3.129 3.129 0 0 1 0 4.425l-1.732 1.732a1.637 1.637 0 0 0-.328 1.886 21.663 21.663 0 0 1 1.214 2.968 1.634 1.634 0 0 0 1.571 1.113h2.464a3.133 3.133 0 0 1 3.129 3.129Z" fill="#57bc00"/><path data-name="Path 1403" d="M316.586 65.561h-1.459a15.366 15.366 0 1 0-30.732 0h-1.468a16.83 16.83 0 1 1 33.659 0Z" fill="#57bc00"/></g><g data-name="Group 11095"><path data-name="Rectangle 264" fill="none" d="M270 276.874h60v58.252h-60z"/><path data-name="Line 1319" d="m312.226 300.523-.913-1.506 3.621-2.068.913 1.506Zm7.24-4.135-.912-1.506 2.454-1.4.913 1.504Z" fill="#000222"/><path data-name="Line 1320" d="m287.632 300.173-1.838-1.052.913-1.506 1.839 1.05Zm-5.458-3.119-3.621-2.068.913-1.506 3.62 2.068Z" fill="#000222"/><path data-name="Line 1321" d="M300.989 330.116h-1.8v-2.11h1.8Zm0-6.187h-1.8v-4.078h1.8Z" fill="#000222"/><path data-name="Ellipse 29" d="M300 276a3.849 3.849 0 0 1 3.9 3.786 3.849 3.849 0 0 1-3.9 3.787 3.849 3.849 0 0 1-3.9-3.787A3.849 3.849 0 0 1 300 276Zm0 5.825a2.072 2.072 0 0 0 2.1-2.039 2.072 2.072 0 0 0-2.1-2.038 2.072 2.072 0 0 0-2.1 2.038 2.072 2.072 0 0 0 2.1 2.039Z"/><path data-name="Ellipse 30" d="M300 328.427a3.849 3.849 0 0 1 3.9 3.786A3.849 3.849 0 0 1 300 336a3.849 3.849 0 0 1-3.9-3.787 3.849 3.849 0 0 1 3.9-3.786Zm0 5.825a2.072 2.072 0 0 0 2.1-2.039 2.072 2.072 0 0 0-2.1-2.038 2.072 2.072 0 0 0-2.1 2.038 2.072 2.072 0 0 0 2.1 2.039Z"/><path data-name="Ellipse 31" d="M276.6 289.398a3.849 3.849 0 0 1 3.9 3.786 3.849 3.849 0 0 1-3.9 3.787 3.849 3.849 0 0 1-3.9-3.787 3.849 3.849 0 0 1 3.9-3.786Zm0 5.825a2.072 2.072 0 0 0 2.1-2.039 2.072 2.072 0 0 0-2.1-2.038 2.072 2.072 0 0 0-2.1 2.038 2.072 2.072 0 0 0 2.1 2.039Z"/><path data-name="Ellipse 32" d="M276.6 315.029a3.849 3.849 0 0 1 3.9 3.786 3.849 3.849 0 0 1-3.9 3.787 3.849 3.849 0 0 1-3.9-3.787 3.849 3.849 0 0 1 3.9-3.786Zm0 5.825a2.072 2.072 0 0 0 2.1-2.039 2.072 2.072 0 0 0-2.1-2.038 2.072 2.072 0 0 0-2.1 2.038 2.072 2.072 0 0 0 2.1 2.039Z"/><path data-name="Ellipse 33" d="M323.4 289.398a3.849 3.849 0 0 1 3.9 3.786 3.849 3.849 0 0 1-3.9 3.787 3.849 3.849 0 0 1-3.9-3.787 3.849 3.849 0 0 1 3.9-3.786Zm0 5.825a2.072 2.072 0 0 0 2.1-2.039 2.072 2.072 0 0 0-2.1-2.038 2.072 2.072 0 0 0-2.1 2.038 2.072 2.072 0 0 0 2.1 2.039Z"/><path data-name="Ellipse 34" d="M323.4 315.029a3.849 3.849 0 0 1 3.9 3.786 3.849 3.849 0 0 1-3.9 3.787 3.849 3.849 0 0 1-3.9-3.787 3.849 3.849 0 0 1 3.9-3.786Zm0 5.825a2.072 2.072 0 0 0 2.1-2.039 2.072 2.072 0 0 0-2.1-2.038 2.072 2.072 0 0 0-2.1 2.038 2.072 2.072 0 0 0 2.1 2.039Z"/><path data-name="Line 1322" d="m296.953 331.515-18.345-10.275.9-1.514 18.344 10.276Z"/><path data-name="Line 1323" d="M277.5 315.903h-1.8v-19.806h1.8Z"/><path data-name="Line 1324" d="m279.507 292.274-.9-1.514 18.35-10.276.9 1.514Z"/><path data-name="Line 1325" d="m320.496 292.273-18.35-10.276.9-1.514 18.35 10.276Z"/><path data-name="Line 1326" d="M324.3 315.903h-1.8v-19.806h1.8Z"/><path data-name="Line 1327" d="m303.046 331.516-.9-1.514 18.35-10.276.9 1.514Z"/><path data-name="Union 2" d="M289.137 312.325v-12.65l11.1-6.339 11.1 6.339v12.65l-11.1 6.339Zm11.929 3.839 8.472-4.839v-9.623l-8.472 4.838Zm-10.129-4.839 8.329 4.757v-9.624l-8.329-4.757Zm9.3-6.339 8.426-4.812-8.426-4.812-8.425 4.812Z" fill="#57bc00"/></g></g></svg>