<svg xmlns="http://www.w3.org/2000/svg" xmlns:xlink="http://www.w3.org/1999/xlink" width="215" height="55" viewBox="0 0 215 55">
  <defs>
    <clipPath id="clip-path">
      <rect id="Rectangle_91" data-name="Rectangle 91" width="215" height="55.001" fill="none"/>
    </clipPath>
    <clipPath id="clip-secondsource-medical-logo-2">
      <rect width="215" height="55"/>
    </clipPath>
  </defs>
  <g id="secondsource-medical-logo-2" clip-path="url(#clip-secondsource-medical-logo-2)">
    <g id="Group_11177" data-name="Group 11177">
      <g id="Group_7180" data-name="Group 7180" clip-path="url(#clip-path)">
        <path id="Path_43" data-name="Path 43" d="M133.72,42.645a9.638,9.638,0,0,1-2.791-1.561l1.933-2.685a9.19,9.19,0,0,0,2.074,1.249,5.221,5.221,0,0,0,2.011.406,2.673,2.673,0,0,0,1.59-.39,1.294,1.294,0,0,0,.53-1.108,1.14,1.14,0,0,0-.421-.874,4.366,4.366,0,0,0-1.2-.7q-.78-.327-1.559-.64a9.817,9.817,0,0,1-3.009-1.764,3.527,3.527,0,0,1-1.169-2.763,4.281,4.281,0,0,1,1.59-3.449,6.358,6.358,0,0,1,4.21-1.327,8.46,8.46,0,0,1,5.332,1.935l-1.9,2.56a5.908,5.908,0,0,0-3.305-1.311,2.343,2.343,0,0,0-1.45.375,1.2,1.2,0,0,0-.483,1,1.162,1.162,0,0,0,.624,1.015,7.008,7.008,0,0,0,1.434.671q.81.281,1.06.375a9.577,9.577,0,0,1,3.1,1.733,3.707,3.707,0,0,1,1.138,2.919,4.455,4.455,0,0,1-.733,2.513,5.035,5.035,0,0,1-2.136,1.764,7.9,7.9,0,0,1-3.368.656,8.944,8.944,0,0,1-3.1-.593" transform="translate(-103.712 -21.409)" fill="#6cc8ea"/>
        <path id="Path_44" data-name="Path 44" d="M209.639,36.058H197.177a4.155,4.155,0,0,0,1.442,2.625,4.522,4.522,0,0,0,2.991.974,5.169,5.169,0,0,0,3.737-1.522l3.268,1.537a7.717,7.717,0,0,1-2.927,2.568,9.146,9.146,0,0,1-4.05.832,8,8,0,0,1-5.926-2.3,7.823,7.823,0,0,1-2.288-5.755,8.088,8.088,0,0,1,2.281-5.883,7.656,7.656,0,0,1,5.72-2.34,7.94,7.94,0,0,1,5.94,2.34,8.464,8.464,0,0,1,2.288,6.182ZM205.76,33a3.9,3.9,0,0,0-1.516-2.105,4.391,4.391,0,0,0-2.626-.811,4.64,4.64,0,0,0-2.847.91A5.076,5.076,0,0,0,197.347,33Z" transform="translate(-153.216 -21.22)" fill="#6cc8ea"/>
        <path id="Path_45" data-name="Path 45" d="M293.2,30.325,289.966,32.1a5.482,5.482,0,0,0-1.8-1.323,5.4,5.4,0,0,0-2.084-.37,4.853,4.853,0,0,0-3.521,1.3,4.43,4.43,0,0,0-1.345,3.331,4.283,4.283,0,0,0,1.295,3.225,4.689,4.689,0,0,0,3.4,1.25,4.941,4.941,0,0,0,4.055-1.778l3.059,2.1a9.416,9.416,0,0,1-13.408.82,8.048,8.048,0,0,1,1.947-12.776,9.344,9.344,0,0,1,4.5-1.081,9.112,9.112,0,0,1,4.135.918,7.852,7.852,0,0,1,3,2.611" transform="translate(-219.662 -21.22)" fill="#6cc8ea"/>
        <path id="Path_46" data-name="Path 46" d="M369.343,26.8a8.19,8.19,0,0,1,4.114,1.1,7.91,7.91,0,0,1,3.005,2.973,8,8,0,0,1,1.08,4.055,8.134,8.134,0,0,1-1.087,4.1A7.846,7.846,0,0,1,373.492,42a8.175,8.175,0,0,1-4.135,1.074A7.708,7.708,0,0,1,363.68,40.7a8.212,8.212,0,0,1,.306-11.8,7.758,7.758,0,0,1,5.357-2.105m.064,3.656a3.99,3.99,0,0,0-3.01,1.259,4.473,4.473,0,0,0-1.2,3.222,4.557,4.557,0,0,0,1.189,3.272,3.972,3.972,0,0,0,3.011,1.252,4.019,4.019,0,0,0,3.032-1.266,4.523,4.523,0,0,0,1.21-3.258,4.494,4.494,0,0,0-1.189-3.237,4.018,4.018,0,0,0-3.039-1.245" transform="translate(-286.216 -21.221)" fill="#6cc8ea"/>
        <path id="Path_47" data-name="Path 47" d="M448.969,27.2h3.879v1.586a9.306,9.306,0,0,1,2.391-1.549,5.768,5.768,0,0,1,2.192-.436,5.3,5.3,0,0,1,3.9,1.608,5.524,5.524,0,0,1,1.348,4.04V42.674h-3.837V35.9a17.157,17.157,0,0,0-.248-3.68,2.517,2.517,0,0,0-.865-1.385,2.417,2.417,0,0,0-1.524-.476,2.854,2.854,0,0,0-2.02.789,4.209,4.209,0,0,0-1.17,2.181,17.625,17.625,0,0,0-.17,3.14v6.21h-3.879Z" transform="translate(-355.638 -21.22)" fill="#6cc8ea"/>
        <path id="Path_48" data-name="Path 48" d="M536.087,0h3.879V21.455h-3.879V19.818a7.611,7.611,0,0,1-2.278,1.558,6.373,6.373,0,0,1-2.477.477,6.877,6.877,0,0,1-5.181-2.326,8.119,8.119,0,0,1-2.186-5.783,8.32,8.32,0,0,1,2.115-5.876,6.735,6.735,0,0,1,5.138-2.291,6.525,6.525,0,0,1,2.612.527,7.13,7.13,0,0,1,2.257,1.579Zm-4.078,9.162a3.918,3.918,0,0,0-2.989,1.273,4.593,4.593,0,0,0-1.19,3.265,4.639,4.639,0,0,0,1.211,3.3,3.921,3.921,0,0,0,2.981,1.295,3.993,3.993,0,0,0,3.031-1.273,4.657,4.657,0,0,0,1.2-3.336,4.523,4.523,0,0,0-1.2-3.272,4.044,4.044,0,0,0-3.045-1.252" transform="translate(-415.045 -0.001)" fill="#6cc8ea"/>
        <path id="Path_49" data-name="Path 49" d="M610.862,42.645a9.642,9.642,0,0,1-2.791-1.561L610,38.4a9.186,9.186,0,0,0,2.074,1.249,5.221,5.221,0,0,0,2.011.406,2.673,2.673,0,0,0,1.591-.39,1.294,1.294,0,0,0,.53-1.108,1.139,1.139,0,0,0-.421-.874,4.362,4.362,0,0,0-1.2-.7q-.78-.327-1.559-.64a9.819,9.819,0,0,1-3.009-1.764,3.527,3.527,0,0,1-1.169-2.763,4.281,4.281,0,0,1,1.59-3.449,6.357,6.357,0,0,1,4.21-1.327,8.461,8.461,0,0,1,5.332,1.935l-1.9,2.56a5.909,5.909,0,0,0-3.306-1.311,2.342,2.342,0,0,0-1.45.375,1.2,1.2,0,0,0-.484,1,1.162,1.162,0,0,0,.624,1.015,7.01,7.01,0,0,0,1.435.671q.81.281,1.06.375a9.575,9.575,0,0,1,3.1,1.733,3.706,3.706,0,0,1,1.138,2.919,4.455,4.455,0,0,1-.733,2.513,5.033,5.033,0,0,1-2.136,1.764,7.9,7.9,0,0,1-3.368.656,8.944,8.944,0,0,1-3.1-.593" transform="translate(-481.666 -21.409)" fill="#6cc8ea"/>
        <path id="Path_50" data-name="Path 50" d="M678.447,26.8a8.19,8.19,0,0,1,4.114,1.1,7.911,7.911,0,0,1,3.005,2.973,8,8,0,0,1,1.08,4.055,8.134,8.134,0,0,1-1.087,4.1A7.846,7.846,0,0,1,682.6,42a8.175,8.175,0,0,1-4.135,1.074,7.708,7.708,0,0,1-5.677-2.369,8.212,8.212,0,0,1,.306-11.8,7.758,7.758,0,0,1,5.357-2.105m.064,3.656a3.99,3.99,0,0,0-3.01,1.259,4.473,4.473,0,0,0-1.2,3.222,4.557,4.557,0,0,0,1.189,3.272,3.973,3.973,0,0,0,3.011,1.252,4.019,4.019,0,0,0,3.032-1.266,4.523,4.523,0,0,0,1.21-3.258,4.494,4.494,0,0,0-1.189-3.237,4.018,4.018,0,0,0-3.039-1.245" transform="translate(-531.064 -21.221)" fill="#6cc8ea"/>
        <path id="Path_51" data-name="Path 51" d="M758.005,28.711h3.922v7.455a10.34,10.34,0,0,0,.3,3.023,2.637,2.637,0,0,0,.962,1.316,2.747,2.747,0,0,0,1.631.47,2.846,2.846,0,0,0,1.646-.462,2.71,2.71,0,0,0,1-1.359,10.417,10.417,0,0,0,.242-2.859V28.711h3.88V35.27a16.1,16.1,0,0,1-.64,5.548,6.05,6.05,0,0,1-2.3,2.8,7.04,7.04,0,0,1-3.865.975,6.85,6.85,0,0,1-4.114-1.138,6.011,6.011,0,0,1-2.209-3.172,19.242,19.242,0,0,1-.455-5.121Z" transform="translate(-600.433 -22.736)" fill="#6cc8ea"/>
        <path id="Path_52" data-name="Path 52" d="M832.112,27.2h3.325v1.949a4.159,4.159,0,0,1,1.435-1.75,3.46,3.46,0,0,1,1.961-.6,3.629,3.629,0,0,1,1.577.4L839.2,30.538a2.667,2.667,0,0,0-1.123-.341,1.776,1.776,0,0,0-1.513,1.11,10.16,10.16,0,0,0-.618,4.353l.014.754v6.26h-3.851Z" transform="translate(-659.134 -21.22)" fill="#6cc8ea"/>
        <path id="Path_53" data-name="Path 53" d="M887.926,30.325,884.7,32.1a5.48,5.48,0,0,0-1.8-1.323,5.4,5.4,0,0,0-2.084-.37,4.853,4.853,0,0,0-3.521,1.3,4.43,4.43,0,0,0-1.344,3.331,4.283,4.283,0,0,0,1.295,3.225,4.689,4.689,0,0,0,3.4,1.25,4.941,4.941,0,0,0,4.055-1.778l3.059,2.1a9.416,9.416,0,0,1-13.408.82A8.048,8.048,0,0,1,876.3,27.878a9.344,9.344,0,0,1,4.5-1.081,9.113,9.113,0,0,1,4.135.918,7.854,7.854,0,0,1,3,2.611" transform="translate(-690.761 -21.22)" fill="#6cc8ea"/>
        <path id="Path_54" data-name="Path 54" d="M972.409,36.058H959.947a4.155,4.155,0,0,0,1.442,2.625,4.522,4.522,0,0,0,2.991.974,5.169,5.169,0,0,0,3.737-1.522l3.268,1.537a7.717,7.717,0,0,1-2.927,2.568,9.146,9.146,0,0,1-4.05.832,8,8,0,0,1-5.926-2.3A7.823,7.823,0,0,1,956.2,35.02a8.087,8.087,0,0,1,2.281-5.883,7.656,7.656,0,0,1,5.72-2.34,7.94,7.94,0,0,1,5.94,2.34,8.464,8.464,0,0,1,2.288,6.182ZM968.53,33a3.9,3.9,0,0,0-1.516-2.105,4.392,4.392,0,0,0-2.626-.811,4.641,4.641,0,0,0-2.847.91A5.077,5.077,0,0,0,960.117,33Z" transform="translate(-757.423 -21.22)" fill="#6cc8ea"/>
        <path id="Path_55" data-name="Path 55" d="M702.027,143.655h2.438v1.118a4.165,4.165,0,0,1,1.39-1.028,4.058,4.058,0,0,1,1.667-.34,3.1,3.1,0,0,1,1.645.447,3.232,3.232,0,0,1,1.18,1.306,3.942,3.942,0,0,1,1.426-1.306,3.888,3.888,0,0,1,1.846-.447,3.414,3.414,0,0,1,1.823.483,2.79,2.79,0,0,1,1.131,1.261,6.747,6.747,0,0,1,.344,2.531v5.705h-2.456v-4.936a4.228,4.228,0,0,0-.411-2.24,1.406,1.406,0,0,0-1.233-.586,1.868,1.868,0,0,0-1.121.358,2.113,2.113,0,0,0-.737.988,6.145,6.145,0,0,0-.241,2.025v4.391h-2.456v-4.713a6.635,6.635,0,0,0-.193-1.891,1.711,1.711,0,0,0-.578-.872,1.517,1.517,0,0,0-.931-.286,1.834,1.834,0,0,0-1.106.362,2.16,2.16,0,0,0-.743,1.015,6.278,6.278,0,0,0-.246,2.057v4.328h-2.438Z" transform="translate(-556.091 -113.56)" fill="#57bc00"/>
        <path id="Path_56" data-name="Path 56" d="M789.309,149.226h-7.833a2.611,2.611,0,0,0,.907,1.65,2.842,2.842,0,0,0,1.88.612,3.249,3.249,0,0,0,2.349-.957l2.054.966a4.851,4.851,0,0,1-1.84,1.614,5.748,5.748,0,0,1-2.546.523,5.027,5.027,0,0,1-3.725-1.444,4.917,4.917,0,0,1-1.438-3.617,5.084,5.084,0,0,1,1.434-3.7,4.812,4.812,0,0,1,3.6-1.471,4.99,4.99,0,0,1,3.733,1.471,5.32,5.32,0,0,1,1.438,3.885ZM786.87,147.3a2.449,2.449,0,0,0-.953-1.323,2.761,2.761,0,0,0-1.651-.51,2.917,2.917,0,0,0-1.79.572,3.191,3.191,0,0,0-.895,1.261Z" transform="translate(-617.156 -113.56)" fill="#57bc00"/>
        <path id="Path_57" data-name="Path 57" d="M839.591,126.561h2.439v13.485h-2.439v-1.028a4.777,4.777,0,0,1-1.432.979,4,4,0,0,1-1.557.3,4.323,4.323,0,0,1-3.256-1.462,5.1,5.1,0,0,1-1.374-3.635,5.23,5.23,0,0,1,1.329-3.693,4.234,4.234,0,0,1,3.23-1.44,4.1,4.1,0,0,1,1.642.331,4.484,4.484,0,0,1,1.419.992Zm-2.563,5.759a2.462,2.462,0,0,0-1.878.8,2.886,2.886,0,0,0-.748,2.052,2.916,2.916,0,0,0,.761,2.075,2.465,2.465,0,0,0,1.874.814,2.51,2.51,0,0,0,1.905-.8,2.928,2.928,0,0,0,.757-2.1,2.845,2.845,0,0,0-.757-2.057,2.543,2.543,0,0,0-1.914-.787" transform="translate(-659.023 -100.222)" fill="#57bc00"/>
        <path id="Path_58" data-name="Path 58" d="M887.365,125.358a1.491,1.491,0,0,1,1.1.465,1.547,1.547,0,0,1,.459,1.127,1.527,1.527,0,0,1-.454,1.113,1.472,1.472,0,0,1-1.087.461,1.494,1.494,0,0,1-1.109-.47,1.572,1.572,0,0,1-.459-1.14,1.554,1.554,0,0,1,1.55-1.556m-1.219,4.006h2.438v9.729h-2.438Z" transform="translate(-701.674 -99.269)" fill="#57bc00"/>
        <path id="Path_59" data-name="Path 59" d="M913.98,145.623l-2.03,1.118a3.447,3.447,0,0,0-1.131-.832,3.4,3.4,0,0,0-1.31-.232,3.05,3.05,0,0,0-2.213.817,2.785,2.785,0,0,0-.845,2.093,2.692,2.692,0,0,0,.814,2.027,2.947,2.947,0,0,0,2.137.786,3.106,3.106,0,0,0,2.549-1.118l1.923,1.318a5.919,5.919,0,0,1-8.428.515,5.059,5.059,0,0,1,1.224-8.03,5.876,5.876,0,0,1,2.827-.679,5.729,5.729,0,0,1,2.6.577,4.937,4.937,0,0,1,1.885,1.641" transform="translate(-716.074 -113.56)" fill="#57bc00"/>
        <path id="Path_60" data-name="Path 60" d="M964.555,143.655h2.438v9.729h-2.438v-1.028a4.782,4.782,0,0,1-1.432.979,4.005,4.005,0,0,1-1.557.3,4.323,4.323,0,0,1-3.256-1.462,5.1,5.1,0,0,1-1.374-3.635,5.231,5.231,0,0,1,1.329-3.693,4.235,4.235,0,0,1,3.23-1.44,4.1,4.1,0,0,1,1.641.331,4.485,4.485,0,0,1,1.419.992Zm-2.564,2a2.462,2.462,0,0,0-1.878.8,2.887,2.887,0,0,0-.748,2.052,2.916,2.916,0,0,0,.761,2.075A2.465,2.465,0,0,0,962,151.4a2.509,2.509,0,0,0,1.9-.8,2.926,2.926,0,0,0,.757-2.1,2.844,2.844,0,0,0-.757-2.057,2.542,2.542,0,0,0-1.914-.787" transform="translate(-758.01 -113.56)" fill="#57bc00"/>
        <rect id="Rectangle_88" data-name="Rectangle 88" width="2.438" height="13.485" transform="translate(210.449 26.339)" fill="#57bc00"/>
        <path id="Path_61" data-name="Path 61" d="M5.249,35.155h0a.927.927,0,0,1,.8-.464h6.592a1.226,1.226,0,0,0,1.062-.614l1.481-2.568a.559.559,0,0,0-.483-.838H2.836a1.226,1.226,0,0,0-1.062.614L.164,34.078a1.229,1.229,0,0,0,0,1.227L6.233,45.827a1.226,1.226,0,0,0,1.062.614H18.361a1.226,1.226,0,0,0,1.062-.614L20.9,43.259a.559.559,0,0,0-.483-.838H9.44a.926.926,0,0,1-.8-.464L5.249,36.083a.929.929,0,0,1,0-.928" transform="translate(0 -24.289)" fill="#6cc8ea"/>
        <path id="Path_62" data-name="Path 62" d="M36.178,2.444H25.112a1.226,1.226,0,0,0-1.062.614L22.569,5.626a.559.559,0,0,0,.483.838H34.033a.927.927,0,0,1,.8.464L38.223,12.8a.928.928,0,0,1-.8,1.391H30.807a1.225,1.225,0,0,0-1.062.614l-1.481,2.568a.559.559,0,0,0,.483.838H39.566a1.226,1.226,0,0,0,1.062-.614l2.145-3.72a1.229,1.229,0,0,0,0-1.227L37.24,3.058a1.225,1.225,0,0,0-1.062-.614" transform="translate(-17.818 -1.935)" fill="#57bc00"/>
        <path id="Path_63" data-name="Path 63" d="M393.742,228.172a2.159,2.159,0,0,0-.63-.462,2.848,2.848,0,0,0-1.24-.258,3.05,3.05,0,0,0-1.5.367,2.83,2.83,0,0,0-1.056.988,2.7,2.7,0,0,0,0,2.786,2.786,2.786,0,0,0,1.056.981,3.086,3.086,0,0,0,1.5.362,2.893,2.893,0,0,0,1.247-.261,2.114,2.114,0,0,0,.623-.433v.585l1.4,0v-5.264h-1.4ZM392.1,231.8a1.915,1.915,0,0,1-.895-.2,1.538,1.538,0,0,1-.611-.565,1.669,1.669,0,0,1,0-1.667,1.538,1.538,0,0,1,.611-.565,1.911,1.911,0,0,1,.9-.2,1.937,1.937,0,0,1,.907.2,1.5,1.5,0,0,1,.6.565,1.593,1.593,0,0,1,.217.833,1.514,1.514,0,0,1-.476,1.152,1.752,1.752,0,0,1-1.254.45" transform="translate(-308.082 -180.116)" fill="#1f6ed4"/>
        <path id="Path_64" data-name="Path 64" d="M684.509,228.6a2.112,2.112,0,0,0-.637-.411,3.3,3.3,0,0,0-1.328-.248,3.4,3.4,0,0,0-1.534.34,2.728,2.728,0,0,0-1.075.924,2.31,2.31,0,0,0-.392,1.318,2.364,2.364,0,0,0,.392,1.329,2.7,2.7,0,0,0,1.075.934,3.4,3.4,0,0,0,1.534.34,3.266,3.266,0,0,0,1.314-.248,2.139,2.139,0,0,0,.651-.423v.562a1.153,1.153,0,0,1-.5.989,2.3,2.3,0,0,1-1.367.362,3.208,3.208,0,0,1-1.182-.195,2.536,2.536,0,0,1-.877-.583l-.956.778a3.039,3.039,0,0,0,1.221.837,4.81,4.81,0,0,0,1.766.3,4.556,4.556,0,0,0,1.752-.313,2.787,2.787,0,0,0,1.182-.869,2.085,2.085,0,0,0,.425-1.3v-4.97h-1.461Zm-.744,3.218a2.2,2.2,0,0,1-.929.184,2.244,2.244,0,0,1-.936-.185,1.472,1.472,0,0,1-.631-.518,1.425,1.425,0,0,1,0-1.539,1.488,1.488,0,0,1,.631-.513,2.247,2.247,0,0,1,.936-.184,2.2,2.2,0,0,1,.929.184,1.448,1.448,0,0,1,.618.513,1.475,1.475,0,0,1,0,1.545,1.449,1.449,0,0,1-.618.513" transform="translate(-538.281 -180.502)" fill="#1f6ed4"/>
        <path id="Path_65" data-name="Path 65" d="M648.622,228.288a3.94,3.94,0,0,0-1.7-.356,3.86,3.86,0,0,0-1.687.362,3.136,3.136,0,0,0-1.2.967,2.241,2.241,0,0,0-.444,1.362,2.289,2.289,0,0,0,.444,1.372,3.1,3.1,0,0,0,1.2.977,3.857,3.857,0,0,0,1.687.362h0a3.888,3.888,0,0,0,1.7-.364,3.094,3.094,0,0,0,1.2-.977,2.289,2.289,0,0,0,.444-1.372,2.266,2.266,0,0,0-.444-1.367,3.07,3.07,0,0,0-1.2-.967m-.087,3.143a1.558,1.558,0,0,1-.651.557,2.209,2.209,0,0,1-.962.2h0a2.175,2.175,0,0,1-.947-.2,1.558,1.558,0,0,1-.651-.557,1.453,1.453,0,0,1-.233-.807,1.4,1.4,0,0,1,.233-.8,1.584,1.584,0,0,1,.651-.546,2.349,2.349,0,0,1,1.905,0,1.645,1.645,0,0,1,.651.546,1.372,1.372,0,0,1,.239.8,1.451,1.451,0,0,1-.233.807" transform="translate(-509.801 -180.496)" fill="#1f6ed4"/>
        <path id="Path_66" data-name="Path 66" d="M563.556,228.266a3.532,3.532,0,0,0-1.574-.335,3.832,3.832,0,0,0-1.667.356,3.025,3.025,0,0,0-1.188.967,2.38,2.38,0,0,0,.006,2.761,3,3,0,0,0,1.209.968,4.071,4.071,0,0,0,1.72.351h0a4.32,4.32,0,0,0,1.4-.228,3.031,3.031,0,0,0,1.128-.67l-.929-.766a1.938,1.938,0,0,1-.71.41,2.842,2.842,0,0,1-.907.14,2.41,2.41,0,0,1-1.008-.2,1.553,1.553,0,0,1-.677-.567,1.526,1.526,0,0,1-.172-.378h4.753q.039-.162.059-.3a1.807,1.807,0,0,0,.02-.264,2.328,2.328,0,0,0-.392-1.328,2.686,2.686,0,0,0-1.075-.918m-3.207,1.5a1.494,1.494,0,0,1,.638-.546,2.25,2.25,0,0,1,.969-.195,2.088,2.088,0,0,1,.9.173,1.3,1.3,0,0,1,.564.5,1.682,1.682,0,0,1,.167.41H560.2a1.505,1.505,0,0,1,.147-.34" transform="translate(-442.55 -180.495)" fill="#1f6ed4"/>
        <rect id="Rectangle_89" data-name="Rectangle 89" width="1.461" height="7.778" transform="translate(131.12 44.953)" fill="#1f6ed4"/>
        <path id="Path_67" data-name="Path 67" d="M597.845,228.288a3.94,3.94,0,0,0-1.7-.356,3.861,3.861,0,0,0-1.687.362,3.136,3.136,0,0,0-1.2.967,2.241,2.241,0,0,0-.444,1.362,2.289,2.289,0,0,0,.444,1.372,3.1,3.1,0,0,0,1.2.977,3.858,3.858,0,0,0,1.687.362h0a3.886,3.886,0,0,0,1.7-.364,3.093,3.093,0,0,0,1.2-.977,2.289,2.289,0,0,0,.444-1.372,2.266,2.266,0,0,0-.444-1.367,3.069,3.069,0,0,0-1.2-.967m-.087,3.143a1.558,1.558,0,0,1-.651.557,2.208,2.208,0,0,1-.962.2h0a2.177,2.177,0,0,1-.946-.2,1.558,1.558,0,0,1-.651-.557,1.451,1.451,0,0,1-.233-.807,1.4,1.4,0,0,1,.233-.8,1.584,1.584,0,0,1,.651-.546,2.349,2.349,0,0,1,1.905,0,1.645,1.645,0,0,1,.651.546,1.37,1.37,0,0,1,.239.8,1.452,1.452,0,0,1-.233.807" transform="translate(-469.579 -180.496)" fill="#1f6ed4"/>
        <path id="Path_68" data-name="Path 68" d="M492.4,228.256a3.531,3.531,0,0,0-1.574-.335,3.834,3.834,0,0,0-1.669.358,3.023,3.023,0,0,0-1.188.968,2.38,2.38,0,0,0,.006,2.761,3,3,0,0,0,1.209.967,4.068,4.068,0,0,0,1.72.351h0a4.327,4.327,0,0,0,1.4-.23,3.03,3.03,0,0,0,1.128-.67l-.929-.767a1.938,1.938,0,0,1-.711.411,2.841,2.841,0,0,1-.907.14,2.408,2.408,0,0,1-1.008-.2,1.55,1.55,0,0,1-.677-.567,1.529,1.529,0,0,1-.172-.378h4.753q.039-.162.059-.3a1.786,1.786,0,0,0,.02-.264,2.328,2.328,0,0,0-.392-1.328,2.686,2.686,0,0,0-1.075-.918m-3.207,1.5a1.5,1.5,0,0,1,.638-.546,2.25,2.25,0,0,1,.969-.195,2.088,2.088,0,0,1,.9.173,1.293,1.293,0,0,1,.564.5,1.68,1.68,0,0,1,.167.41H489.05a1.5,1.5,0,0,1,.147-.34" transform="translate(-386.188 -180.487)" fill="#1f6ed4"/>
        <path id="Path_69" data-name="Path 69" d="M526.738,219.174a2.239,2.239,0,0,0-.657-.436,3.12,3.12,0,0,0-1.295-.254,3.331,3.331,0,0,0-1.56.362,2.891,2.891,0,0,0-1.1.972,2.538,2.538,0,0,0,0,2.745,2.847,2.847,0,0,0,1.1.967,3.376,3.376,0,0,0,1.56.356h0a3.169,3.169,0,0,0,1.3-.247,2.177,2.177,0,0,0,.652-.429v.567H528.2V216h-1.461Zm-.764,3.387a2.12,2.12,0,0,1-.949.2h0a2.089,2.089,0,0,1-.936-.2,1.575,1.575,0,0,1-.638-.557,1.564,1.564,0,0,1,0-1.642,1.574,1.574,0,0,1,.638-.557,2.122,2.122,0,0,1,.949-.2,2.088,2.088,0,0,1,.936.2,1.526,1.526,0,0,1,.631.557,1.606,1.606,0,0,1,0,1.642,1.526,1.526,0,0,1-.631.557" transform="translate(-413.267 -171.047)" fill="#1f6ed4"/>
        <path id="Path_70" data-name="Path 70" d="M441.277,220.444l-3.519-3.421H436.7v7.565h1.53v-5.013l2.522,2.129.546.567.516-.567,2.522-2.129v5.013h1.526v-7.565H444.8Z" transform="translate(-345.916 -171.858)" fill="#1f6ed4"/>
        <path id="Path_71" data-name="Path 71" d="M736.389,228.458H734.7L733.35,230.1l-1.4-1.643h-1.766l2.234,2.532-2.353,2.654h1.7l1.5-1.782,1.489,1.782h1.752l-2.311-2.666Z" transform="translate(-578.304 -180.912)" fill="#1f6ed4"/>
        <path id="Path_72" data-name="Path 72" d="M721.826,223.891h0Z" transform="translate(-571.773 -177.296)" fill="#1f6ed4"/>
        <path id="Path_73" data-name="Path 73" d="M718.539,217.1a.931.931,0,0,0-.618.2.64.64,0,0,0,0,1.009,1.056,1.056,0,0,0,1.241,0,.652.652,0,0,0,0-1.009.924.924,0,0,0-.624-.2" transform="translate(-568.486 -171.918)" fill="#1f6ed4"/>
        <rect id="Rectangle_90" data-name="Rectangle 90" width="1.461" height="5.186" transform="translate(149.322 47.545)" fill="#1f6ed4"/>
        <path id="Path_74" data-name="Path 74" d="M1007.976,229.266l-1.7,3.173-1.607-3.173h-1.581l2.385,4.382-1.573,2.517h1.59l1.163-1.978h0l2.913-4.921Z" transform="translate(-794.57 -181.553)" fill="#1f6ed4"/>
        <path id="Path_75" data-name="Path 75" d="M938.189,229.447a2.186,2.186,0,0,0-.647-.429,3.2,3.2,0,0,0-1.274-.238,3.408,3.408,0,0,0-1.536.34,2.807,2.807,0,0,0-1.084.913,2.261,2.261,0,0,0,0,2.576,2.768,2.768,0,0,0,1.084.908,3.456,3.456,0,0,0,1.535.335,3.254,3.254,0,0,0,1.28-.238,2.132,2.132,0,0,0,.641-.4v.54l1.437,0v-4.87h-1.437ZM936.5,232.8h0a2.136,2.136,0,0,1-.92-.188,1.529,1.529,0,0,1-.627-.522,1.413,1.413,0,0,1,0-1.542,1.529,1.529,0,0,1,.627-.522,2.141,2.141,0,0,1,.921-.188,2.173,2.173,0,0,1,.934.188,1.483,1.483,0,0,1,.621.522,1.364,1.364,0,0,1,.222.771,1.335,1.335,0,0,1-.49,1.065,1.92,1.92,0,0,1-1.286.416" transform="translate(-739.245 -181.167)" fill="#1f6ed4"/>
        <path id="Path_76" data-name="Path 76" d="M976.156,229.04a2.731,2.731,0,0,0-1.254-.28,3.021,3.021,0,0,0-1.247.248,2.111,2.111,0,0,0-.614.4v-.546H971.6v4.87h1.437V230.88a.962.962,0,0,1,.177-.537,1.2,1.2,0,0,1,.511-.392,1.853,1.853,0,0,1,.745-.142,1.611,1.611,0,0,1,1.026.315.978.978,0,0,1,.4.8v2.81l1.43,0v-3.054a1.562,1.562,0,0,0-.313-.918,2.324,2.324,0,0,0-.862-.72" transform="translate(-769.629 -181.152)" fill="#1f6ed4"/>
        <path id="Path_77" data-name="Path 77" d="M947.782,253.152h0Z" transform="translate(-750.758 -200.468)" fill="#1f6ed4"/>
        <path id="Path_78" data-name="Path 78" d="M903.589,229.12a3.409,3.409,0,0,0-1.535-.34,3.214,3.214,0,0,0-1.268.238,2.189,2.189,0,0,0-.653.41v-.549H898.7v6.9l1.437,0v-2.572a2.13,2.13,0,0,0,.64.4,3.249,3.249,0,0,0,1.281.238,3.45,3.45,0,0,0,1.535-.335,2.768,2.768,0,0,0,1.084-.908,2.26,2.26,0,0,0,0-2.576,2.806,2.806,0,0,0-1.084-.913m-.222,2.967a1.529,1.529,0,0,1-.627.523,2.137,2.137,0,0,1-.921.188h0a2.183,2.183,0,0,1-.927-.187,1.475,1.475,0,0,1-.627-.523,1.451,1.451,0,0,1,0-1.541,1.475,1.475,0,0,1,.627-.523,2.185,2.185,0,0,1,.928-.188,2.14,2.14,0,0,1,.921.188,1.529,1.529,0,0,1,.627.523,1.413,1.413,0,0,1,0,1.541" transform="translate(-711.877 -181.168)" fill="#1f6ed4"/>
        <path id="Path_79" data-name="Path 79" d="M781.415,232.652a2.684,2.684,0,0,1-.842.127,2.262,2.262,0,0,1-.947-.188,1.53,1.53,0,0,1-.64-.517,1.371,1.371,0,0,1,0-1.519,1.546,1.546,0,0,1,.64-.512,2.262,2.262,0,0,1,.947-.188,2.684,2.684,0,0,1,.842.128,1.774,1.774,0,0,1,.66.38l.941-.74a3.043,3.043,0,0,0-1.078-.625,4.166,4.166,0,0,0-1.365-.218,4.08,4.08,0,0,0-1.679.335,2.936,2.936,0,0,0-1.182.908,2.147,2.147,0,0,0,0,2.581,2.923,2.923,0,0,0,1.182.913,4.083,4.083,0,0,0,1.679.335,4.171,4.171,0,0,0,1.367-.216,3.044,3.044,0,0,0,1.078-.625l-.941-.74a1.776,1.776,0,0,1-.66.38" transform="translate(-615.7 -181.168)" fill="#1f6ed4"/>
        <path id="Path_80" data-name="Path 80" d="M812.209,229.115a4.034,4.034,0,0,0-1.673-.335,3.948,3.948,0,0,0-1.659.34,3.062,3.062,0,0,0-1.182.908,2.04,2.04,0,0,0-.437,1.278,2.082,2.082,0,0,0,.437,1.288,3.022,3.022,0,0,0,1.182.918,4.253,4.253,0,0,0,3.332,0,3.023,3.023,0,0,0,1.182-.918,2.108,2.108,0,0,0,0-2.571,3,3,0,0,0-1.182-.908m-.086,2.951a1.513,1.513,0,0,1-.64.523,2.259,2.259,0,0,1-.947.188v0a2.224,2.224,0,0,1-.934-.192,1.511,1.511,0,0,1-.64-.523,1.317,1.317,0,0,1-.229-.76,1.272,1.272,0,0,1,.229-.751,1.547,1.547,0,0,1,.64-.512,2.431,2.431,0,0,1,1.875,0,1.6,1.6,0,0,1,.64.512,1.246,1.246,0,0,1,.235.75,1.316,1.316,0,0,1-.229.761" transform="translate(-639.447 -181.167)" fill="#1f6ed4"/>
        <path id="Path_81" data-name="Path 81" d="M853.156,229a3.232,3.232,0,0,0-1.228-.223,3.183,3.183,0,0,0-1.221.228,2.372,2.372,0,0,0-.862.6,2.033,2.033,0,0,0-.819-.6,3.1,3.1,0,0,0-1.2-.223,3.037,3.037,0,0,0-1.2.228,2.058,2.058,0,0,0-.6.393v-.519h-1.437v4.87h1.437v-2.9a.856.856,0,0,1,.183-.553,1.158,1.158,0,0,1,.49-.35,1.883,1.883,0,0,1,.7-.122,1.67,1.67,0,0,1,.966.269.865.865,0,0,1,.392.756v2.9h1.437v-2.9a.857.857,0,0,1,.183-.553,1.154,1.154,0,0,1,.5-.35,1.9,1.9,0,0,1,.692-.122,1.67,1.67,0,0,1,.966.269.865.865,0,0,1,.392.756v2.9h1.44V230.6a1.505,1.505,0,0,0-.327-.974,2.122,2.122,0,0,0-.876-.63" transform="translate(-669.014 -181.164)" fill="#1f6ed4"/>
      </g>
    </g>
  </g>
</svg>
