<svg xmlns="http://www.w3.org/2000/svg" width="215" height="53"><defs><clipPath id="b"><path data-name="Rectangle 10700" fill="none" d="M0 0h215v53H0z"/></clipPath><clipPath id="a"><path d="M0 0h215v53H0z"/></clipPath></defs><g data-name="Group 1" clip-path="url(#a)"><g data-name="Group 11168" clip-path="url(#b)"><path data-name="Path 26701" d="M30.008 20.969a9.672 9.672 0 0 1-2.791-1.541l1.933-2.651a9.214 9.214 0 0 0 2.074 1.233 5.279 5.279 0 0 0 2.011.4 2.7 2.7 0 0 0 1.59-.385 1.273 1.273 0 0 0 .53-1.094 1.12 1.12 0 0 0-.421-.863 4.378 4.378 0 0 0-1.2-.694q-.78-.323-1.559-.632A9.845 9.845 0 0 1 29.166 13a3.462 3.462 0 0 1-1.169-2.728 4.206 4.206 0 0 1 1.59-3.406 6.412 6.412 0 0 1 4.21-1.31 8.526 8.526 0 0 1 5.332 1.911l-1.9 2.528A5.952 5.952 0 0 0 33.924 8.7a2.365 2.365 0 0 0-1.45.37 1.179 1.179 0 0 0-.483.986 1.146 1.146 0 0 0 .624 1 7.05 7.05 0 0 0 1.434.663q.81.277 1.06.37a9.61 9.61 0 0 1 3.1 1.711 3.637 3.637 0 0 1 1.138 2.882 4.359 4.359 0 0 1-.733 2.482 5.02 5.02 0 0 1-2.136 1.742 7.99 7.99 0 0 1-3.368.647 9.044 9.044 0 0 1-3.1-.586" fill="#6cc8ea"/><path data-name="Path 26702" d="M56.423 14.653H43.961a4.09 4.09 0 0 0 1.442 2.592 4.559 4.559 0 0 0 2.991.962 5.2 5.2 0 0 0 3.737-1.5l3.268 1.517a7.689 7.689 0 0 1-2.927 2.536 9.245 9.245 0 0 1-4.05.822 8.053 8.053 0 0 1-5.926-2.269 7.674 7.674 0 0 1-2.288-5.683 7.933 7.933 0 0 1 2.281-5.809 7.705 7.705 0 0 1 5.72-2.311 7.994 7.994 0 0 1 5.94 2.311 8.3 8.3 0 0 1 2.288 6.1Zm-3.879-3.02a3.849 3.849 0 0 0-1.516-2.079 4.43 4.43 0 0 0-2.626-.8 4.68 4.68 0 0 0-2.847.9 5.016 5.016 0 0 0-1.424 1.981Z" fill="#6cc8ea"/><path data-name="Path 26703" d="m73.538 8.991-3.229 1.756a4.818 4.818 0 0 0-3.884-1.672 4.888 4.888 0 0 0-3.521 1.283 4.347 4.347 0 0 0-1.345 3.289 4.2 4.2 0 0 0 1.295 3.184 4.723 4.723 0 0 0 3.4 1.234 4.968 4.968 0 0 0 4.055-1.756l3.059 2.071a8.378 8.378 0 0 1-7.02 3.2 8.469 8.469 0 0 1-6.387-2.388 7.956 7.956 0 0 1-1.187-9.68 7.885 7.885 0 0 1 3.133-2.936 9.44 9.44 0 0 1 4.5-1.068 9.208 9.208 0 0 1 4.135.906 7.823 7.823 0 0 1 3 2.578" fill="#6cc8ea"/><path data-name="Path 26704" d="M83.127 5.51a8.27 8.27 0 0 1 4.114 1.082 7.917 7.917 0 0 1 4.086 6.94 7.955 7.955 0 0 1-1.087 4.046 7.8 7.8 0 0 1-2.963 2.943 8.256 8.256 0 0 1-4.135 1.061 8.008 8.008 0 0 1-8.029-8.022 7.694 7.694 0 0 1 2.657-5.971 7.812 7.812 0 0 1 5.357-2.079m.064 3.61a4.015 4.015 0 0 0-3.01 1.243 4.386 4.386 0 0 0-1.2 3.182 4.467 4.467 0 0 0 1.189 3.231 4 4 0 0 0 3.011 1.236 4.044 4.044 0 0 0 3.032-1.25 4.435 4.435 0 0 0 1.21-3.217 4.406 4.406 0 0 0-1.189-3.2 4.044 4.044 0 0 0-3.039-1.229" fill="#6cc8ea"/><path data-name="Path 26705" d="M93.331 5.9h3.879v1.566a9.322 9.322 0 0 1 2.391-1.53 5.832 5.832 0 0 1 2.192-.43 5.338 5.338 0 0 1 3.9 1.588 5.413 5.413 0 0 1 1.348 3.99v10.1h-3.837v-6.692a16.737 16.737 0 0 0-.248-3.634 2.482 2.482 0 0 0-.865-1.368 2.438 2.438 0 0 0-1.524-.47 2.874 2.874 0 0 0-2.02.779 4.142 4.142 0 0 0-1.17 2.154 17.2 17.2 0 0 0-.17 3.1v6.132h-3.879Z" fill="#6cc8ea"/><path data-name="Path 26706" d="M121.042 0h3.879v21.186h-3.879V19.57a7.615 7.615 0 0 1-2.278 1.538 6.443 6.443 0 0 1-2.477.471 6.916 6.916 0 0 1-5.181-2.3 7.962 7.962 0 0 1-2.186-5.711 8.156 8.156 0 0 1 2.115-5.8 6.773 6.773 0 0 1 5.138-2.262 6.6 6.6 0 0 1 2.612.52 7.132 7.132 0 0 1 2.257 1.559Zm-4.078 9.047a3.941 3.941 0 0 0-2.988 1.257 4.5 4.5 0 0 0-1.19 3.224 4.548 4.548 0 0 0 1.211 3.259 3.944 3.944 0 0 0 2.981 1.278 4.018 4.018 0 0 0 3.031-1.257 4.565 4.565 0 0 0 1.2-3.295 4.435 4.435 0 0 0-1.2-3.231 4.069 4.069 0 0 0-3.045-1.236" fill="#6cc8ea"/><path data-name="Path 26707" d="M129.196 20.969a9.676 9.676 0 0 1-2.791-1.541l1.929-2.651a9.209 9.209 0 0 0 2.074 1.233 5.278 5.278 0 0 0 2.011.4 2.7 2.7 0 0 0 1.591-.385 1.273 1.273 0 0 0 .53-1.094 1.119 1.119 0 0 0-.421-.863 4.373 4.373 0 0 0-1.2-.694q-.78-.323-1.559-.632A9.846 9.846 0 0 1 128.351 13a3.462 3.462 0 0 1-1.169-2.728 4.206 4.206 0 0 1 1.591-3.406 6.411 6.411 0 0 1 4.209-1.31 8.526 8.526 0 0 1 5.332 1.911l-1.9 2.528a5.952 5.952 0 0 0-3.305-1.295 2.364 2.364 0 0 0-1.45.37 1.179 1.179 0 0 0-.484.986 1.146 1.146 0 0 0 .624 1 7.051 7.051 0 0 0 1.435.663q.81.277 1.06.37a9.608 9.608 0 0 1 3.1 1.711 3.637 3.637 0 0 1 1.138 2.882 4.36 4.36 0 0 1-.733 2.482 5.019 5.019 0 0 1-2.136 1.742 7.99 7.99 0 0 1-3.368.647 9.044 9.044 0 0 1-3.1-.586" fill="#6cc8ea"/><path data-name="Path 26708" d="M147.383 5.51a8.27 8.27 0 0 1 4.114 1.082 7.917 7.917 0 0 1 4.086 6.94 7.955 7.955 0 0 1-1.087 4.046 7.8 7.8 0 0 1-2.963 2.943 8.256 8.256 0 0 1-4.135 1.061 8.008 8.008 0 0 1-8.029-8.022 7.694 7.694 0 0 1 2.657-5.971 7.812 7.812 0 0 1 5.357-2.079m.064 3.61a4.015 4.015 0 0 0-3.01 1.243 4.386 4.386 0 0 0-1.2 3.182 4.467 4.467 0 0 0 1.189 3.231 4 4 0 0 0 3.01 1.234 4.044 4.044 0 0 0 3.032-1.25 4.435 4.435 0 0 0 1.21-3.217 4.406 4.406 0 0 0-1.189-3.2 4.043 4.043 0 0 0-3.039-1.229" fill="#6cc8ea"/><path data-name="Path 26709" d="M157.573 5.9h3.922v7.361a10.089 10.089 0 0 0 .3 2.985 2.606 2.606 0 0 0 .962 1.3 2.772 2.772 0 0 0 1.631.464 2.873 2.873 0 0 0 1.646-.457 2.68 2.68 0 0 0 1-1.342 10.163 10.163 0 0 0 .242-2.824V5.9h3.88v6.477a15.714 15.714 0 0 1-.64 5.479 5.993 5.993 0 0 1-2.3 2.76 7.11 7.11 0 0 1-3.865.962 6.914 6.914 0 0 1-4.114-1.124 5.937 5.937 0 0 1-2.209-3.133 18.77 18.77 0 0 1-.455-5.057Z" fill="#6cc8ea"/><path data-name="Path 26710" d="M172.978 5.9h3.325v1.925a4.119 4.119 0 0 1 1.435-1.728 3.491 3.491 0 0 1 1.961-.59 3.666 3.666 0 0 1 1.577.393l-1.208 3.3a2.692 2.692 0 0 0-1.123-.337 1.776 1.776 0 0 0-1.513 1.1 9.921 9.921 0 0 0-.618 4.3l.014.745v6.181h-3.851Z" fill="#6cc8ea"/><path data-name="Path 26711" d="m197.166 8.991-3.23 1.756a4.819 4.819 0 0 0-3.884-1.672 4.888 4.888 0 0 0-3.521 1.283 4.347 4.347 0 0 0-1.344 3.289 4.2 4.2 0 0 0 1.295 3.184 4.723 4.723 0 0 0 3.4 1.234 4.969 4.969 0 0 0 4.057-1.755l3.059 2.071a8.378 8.378 0 0 1-7.02 3.2 8.469 8.469 0 0 1-6.387-2.388 7.956 7.956 0 0 1-1.187-9.68 7.886 7.886 0 0 1 3.133-2.936 9.44 9.44 0 0 1 4.5-1.068 9.21 9.21 0 0 1 4.135.906 7.827 7.827 0 0 1 3 2.578" fill="#6cc8ea"/><path data-name="Path 26712" d="M214.986 14.653h-12.462a4.09 4.09 0 0 0 1.442 2.592 4.559 4.559 0 0 0 2.991.962 5.2 5.2 0 0 0 3.737-1.5l3.268 1.517a7.689 7.689 0 0 1-2.927 2.536 9.245 9.245 0 0 1-4.05.822 8.053 8.053 0 0 1-5.926-2.269 7.674 7.674 0 0 1-2.288-5.683 7.932 7.932 0 0 1 2.281-5.809 7.705 7.705 0 0 1 5.725-2.31 7.994 7.994 0 0 1 5.94 2.311 8.3 8.3 0 0 1 2.288 6.1Zm-3.879-3.02a3.85 3.85 0 0 0-1.516-2.079 4.43 4.43 0 0 0-2.626-.8 4.681 4.681 0 0 0-2.847.9 5.016 5.016 0 0 0-1.424 1.981Z" fill="#6cc8ea"/><path data-name="Path 26713" d="M126.598 30.862h3.143v1.423a5.358 5.358 0 0 1 1.792-1.309 5.286 5.286 0 0 1 2.148-.433 4.031 4.031 0 0 1 2.12.569 4.134 4.134 0 0 1 1.521 1.662 4.971 4.971 0 0 1 4.217-2.231 4.443 4.443 0 0 1 2.35.615 3.565 3.565 0 0 1 1.457 1.6 8.488 8.488 0 0 1 .443 3.221v7.261h-3.166v-6.282a5.324 5.324 0 0 0-.53-2.851 1.82 1.82 0 0 0-1.589-.745 2.429 2.429 0 0 0-1.445.455 2.693 2.693 0 0 0-.95 1.258 7.732 7.732 0 0 0-.311 2.578v5.588h-3.166v-6a8.358 8.358 0 0 0-.248-2.407 2.175 2.175 0 0 0-.744-1.11 1.972 1.972 0 0 0-1.2-.364 2.384 2.384 0 0 0-1.425.461 2.752 2.752 0 0 0-.958 1.292 7.9 7.9 0 0 0-.317 2.618v5.509h-3.142Z" fill="#57bc00"/><path data-name="Path 26714" d="M160.388 37.952h-10.092a3.312 3.312 0 0 0 1.168 2.1 3.693 3.693 0 0 0 2.423.78 4.215 4.215 0 0 0 3.028-1.218l2.648 1.229a6.226 6.226 0 0 1-2.372 2.054 7.488 7.488 0 0 1-3.281.666 6.524 6.524 0 0 1-4.8-1.838 6.218 6.218 0 0 1-1.853-4.6 6.427 6.427 0 0 1 1.848-4.706 6.242 6.242 0 0 1 4.634-1.872 6.476 6.476 0 0 1 4.812 1.872 6.725 6.725 0 0 1 1.853 4.945Zm-3.143-2.447a3.12 3.12 0 0 0-1.228-1.684 3.589 3.589 0 0 0-2.128-.649 3.793 3.793 0 0 0-2.306.728 4.068 4.068 0 0 0-1.153 1.6Z" fill="#57bc00"/><path data-name="Path 26715" d="M171.235 26.081h3.143v17.163h-3.143v-1.309a6.161 6.161 0 0 1-1.846 1.246 5.218 5.218 0 0 1-2.006.381 5.6 5.6 0 0 1-4.2-1.861 6.45 6.45 0 0 1-1.771-4.627 6.608 6.608 0 0 1 1.713-4.7 5.487 5.487 0 0 1 4.163-1.832 5.345 5.345 0 0 1 2.116.421 5.782 5.782 0 0 1 1.828 1.263Zm-3.3 7.33a3.194 3.194 0 0 0-2.421 1.019 4.033 4.033 0 0 0 .017 5.253 3.2 3.2 0 0 0 2.415 1.036 3.254 3.254 0 0 0 2.455-1.019 3.7 3.7 0 0 0 .975-2.669 3.594 3.594 0 0 0-.975-2.618 3.3 3.3 0 0 0-2.467-1" fill="#57bc00"/><path data-name="Path 26716" d="M177.835 25.763a1.932 1.932 0 0 1 1.417.592 1.955 1.955 0 0 1 .591 1.434 1.931 1.931 0 0 1-.586 1.417 1.909 1.909 0 0 1-1.4.586 1.936 1.936 0 0 1-1.429-.6 1.987 1.987 0 0 1-.591-1.451 1.9 1.9 0 0 1 .585-1.4 1.933 1.933 0 0 1 1.412-.58m-1.571 5.1h3.143v12.384h-3.142Z" fill="#57bc00"/><path data-name="Path 26717" d="m193.58 33.366-2.616 1.423a3.9 3.9 0 0 0-3.147-1.354 3.96 3.96 0 0 0-2.853 1.04 3.522 3.522 0 0 0-1.089 2.664 3.4 3.4 0 0 0 1.049 2.58 3.826 3.826 0 0 0 2.755 1 4.026 4.026 0 0 0 3.285-1.423l2.478 1.677a6.786 6.786 0 0 1-5.687 2.59 6.861 6.861 0 0 1-5.175-1.935 6.446 6.446 0 0 1-.961-7.842 6.388 6.388 0 0 1 2.539-2.379 7.646 7.646 0 0 1 3.643-.865 7.458 7.458 0 0 1 3.35.734 6.336 6.336 0 0 1 2.429 2.088" fill="#57bc00"/><path data-name="Path 26718" d="M204.713 30.862h3.144v12.383h-3.143v-1.309a6.165 6.165 0 0 1-1.846 1.246 5.221 5.221 0 0 1-2.007.381 5.6 5.6 0 0 1-4.2-1.861 6.449 6.449 0 0 1-1.771-4.627 6.609 6.609 0 0 1 1.713-4.7 5.488 5.488 0 0 1 4.162-1.832 5.344 5.344 0 0 1 2.115.421 5.783 5.783 0 0 1 1.829 1.263Zm-3.3 2.549a3.194 3.194 0 0 0-2.421 1.019 4.033 4.033 0 0 0 .017 5.253 3.194 3.194 0 0 0 2.415 1.036 3.254 3.254 0 0 0 2.455-1.019 3.7 3.7 0 0 0 .976-2.669 3.594 3.594 0 0 0-.976-2.618 3.3 3.3 0 0 0-2.467-1" fill="#57bc00"/><path data-name="Rectangle 10697" fill="#57bc00" d="M209.745 26.081h3.143v17.163h-3.143z"/><path data-name="Path 26719" d="M5.249 10.732a.929.929 0 0 1 .8-.458h6.592a1.229 1.229 0 0 0 1.062-.606l1.483-2.536a.552.552 0 0 0-.483-.827H2.836a1.229 1.229 0 0 0-1.062.606L.164 9.667a1.2 1.2 0 0 0 0 1.212L6.233 21.27a1.229 1.229 0 0 0 1.062.606h11.066a1.229 1.229 0 0 0 1.062-.606l1.477-2.538a.552.552 0 0 0-.483-.827H9.44a.928.928 0 0 1-.8-.458l-3.388-5.8a.907.907 0 0 1 0-.916" fill="#6cc8ea"/><path data-name="Path 26720" d="M18.36.502H7.294a1.229 1.229 0 0 0-1.062.606L4.751 3.644a.552.552 0 0 0 .483.827h10.981a.929.929 0 0 1 .8.458l3.388 5.8a.907.907 0 0 1 0 .916.928.928 0 0 1-.8.458h-6.614a1.228 1.228 0 0 0-1.062.606l-1.481 2.536a.552.552 0 0 0 .483.827h10.819a1.229 1.229 0 0 0 1.062-.606l2.145-3.673a1.2 1.2 0 0 0 0-1.212l-5.533-9.473A1.228 1.228 0 0 0 18.36.502" fill="#57bc00"/><path data-name="Path 26721" d="M129.567 48.47a1.42 1.42 0 0 0-.416-.3 1.9 1.9 0 0 0-.819-.169 2.034 2.034 0 0 0-.988.239 1.86 1.86 0 0 0-.7.644 1.739 1.739 0 0 0 0 1.817 1.834 1.834 0 0 0 .7.64 2.061 2.061 0 0 0 .988.236 1.934 1.934 0 0 0 .824-.17 1.4 1.4 0 0 0 .411-.283v.381h.924v-3.434h-.924Zm-1.084 2.363a1.276 1.276 0 0 1-.591-.133 1.023 1.023 0 0 1 0-1.824 1.279 1.279 0 0 1 .592-.132 1.3 1.3 0 0 1 .6.132.984.984 0 0 1 .4.368 1.03 1.03 0 0 1 .143.544.981.981 0 0 1-.315.751 1.167 1.167 0 0 1-.828.293" fill="#1f6ed4"/><path data-name="Path 26722" d="M169.573 48.497a1.4 1.4 0 0 0-.421-.268 2.205 2.205 0 0 0-.877-.162 2.266 2.266 0 0 0-1.013.222 1.794 1.794 0 0 0-.71.6 1.494 1.494 0 0 0-.259.86 1.527 1.527 0 0 0 .259.867 1.774 1.774 0 0 0 .71.609 2.263 2.263 0 0 0 1.013.222 2.181 2.181 0 0 0 .868-.162 1.416 1.416 0 0 0 .43-.276v.367a.749.749 0 0 1-.333.645 1.536 1.536 0 0 1-.9.236 2.144 2.144 0 0 1-.781-.127 1.678 1.678 0 0 1-.579-.38l-.632.507a2.011 2.011 0 0 0 .807.546 3.218 3.218 0 0 0 1.167.194 3.044 3.044 0 0 0 1.157-.2 1.839 1.839 0 0 0 .781-.567 1.348 1.348 0 0 0 .281-.849v-3.242h-.965Zm-.491 2.1a1.47 1.47 0 0 1-.614.12 1.5 1.5 0 0 1-.618-.12.969.969 0 0 1-.417-.338.919.919 0 0 1 0-1 .98.98 0 0 1 .417-.335 1.5 1.5 0 0 1 .618-.12 1.469 1.469 0 0 1 .614.12.953.953 0 0 1 .408.335.952.952 0 0 1 0 1.008.953.953 0 0 1-.408.335" fill="#1f6ed4"/><path data-name="Path 26723" d="M164.681 48.298a2.629 2.629 0 0 0-1.123-.232 2.576 2.576 0 0 0-1.114.236 2.067 2.067 0 0 0-.794.631 1.451 1.451 0 0 0-.294.888 1.481 1.481 0 0 0 .294.895 2.038 2.038 0 0 0 .794.638 2.576 2.576 0 0 0 1.114.236 2.6 2.6 0 0 0 1.124-.238 2.039 2.039 0 0 0 .794-.638 1.506 1.506 0 0 0 0-1.786 2.023 2.023 0 0 0-.794-.631m-.057 2.05a1.025 1.025 0 0 1-.43.363 1.471 1.471 0 0 1-.636.132 1.452 1.452 0 0 1-.626-.132 1.025 1.025 0 0 1-.43-.363.938.938 0 0 1-.154-.526.9.9 0 0 1 .154-.522 1.045 1.045 0 0 1 .43-.356 1.571 1.571 0 0 1 1.259 0 1.084 1.084 0 0 1 .43.356.888.888 0 0 1 .158.522.938.938 0 0 1-.154.526" fill="#1f6ed4"/><path data-name="Path 26724" d="M152.914 48.286a2.361 2.361 0 0 0-1.04-.218 2.559 2.559 0 0 0-1.1.232 1.991 1.991 0 0 0-.785.631 1.536 1.536 0 0 0 0 1.8 1.977 1.977 0 0 0 .8.631 2.718 2.718 0 0 0 1.136.229 2.89 2.89 0 0 0 .926-.149 2.01 2.01 0 0 0 .745-.437l-.614-.5a1.284 1.284 0 0 1-.469.268 1.9 1.9 0 0 1-.6.091 1.609 1.609 0 0 1-.666-.132 1.023 1.023 0 0 1-.447-.37.983.983 0 0 1-.113-.247h3.139q.026-.106.039-.194a1.157 1.157 0 0 0 .013-.172 1.506 1.506 0 0 0-.259-.867 1.771 1.771 0 0 0-.71-.6m-2.119.976a.985.985 0 0 1 .421-.356 1.5 1.5 0 0 1 .64-.127 1.391 1.391 0 0 1 .592.113.851.851 0 0 1 .373.324 1.088 1.088 0 0 1 .11.268h-2.234a.984.984 0 0 1 .1-.222" fill="#1f6ed4"/><path data-name="Rectangle 10698" fill="#1f6ed4" d="M159.595 46.446h.965v5.074h-.965z"/><path data-name="Path 26725" d="M157.709 48.298a2.629 2.629 0 0 0-1.123-.232 2.576 2.576 0 0 0-1.114.236 2.068 2.068 0 0 0-.794.631 1.45 1.45 0 0 0-.293.888 1.48 1.48 0 0 0 .293.895 2.039 2.039 0 0 0 .794.638 2.576 2.576 0 0 0 1.114.236 2.6 2.6 0 0 0 1.125-.238 2.039 2.039 0 0 0 .794-.638 1.505 1.505 0 0 0 0-1.786 2.024 2.024 0 0 0-.794-.631m-.057 2.05a1.025 1.025 0 0 1-.43.363 1.471 1.471 0 0 1-.636.132 1.456 1.456 0 0 1-.625-.132 1.024 1.024 0 0 1-.43-.363.937.937 0 0 1-.154-.526.9.9 0 0 1 .154-.522 1.044 1.044 0 0 1 .43-.356 1.571 1.571 0 0 1 1.259 0 1.084 1.084 0 0 1 .43.356.887.887 0 0 1 .158.522.938.938 0 0 1-.154.526" fill="#1f6ed4"/><path data-name="Path 26726" d="M143.144 48.283a2.358 2.358 0 0 0-1.04-.218 2.56 2.56 0 0 0-1.1.234 1.991 1.991 0 0 0-.785.631 1.537 1.537 0 0 0 0 1.8 1.977 1.977 0 0 0 .8.631 2.719 2.719 0 0 0 1.136.229 2.882 2.882 0 0 0 .927-.15 2.007 2.007 0 0 0 .745-.437l-.614-.5a1.281 1.281 0 0 1-.469.268 1.892 1.892 0 0 1-.6.091 1.606 1.606 0 0 1-.666-.132 1.023 1.023 0 0 1-.447-.37.985.985 0 0 1-.113-.247h3.139q.026-.106.039-.194a1.174 1.174 0 0 0 .013-.172 1.506 1.506 0 0 0-.259-.867 1.77 1.77 0 0 0-.71-.6m-2.118.976a.985.985 0 0 1 .421-.356 1.5 1.5 0 0 1 .64-.127 1.394 1.394 0 0 1 .592.112.852.852 0 0 1 .373.324 1.08 1.08 0 0 1 .11.268h-2.234a.979.979 0 0 1 .1-.222" fill="#1f6ed4"/><path data-name="Path 26727" d="M147.937 48.516a1.482 1.482 0 0 0-.434-.285 2.083 2.083 0 0 0-.855-.166 2.227 2.227 0 0 0-1.03.236 1.9 1.9 0 0 0-.728.634 1.638 1.638 0 0 0 0 1.79 1.875 1.875 0 0 0 .728.631 2.255 2.255 0 0 0 1.03.232 2.118 2.118 0 0 0 .859-.161 1.445 1.445 0 0 0 .431-.28v.37h.965v-5.071h-.965Zm-.5 2.209a1.415 1.415 0 0 1-.627.132 1.4 1.4 0 0 1-.618-.132 1.037 1.037 0 0 1-.421-.363 1.01 1.01 0 0 1 0-1.071 1.038 1.038 0 0 1 .421-.363 1.418 1.418 0 0 1 .627-.132 1.4 1.4 0 0 1 .618.132 1 1 0 0 1 .417.363 1.037 1.037 0 0 1 0 1.071 1 1 0 0 1-.417.363" fill="#1f6ed4"/><path data-name="Path 26728" d="m135.974 48.816-2.325-2.231h-.7v4.935h1.01v-3.27l1.666 1.389.361.37.341-.37 1.666-1.389v3.27h1.006v-4.935h-.7Z" fill="#1f6ed4"/><path data-name="Path 26729" d="M177.406 48.138h-1.114l-.893 1.071-.922-1.071h-1.167l1.476 1.651-1.554 1.731h1.123l.99-1.162.984 1.162h1.157l-1.527-1.739Z" fill="#1f6ed4"/><path data-name="Path 26730" d="M172.1 47.517Z" fill="#1f6ed4"/><path data-name="Path 26731" d="M172.1 46.596a.621.621 0 0 0-.408.132.415.415 0 0 0 0 .658.7.7 0 0 0 .82 0 .422.422 0 0 0 0-.658.615.615 0 0 0-.412-.132" fill="#1f6ed4"/><path data-name="Rectangle 10699" fill="#1f6ed4" d="M171.617 48.137h.965v3.383h-.965z"/><path data-name="Path 26732" d="m213.948 48.247-1.122 2.07-1.061-2.07h-1.044l1.576 2.858-1.039 1.642h1.05l.768-1.29 1.924-3.21Z" fill="#1f6ed4"/><path data-name="Path 26733" d="M204.393 48.616a1.442 1.442 0 0 0-.427-.28 2.138 2.138 0 0 0-.841-.155 2.28 2.28 0 0 0-1.014.222 1.846 1.846 0 0 0-.716.6 1.458 1.458 0 0 0 0 1.68 1.821 1.821 0 0 0 .716.592 2.305 2.305 0 0 0 1.014.218 2.172 2.172 0 0 0 .846-.155 1.409 1.409 0 0 0 .423-.263v.352h.949V48.24h-.95Zm-1.113 2.185a1.428 1.428 0 0 1-.608-.122 1.007 1.007 0 0 1-.414-.341.912.912 0 0 1 0-1.005 1.007 1.007 0 0 1 .414-.341 1.427 1.427 0 0 1 .608-.122 1.45 1.45 0 0 1 .617.122.978.978 0 0 1 .41.341.881.881 0 0 1 .146.5.866.866 0 0 1-.323.695 1.279 1.279 0 0 1-.85.271" fill="#1f6ed4"/><path data-name="Path 26734" d="M209.404 48.361a1.824 1.824 0 0 0-.829-.182 2.018 2.018 0 0 0-.824.162 1.4 1.4 0 0 0-.405.262v-.353h-.949v3.177h.949v-1.862a.621.621 0 0 1 .117-.351.794.794 0 0 1 .337-.256 1.233 1.233 0 0 1 .492-.093 1.074 1.074 0 0 1 .678.205.636.636 0 0 1 .266.523v1.833h.944V49.43a1.012 1.012 0 0 0-.207-.6 1.53 1.53 0 0 0-.57-.47" fill="#1f6ed4"/><path data-name="Path 26735" d="M203.126 51.489Z" fill="#1f6ed4"/><path data-name="Path 26736" d="M199.617 48.403a2.275 2.275 0 0 0-1.014-.222 2.15 2.15 0 0 0-.837.155 1.444 1.444 0 0 0-.431.268v-.358h-.949v4.5h.949v-1.678a1.41 1.41 0 0 0 .423.262 2.169 2.169 0 0 0 .846.155 2.305 2.305 0 0 0 1.014-.218 1.82 1.82 0 0 0 .716-.592 1.458 1.458 0 0 0 0-1.68 1.845 1.845 0 0 0-.716-.6m-.148 1.945a1.007 1.007 0 0 1-.414.341 1.427 1.427 0 0 1-.608.122 1.454 1.454 0 0 1-.612-.122.971.971 0 0 1-.414-.341.937.937 0 0 1 0-1.005.971.971 0 0 1 .414-.341 1.457 1.457 0 0 1 .613-.122 1.427 1.427 0 0 1 .608.122 1.008 1.008 0 0 1 .414.341.912.912 0 0 1 0 1.005" fill="#1f6ed4"/><path data-name="Path 26737" d="M182.446 50.706a1.794 1.794 0 0 1-.557.083 1.507 1.507 0 0 1-.626-.122 1.01 1.01 0 0 1-.423-.337.885.885 0 0 1 0-.991 1.02 1.02 0 0 1 .423-.334 1.512 1.512 0 0 1 .625-.122 1.786 1.786 0 0 1 .557.084 1.17 1.17 0 0 1 .436.248l.622-.483a2.017 2.017 0 0 0-.712-.407 2.785 2.785 0 0 0-.9-.142 2.726 2.726 0 0 0-1.109.218 1.939 1.939 0 0 0-.781.592 1.387 1.387 0 0 0 0 1.684 1.929 1.929 0 0 0 .781.6 2.726 2.726 0 0 0 1.109.218 2.784 2.784 0 0 0 .9-.141 2.015 2.015 0 0 0 .712-.407l-.622-.483a1.177 1.177 0 0 1-.436.248" fill="#1f6ed4"/><path data-name="Path 26738" d="M187.1 48.399a2.7 2.7 0 0 0-1.1-.218 2.641 2.641 0 0 0-1.1.222 2.02 2.02 0 0 0-.781.592 1.323 1.323 0 0 0-.289.834 1.349 1.349 0 0 0 .289.84 1.993 1.993 0 0 0 .781.6 2.842 2.842 0 0 0 2.2 0 1.993 1.993 0 0 0 .781-.6 1.362 1.362 0 0 0 0-1.677 1.98 1.98 0 0 0-.781-.592m-.057 1.925a1 1 0 0 1-.423.341 1.513 1.513 0 0 1-.626.122 1.486 1.486 0 0 1-.617-.125.994.994 0 0 1-.423-.341.851.851 0 0 1-.151-.5.821.821 0 0 1 .151-.49 1.019 1.019 0 0 1 .423-.334 1.624 1.624 0 0 1 1.239 0 1.058 1.058 0 0 1 .423.334.806.806 0 0 1 .155.49.852.852 0 0 1-.151.5" fill="#1f6ed4"/><path data-name="Path 26739" d="M194.618 48.326a2.164 2.164 0 0 0-.811-.146 2.13 2.13 0 0 0-.807.149 1.568 1.568 0 0 0-.57.388 1.339 1.339 0 0 0-.541-.392 2.07 2.07 0 0 0-.794-.146 2.029 2.029 0 0 0-.794.149 1.363 1.363 0 0 0-.4.256v-.342h-.949v3.177h.949v-1.893a.555.555 0 0 1 .121-.36.765.765 0 0 1 .323-.228 1.26 1.26 0 0 1 .462-.08 1.112 1.112 0 0 1 .638.176.563.563 0 0 1 .259.493v1.893h.949v-1.893a.554.554 0 0 1 .121-.36.764.764 0 0 1 .328-.228 1.271 1.271 0 0 1 .457-.08 1.112 1.112 0 0 1 .638.176.561.561 0 0 1 .259.493v1.893h.951v-2.049a.974.974 0 0 0-.216-.636 1.4 1.4 0 0 0-.578-.411" fill="#1f6ed4"/></g></g></svg>