<svg xmlns="http://www.w3.org/2000/svg" xmlns:xlink="http://www.w3.org/1999/xlink" width="230" height="60" viewBox="0 0 230 60">
  <defs>
    <clipPath id="clip-path">
      <rect id="Rectangle_91" data-name="Rectangle 91" width="230" height="60" fill="#666"/>
    </clipPath>
    <clipPath id="clip-secondsource-medical-logo-gray">
      <rect width="230" height="60"/>
    </clipPath>
  </defs>
  <g id="secondsource-medical-logo-gray" clip-path="url(#clip-secondsource-medical-logo-gray)">
    <g id="Group_11105" data-name="Group 11105" opacity="0.506">
      <g id="Group_7180" data-name="Group 7180" clip-path="url(#clip-path)">
        <path id="Path_43" data-name="Path 43" d="M133.914,44.063a10.257,10.257,0,0,1-2.985-1.7L133,39.432a9.793,9.793,0,0,0,2.218,1.362,5.492,5.492,0,0,0,2.152.443,2.817,2.817,0,0,0,1.7-.426,1.422,1.422,0,0,0,.567-1.209,1.253,1.253,0,0,0-.45-.954,4.653,4.653,0,0,0-1.284-.766q-.834-.357-1.668-.7a10.46,10.46,0,0,1-3.219-1.924,3.884,3.884,0,0,1-1.251-3.014,4.708,4.708,0,0,1,1.7-3.763,6.714,6.714,0,0,1,4.5-1.447,8.944,8.944,0,0,1,5.7,2.111l-2.035,2.792a6.25,6.25,0,0,0-3.536-1.43,2.47,2.47,0,0,0-1.551.409,1.317,1.317,0,0,0-.517,1.09,1.271,1.271,0,0,0,.667,1.107,7.433,7.433,0,0,0,1.534.732q.867.306,1.134.409a10.2,10.2,0,0,1,3.319,1.89A4.086,4.086,0,0,1,143.9,39.33a4.93,4.93,0,0,1-.784,2.742A5.412,5.412,0,0,1,140.836,44a8.314,8.314,0,0,1-3.6.715,9.4,9.4,0,0,1-3.319-.647" transform="translate(-101.813 -20.898)" fill="#666"/>
        <path id="Path_44" data-name="Path 44" d="M210.77,36.9H197.438a4.556,4.556,0,0,0,1.543,2.864,4.777,4.777,0,0,0,3.2,1.063,5.475,5.475,0,0,0,4-1.661l3.5,1.676a8.307,8.307,0,0,1-3.132,2.8,9.623,9.623,0,0,1-4.332.908,8.468,8.468,0,0,1-6.339-2.506,8.623,8.623,0,0,1-2.448-6.278,8.918,8.918,0,0,1,2.44-6.417,8.111,8.111,0,0,1,6.119-2.553,8.408,8.408,0,0,1,6.355,2.553,9.337,9.337,0,0,1,2.447,6.744Zm-4.15-3.337a4.247,4.247,0,0,0-1.622-2.3,4.635,4.635,0,0,0-2.81-.885,4.9,4.9,0,0,0-3.045.993,5.534,5.534,0,0,0-1.523,2.188Z" transform="translate(-150.411 -20.713)" fill="#666"/>
        <path id="Path_45" data-name="Path 45" d="M294.3,30.646l-3.455,1.94a5.87,5.87,0,0,0-1.925-1.443,5.68,5.68,0,0,0-2.23-.4,5.134,5.134,0,0,0-3.767,1.418,4.882,4.882,0,0,0-1.438,3.634,4.72,4.72,0,0,0,1.385,3.518,4.961,4.961,0,0,0,3.637,1.364,5.242,5.242,0,0,0,4.338-1.94l3.272,2.287a9.938,9.938,0,0,1-14.343.894,9.011,9.011,0,0,1-1.269-10.693,8.552,8.552,0,0,1,3.352-3.244,9.84,9.84,0,0,1,4.811-1.179,9.591,9.591,0,0,1,4.424,1,8.451,8.451,0,0,1,3.208,2.848" transform="translate(-215.64 -20.713)" fill="#666"/>
        <path id="Path_46" data-name="Path 46" d="M369.9,26.8a8.8,8.8,0,0,1,7.616,4.438,8.858,8.858,0,0,1,1.155,4.423,9.009,9.009,0,0,1-1.163,4.47,8.48,8.48,0,0,1-3.17,3.252,8.614,8.614,0,0,1-4.424,1.172,8.167,8.167,0,0,1-6.073-2.584,8.664,8.664,0,0,1-2.516-6.278,8.624,8.624,0,0,1,2.843-6.6,8.212,8.212,0,0,1,5.731-2.3m.068,3.988a4.228,4.228,0,0,0-3.22,1.374,4.934,4.934,0,0,0-1.287,3.515,5.028,5.028,0,0,0,1.272,3.57,4.209,4.209,0,0,0,3.221,1.366,4.259,4.259,0,0,0,3.243-1.381,4.99,4.99,0,0,0,1.294-3.554,4.959,4.959,0,0,0-1.272-3.531,4.257,4.257,0,0,0-3.251-1.358" transform="translate(-280.976 -20.714)" fill="#666"/>
        <path id="Path_47" data-name="Path 47" d="M448.969,27.232h4.15v1.73a9.934,9.934,0,0,1,2.558-1.69,6.067,6.067,0,0,1,2.345-.475,5.619,5.619,0,0,1,4.175,1.754,6.1,6.1,0,0,1,1.442,4.408V44.117h-4.1V36.723a19.079,19.079,0,0,0-.266-4.015,2.753,2.753,0,0,0-.925-1.511,2.552,2.552,0,0,0-1.63-.519,3.021,3.021,0,0,0-2.161.86,4.619,4.619,0,0,0-1.251,2.38,19.6,19.6,0,0,0-.182,3.426v6.774h-4.15Z" transform="translate(-349.127 -20.713)" fill="#666"/>
        <path id="Path_48" data-name="Path 48" d="M536.933,0h4.15V23.4h-4.15V21.62a8.136,8.136,0,0,1-2.437,1.7,6.7,6.7,0,0,1-2.65.52A7.3,7.3,0,0,1,526.3,21.3a8.957,8.957,0,0,1-2.338-6.309,9.183,9.183,0,0,1,2.262-6.41,7.144,7.144,0,0,1,5.5-2.5,6.864,6.864,0,0,1,2.794.574,7.628,7.628,0,0,1,2.414,1.723ZM532.57,10a4.153,4.153,0,0,0-3.2,1.389,5.068,5.068,0,0,0-1.273,3.562,5.119,5.119,0,0,0,1.3,3.6,4.158,4.158,0,0,0,3.189,1.412,4.232,4.232,0,0,0,3.242-1.389,5.139,5.139,0,0,0,1.288-3.64,4.991,4.991,0,0,0-1.288-3.569A4.284,4.284,0,0,0,532.57,10" transform="translate(-407.446 -0.001)" fill="#666"/>
        <path id="Path_49" data-name="Path 49" d="M611.057,44.063a10.262,10.262,0,0,1-2.986-1.7l2.068-2.929a9.79,9.79,0,0,0,2.218,1.362,5.492,5.492,0,0,0,2.151.443,2.817,2.817,0,0,0,1.7-.426,1.422,1.422,0,0,0,.567-1.209,1.253,1.253,0,0,0-.451-.954,4.649,4.649,0,0,0-1.284-.766q-.834-.357-1.668-.7a10.462,10.462,0,0,1-3.219-1.924,3.884,3.884,0,0,1-1.251-3.014,4.708,4.708,0,0,1,1.7-3.763,6.714,6.714,0,0,1,4.5-1.447,8.945,8.945,0,0,1,5.7,2.111l-2.035,2.792a6.251,6.251,0,0,0-3.536-1.43,2.469,2.469,0,0,0-1.551.409,1.318,1.318,0,0,0-.517,1.09,1.272,1.272,0,0,0,.667,1.107,7.435,7.435,0,0,0,1.535.732q.867.306,1.134.409a10.193,10.193,0,0,1,3.319,1.89,4.085,4.085,0,0,1,1.218,3.184,4.929,4.929,0,0,1-.784,2.742A5.41,5.41,0,0,1,617.978,44a8.314,8.314,0,0,1-3.6.715,9.4,9.4,0,0,1-3.319-.647" transform="translate(-472.848 -20.898)" fill="#666"/>
        <path id="Path_50" data-name="Path 50" d="M679.006,26.8a8.8,8.8,0,0,1,7.616,4.438,8.858,8.858,0,0,1,1.156,4.423,9.009,9.009,0,0,1-1.163,4.47,8.48,8.48,0,0,1-3.17,3.252,8.614,8.614,0,0,1-4.424,1.172,8.167,8.167,0,0,1-6.073-2.584,8.665,8.665,0,0,1-2.516-6.278,8.624,8.624,0,0,1,2.843-6.6,8.212,8.212,0,0,1,5.731-2.3m.068,3.988a4.229,4.229,0,0,0-3.221,1.374,4.935,4.935,0,0,0-1.287,3.515,5.028,5.028,0,0,0,1.271,3.57,4.21,4.21,0,0,0,3.221,1.366,4.259,4.259,0,0,0,3.243-1.381,4.991,4.991,0,0,0,1.294-3.554,4.958,4.958,0,0,0-1.272-3.531,4.257,4.257,0,0,0-3.251-1.358" transform="translate(-521.341 -20.714)" fill="#666"/>
        <path id="Path_51" data-name="Path 51" d="M758.005,28.711h4.2v8.132a11.492,11.492,0,0,0,.32,3.3,2.752,2.752,0,0,0,2.774,1.948,3,3,0,0,0,1.76-.5,2.952,2.952,0,0,0,1.074-1.482,11.58,11.58,0,0,0,.259-3.119V28.711h4.15v7.155a17.89,17.89,0,0,1-.684,6.053,6.573,6.573,0,0,1-2.463,3.049,7.418,7.418,0,0,1-4.135,1.063,7.225,7.225,0,0,1-4.4-1.242,6.558,6.558,0,0,1-2.363-3.461,21.389,21.389,0,0,1-.487-5.587Z" transform="translate(-589.439 -22.193)" fill="#666"/>
        <path id="Path_52" data-name="Path 52" d="M832.112,27.232h3.557v2.126a4.518,4.518,0,0,1,1.535-1.909,3.651,3.651,0,0,1,2.1-.652,3.822,3.822,0,0,1,1.687.435L839.7,30.879a2.813,2.813,0,0,0-1.2-.372,1.9,1.9,0,0,0-1.619,1.211,11.281,11.281,0,0,0-.661,4.749l.015.823v6.829h-4.12Z" transform="translate(-647.066 -20.713)" fill="#666"/>
        <path id="Path_53" data-name="Path 53" d="M889.035,30.646l-3.455,1.94a5.868,5.868,0,0,0-1.926-1.443,5.676,5.676,0,0,0-2.23-.4,5.135,5.135,0,0,0-3.767,1.418,4.882,4.882,0,0,0-1.438,3.634,4.72,4.72,0,0,0,1.385,3.518,4.96,4.96,0,0,0,3.637,1.364,5.242,5.242,0,0,0,4.338-1.94l3.273,2.287a9.938,9.938,0,0,1-14.343.894A9.011,9.011,0,0,1,873.24,31.22a8.554,8.554,0,0,1,3.352-3.244A9.84,9.84,0,0,1,881.4,26.8a9.592,9.592,0,0,1,4.424,1,8.453,8.453,0,0,1,3.208,2.848" transform="translate(-678.114 -20.713)" fill="#666"/>
        <path id="Path_54" data-name="Path 54" d="M973.54,36.9H960.208a4.556,4.556,0,0,0,1.543,2.864,4.777,4.777,0,0,0,3.2,1.063,5.475,5.475,0,0,0,4-1.661l3.5,1.676a8.307,8.307,0,0,1-3.132,2.8,9.624,9.624,0,0,1-4.333.908,8.468,8.468,0,0,1-6.339-2.506,8.623,8.623,0,0,1-2.448-6.278,8.918,8.918,0,0,1,2.44-6.417,8.11,8.11,0,0,1,6.119-2.553,8.408,8.408,0,0,1,6.354,2.553,9.337,9.337,0,0,1,2.447,6.744Zm-4.15-3.337a4.249,4.249,0,0,0-1.622-2.3,4.635,4.635,0,0,0-2.81-.885,4.9,4.9,0,0,0-3.045.993,5.534,5.534,0,0,0-1.523,2.188Z" transform="translate(-743.555 -20.713)" fill="#666"/>
        <path id="Path_55" data-name="Path 55" d="M702.027,143.678h2.609V144.9a4.462,4.462,0,0,1,1.487-1.122,4.269,4.269,0,0,1,1.784-.371,3.267,3.267,0,0,1,1.759.488,3.5,3.5,0,0,1,1.262,1.424,4.249,4.249,0,0,1,1.525-1.424,4.1,4.1,0,0,1,1.975-.488,3.6,3.6,0,0,1,1.951.527,3.024,3.024,0,0,1,1.21,1.376,7.494,7.494,0,0,1,.368,2.761v6.224h-2.628v-5.385a4.689,4.689,0,0,0-.44-2.444,1.494,1.494,0,0,0-1.319-.639,1.972,1.972,0,0,0-1.2.39,2.3,2.3,0,0,0-.788,1.078,6.829,6.829,0,0,0-.258,2.209v4.79H708.7v-5.141a7.375,7.375,0,0,0-.206-2.063,1.869,1.869,0,0,0-.618-.951,1.6,1.6,0,0,0-1-.312,1.937,1.937,0,0,0-1.183.4,2.355,2.355,0,0,0-.795,1.107,6.975,6.975,0,0,0-.264,2.244v4.722h-2.609Z" transform="translate(-545.909 -110.848)" fill="#666"/>
        <path id="Path_56" data-name="Path 56" d="M790.02,149.756h-8.38a2.864,2.864,0,0,0,.97,1.8,3,3,0,0,0,2.011.668,3.441,3.441,0,0,0,2.513-1.044l2.2,1.053a5.221,5.221,0,0,1-1.968,1.761,6.048,6.048,0,0,1-2.723.571,5.322,5.322,0,0,1-3.985-1.576,5.42,5.42,0,0,1-1.538-3.946,5.606,5.606,0,0,1,1.534-4.034,5.1,5.1,0,0,1,3.846-1.6,5.285,5.285,0,0,1,3.994,1.6,5.869,5.869,0,0,1,1.538,4.239Zm-2.608-2.1a2.67,2.67,0,0,0-1.019-1.444,2.915,2.915,0,0,0-1.766-.556,3.08,3.08,0,0,0-1.914.624,3.479,3.479,0,0,0-.957,1.376Z" transform="translate(-605.856 -110.848)" fill="#666"/>
        <path id="Path_57" data-name="Path 57" d="M840.123,126.561h2.609v14.711h-2.609V140.15a5.107,5.107,0,0,1-1.532,1.068,4.211,4.211,0,0,1-1.665.327,4.585,4.585,0,0,1-3.484-1.595,5.63,5.63,0,0,1-1.47-3.966,5.773,5.773,0,0,1,1.422-4.029,4.491,4.491,0,0,1,3.455-1.571,4.314,4.314,0,0,1,1.756.361,4.8,4.8,0,0,1,1.518,1.083Zm-2.742,6.282a2.61,2.61,0,0,0-2.009.873,3.184,3.184,0,0,0-.8,2.239,3.218,3.218,0,0,0,.814,2.263,2.614,2.614,0,0,0,2,.888,2.66,2.66,0,0,0,2.038-.873,3.231,3.231,0,0,0,.809-2.288,3.139,3.139,0,0,0-.809-2.244,2.694,2.694,0,0,0-2.047-.858" transform="translate(-646.957 -97.828)" fill="#666"/>
        <path id="Path_58" data-name="Path 58" d="M887.473,125.358a1.58,1.58,0,0,1,1.177.507,1.7,1.7,0,0,1,.491,1.229,1.683,1.683,0,0,1-.486,1.215,1.56,1.56,0,0,1-1.162.5,1.583,1.583,0,0,1-1.186-.512,1.732,1.732,0,0,1-.491-1.244,1.655,1.655,0,0,1,.486-1.2,1.579,1.579,0,0,1,1.172-.5m-1.3,4.37h2.608v10.614h-2.608Z" transform="translate(-688.827 -96.898)" fill="#666"/>
        <path id="Path_59" data-name="Path 59" d="M914.677,145.824l-2.172,1.219a3.691,3.691,0,0,0-1.21-.907,3.573,3.573,0,0,0-1.4-.254,3.227,3.227,0,0,0-2.368.891,3.069,3.069,0,0,0-.9,2.284,2.967,2.967,0,0,0,.871,2.211,3.118,3.118,0,0,0,2.286.857,3.3,3.3,0,0,0,2.727-1.219l2.057,1.438a6.247,6.247,0,0,1-9.016.562,5.665,5.665,0,0,1-.8-6.721,5.377,5.377,0,0,1,2.107-2.039,6.188,6.188,0,0,1,3.024-.741,6.03,6.03,0,0,1,2.781.629,5.314,5.314,0,0,1,2.016,1.79" transform="translate(-702.963 -110.848)" fill="#666"/>
        <path id="Path_60" data-name="Path 60" d="M965.087,143.678H967.7v10.614h-2.609V153.17a5.113,5.113,0,0,1-1.532,1.068,4.212,4.212,0,0,1-1.665.327,4.586,4.586,0,0,1-3.484-1.595,5.63,5.63,0,0,1-1.47-3.966,5.774,5.774,0,0,1,1.422-4.029,4.492,4.492,0,0,1,3.455-1.571,4.312,4.312,0,0,1,1.756.361,4.8,4.8,0,0,1,1.518,1.083Zm-2.742,2.185a2.61,2.61,0,0,0-2.01.873,3.186,3.186,0,0,0-.8,2.239,3.218,3.218,0,0,0,.814,2.263,2.613,2.613,0,0,0,2,.888,2.659,2.659,0,0,0,2.038-.873,3.23,3.23,0,0,0,.81-2.288,3.137,3.137,0,0,0-.81-2.244,2.693,2.693,0,0,0-2.047-.858" transform="translate(-744.132 -110.848)" fill="#666"/>
        <rect id="Rectangle_88" data-name="Rectangle 88" width="2.609" height="14.711" transform="translate(225.131 28.733)" fill="#666"/>
        <path id="Path_61" data-name="Path 61" d="M5.615,35.563h0a.988.988,0,0,1,.858-.506h7.052a1.307,1.307,0,0,0,1.136-.669l1.584-2.8a.609.609,0,0,0-.517-.914H3.034a1.307,1.307,0,0,0-1.136.67L.176,34.388a1.364,1.364,0,0,0,0,1.339L6.667,47.205a1.307,1.307,0,0,0,1.136.67H19.642a1.307,1.307,0,0,0,1.136-.67l1.584-2.8a.609.609,0,0,0-.517-.914H10.1a.987.987,0,0,1-.858-.506L5.615,36.575a1.03,1.03,0,0,1,0-1.012" transform="translate(0 -23.709)" fill="#666"/>
        <path id="Path_62" data-name="Path 62" d="M37.133,2.444H25.294a1.307,1.307,0,0,0-1.136.67l-1.584,2.8a.609.609,0,0,0,.517.914H34.838a.988.988,0,0,1,.858.506l3.624,6.409a1.03,1.03,0,0,1,0,1.012.987.987,0,0,1-.858.506H31.387a1.306,1.306,0,0,0-1.136.67l-1.584,2.8a.609.609,0,0,0,.517.914H40.757a1.307,1.307,0,0,0,1.136-.669l2.295-4.058a1.364,1.364,0,0,0,0-1.339L38.268,3.114a1.306,1.306,0,0,0-1.136-.67" transform="translate(-17.491 -1.889)" fill="#666"/>
        <path id="Path_63" data-name="Path 63" d="M394.078,228.238a2.313,2.313,0,0,0-.674-.5,3,3,0,0,0-1.327-.282,3.212,3.212,0,0,0-1.6.4,3.053,3.053,0,0,0-1.13,1.077,2.99,2.99,0,0,0,0,3.039,3,3,0,0,0,1.13,1.071,3.25,3.25,0,0,0,1.6.4,3.044,3.044,0,0,0,1.334-.285,2.262,2.262,0,0,0,.666-.473v.638l1.5,0v-5.743h-1.5Zm-1.756,3.953a2.015,2.015,0,0,1-.957-.222,1.658,1.658,0,0,1-.653-.616,1.852,1.852,0,0,1,0-1.818,1.658,1.658,0,0,1,.653-.616,2.012,2.012,0,0,1,.959-.22,2.038,2.038,0,0,1,.97.22,1.613,1.613,0,0,1,.647.616,1.764,1.764,0,0,1,.232.909,1.668,1.668,0,0,1-.51,1.257,1.853,1.853,0,0,1-1.341.491" transform="translate(-302.441 -175.813)" fill="#666"/>
        <path id="Path_64" data-name="Path 64" d="M684.855,228.66a2.256,2.256,0,0,0-.681-.449,3.476,3.476,0,0,0-1.421-.271,3.574,3.574,0,0,0-1.641.371,2.934,2.934,0,0,0-1.15,1.008,2.556,2.556,0,0,0-.419,1.438,2.615,2.615,0,0,0,.419,1.449,2.9,2.9,0,0,0,1.15,1.019,3.575,3.575,0,0,0,1.641.371,3.434,3.434,0,0,0,1.406-.271,2.284,2.284,0,0,0,.7-.461v.613a1.265,1.265,0,0,1-.539,1.078,2.429,2.429,0,0,1-1.463.4,3.371,3.371,0,0,1-1.264-.212,2.71,2.71,0,0,1-.938-.636l-1.023.848a3.249,3.249,0,0,0,1.306.913,5.056,5.056,0,0,0,1.89.325,4.79,4.79,0,0,0,1.874-.341,2.986,2.986,0,0,0,1.264-.949,2.3,2.3,0,0,0,.455-1.421v-5.422h-1.563Zm-.8,3.51a2.31,2.31,0,0,1-.994.2,2.36,2.36,0,0,1-1-.2,1.581,1.581,0,0,1-.675-.566,1.58,1.58,0,0,1,0-1.679,1.6,1.6,0,0,1,.675-.56,2.363,2.363,0,0,1,1-.2,2.318,2.318,0,0,1,.994.2,1.557,1.557,0,0,1,.661.56,1.636,1.636,0,0,1,0,1.686,1.558,1.558,0,0,1-.661.56" transform="translate(-528.426 -176.19)" fill="#666"/>
        <path id="Path_65" data-name="Path 65" d="M648.973,228.321a4.146,4.146,0,0,0-1.818-.388,4.062,4.062,0,0,0-1.8.4,3.368,3.368,0,0,0-1.286,1.055,2.478,2.478,0,0,0-.475,1.486,2.531,2.531,0,0,0,.475,1.5,3.325,3.325,0,0,0,1.286,1.066,4.059,4.059,0,0,0,1.8.4h0a4.091,4.091,0,0,0,1.821-.4,3.324,3.324,0,0,0,1.286-1.066,2.531,2.531,0,0,0,.475-1.5,2.5,2.5,0,0,0-.475-1.491,3.3,3.3,0,0,0-1.286-1.055m-.093,3.429a1.676,1.676,0,0,1-.7.608,2.324,2.324,0,0,1-1.029.22h0a2.289,2.289,0,0,1-1.013-.22,1.676,1.676,0,0,1-.7-.608,1.609,1.609,0,0,1-.249-.88,1.55,1.55,0,0,1,.249-.873,1.7,1.7,0,0,1,.7-.6,2.468,2.468,0,0,1,2.038,0,1.769,1.769,0,0,1,.7.6,1.518,1.518,0,0,1,.255.873,1.606,1.606,0,0,1-.249.88" transform="translate(-500.467 -176.184)" fill="#666"/>
        <path id="Path_66" data-name="Path 66" d="M563.9,228.3a3.716,3.716,0,0,0-1.684-.365,4.033,4.033,0,0,0-1.783.388,3.249,3.249,0,0,0-1.271,1.055,2.638,2.638,0,0,0,.006,3.012,3.222,3.222,0,0,0,1.294,1.055,4.283,4.283,0,0,0,1.84.383h0a4.54,4.54,0,0,0,1.5-.249,3.23,3.23,0,0,0,1.207-.731l-.994-.836a2.064,2.064,0,0,1-.76.448,2.986,2.986,0,0,1-.97.153,2.535,2.535,0,0,1-1.078-.22,1.593,1.593,0,0,1-.908-1.031h5.084q.042-.177.064-.325a2.007,2.007,0,0,0,.022-.288,2.576,2.576,0,0,0-.419-1.449,2.89,2.89,0,0,0-1.15-1m-3.431,1.632a1.608,1.608,0,0,1,.682-.6,2.367,2.367,0,0,1,1.037-.212,2.2,2.2,0,0,1,.959.188,1.394,1.394,0,0,1,.6.543,1.855,1.855,0,0,1,.178.448h-3.618a1.66,1.66,0,0,1,.157-.371" transform="translate(-434.447 -176.183)" fill="#666"/>
        <rect id="Rectangle_89" data-name="Rectangle 89" width="1.563" height="8.485" transform="translate(140.268 49.039)" fill="#666"/>
        <path id="Path_67" data-name="Path 67" d="M598.2,228.321a4.146,4.146,0,0,0-1.818-.388,4.063,4.063,0,0,0-1.8.4,3.368,3.368,0,0,0-1.286,1.055,2.478,2.478,0,0,0-.475,1.486,2.531,2.531,0,0,0,.475,1.5,3.325,3.325,0,0,0,1.286,1.066,4.06,4.06,0,0,0,1.8.4h0a4.089,4.089,0,0,0,1.821-.4,3.322,3.322,0,0,0,1.286-1.066,2.53,2.53,0,0,0,.475-1.5,2.5,2.5,0,0,0-.475-1.491,3.3,3.3,0,0,0-1.286-1.055m-.093,3.429a1.676,1.676,0,0,1-.7.608,2.323,2.323,0,0,1-1.029.22h0a2.291,2.291,0,0,1-1.012-.22,1.676,1.676,0,0,1-.7-.608,1.607,1.607,0,0,1-.249-.88,1.549,1.549,0,0,1,.249-.873,1.7,1.7,0,0,1,.7-.6,2.468,2.468,0,0,1,2.038,0,1.768,1.768,0,0,1,.7.6,1.515,1.515,0,0,1,.256.873,1.607,1.607,0,0,1-.249.88" transform="translate(-460.982 -176.184)" fill="#666"/>
        <path id="Path_68" data-name="Path 68" d="M492.744,228.287a3.716,3.716,0,0,0-1.684-.365,4.035,4.035,0,0,0-1.785.39A3.248,3.248,0,0,0,488,229.367a2.638,2.638,0,0,0,.006,3.012,3.223,3.223,0,0,0,1.293,1.055,4.28,4.28,0,0,0,1.84.383h0a4.547,4.547,0,0,0,1.5-.251,3.229,3.229,0,0,0,1.207-.731l-.994-.836a2.064,2.064,0,0,1-.76.448,2.986,2.986,0,0,1-.97.153,2.533,2.533,0,0,1-1.078-.22,1.594,1.594,0,0,1-.908-1.031h5.085q.042-.177.064-.325a1.99,1.99,0,0,0,.022-.288,2.576,2.576,0,0,0-.419-1.449,2.89,2.89,0,0,0-1.15-1m-3.431,1.632a1.609,1.609,0,0,1,.682-.6,2.367,2.367,0,0,1,1.037-.213,2.2,2.2,0,0,1,.959.188,1.393,1.393,0,0,1,.6.543,1.853,1.853,0,0,1,.178.448h-3.618a1.657,1.657,0,0,1,.157-.371" transform="translate(-379.117 -176.175)" fill="#666"/>
        <path id="Path_69" data-name="Path 69" d="M527.088,219.463a2.392,2.392,0,0,0-.7-.476,3.282,3.282,0,0,0-1.385-.277,3.507,3.507,0,0,0-1.669.4,3.113,3.113,0,0,0-1.179,1.061,2.814,2.814,0,0,0,0,2.994,3.065,3.065,0,0,0,1.179,1.055A3.554,3.554,0,0,0,525,224.6h0a3.333,3.333,0,0,0,1.391-.27,2.325,2.325,0,0,0,.7-.468v.619h1.563V216h-1.563Zm-.817,3.694a2.231,2.231,0,0,1-1.015.22h0a2.2,2.2,0,0,1-1-.221,1.7,1.7,0,0,1-.682-.607,1.735,1.735,0,0,1,0-1.792,1.7,1.7,0,0,1,.682-.608,2.233,2.233,0,0,1,1.015-.22,2.2,2.2,0,0,1,1,.22,1.643,1.643,0,0,1,.675.608,1.781,1.781,0,0,1,0,1.792,1.644,1.644,0,0,1-.675.607" transform="translate(-405.7 -166.961)" fill="#666"/>
        <path id="Path_70" data-name="Path 70" d="M441.6,220.755l-3.764-3.732H436.7v8.253h1.636v-5.469l2.7,2.323.584.618.552-.618,2.7-2.323v5.469H446.5v-8.253h-1.136Z" transform="translate(-339.583 -167.752)" fill="#666"/>
        <path id="Path_71" data-name="Path 71" d="M736.83,228.458h-1.8l-1.447,1.791-1.493-1.792H730.2l2.39,2.762-2.517,2.9h1.818l1.6-1.944,1.593,1.944h1.875l-2.473-2.908Z" transform="translate(-567.716 -176.59)" fill="#666"/>
        <path id="Path_72" data-name="Path 72" d="M721.826,223.891h0Z" transform="translate(-561.305 -173.061)" fill="#666"/>
        <path id="Path_73" data-name="Path 73" d="M718.6,217.1a.983.983,0,0,0-.661.22.707.707,0,0,0,0,1.1,1.112,1.112,0,0,0,1.328,0,.72.72,0,0,0,0-1.1.976.976,0,0,0-.667-.22" transform="translate(-558.078 -167.811)" fill="#666"/>
        <rect id="Rectangle_90" data-name="Rectangle 90" width="1.563" height="5.657" transform="translate(159.74 51.867)" fill="#666"/>
        <path id="Path_74" data-name="Path 74" d="M1008.317,229.266l-1.817,3.462-1.719-3.462h-1.691l2.552,4.78-1.683,2.746h1.7l1.244-2.158h0l3.116-5.368Z" transform="translate(-780.022 -177.216)" fill="#666"/>
        <path id="Path_75" data-name="Path 75" d="M938.534,229.508a2.336,2.336,0,0,0-.692-.468,3.368,3.368,0,0,0-1.362-.26,3.587,3.587,0,0,0-1.643.371,3.019,3.019,0,0,0-1.16,1,2.506,2.506,0,0,0,0,2.81,2.976,2.976,0,0,0,1.16.991,3.637,3.637,0,0,0,1.642.365,3.421,3.421,0,0,0,1.369-.26,2.275,2.275,0,0,0,.686-.44v.589l1.537,0v-5.313h-1.537Zm-1.8,3.654h0a2.248,2.248,0,0,1-.984-.2,1.644,1.644,0,0,1-.67-.57,1.567,1.567,0,0,1,0-1.682,1.644,1.644,0,0,1,.67-.57,2.253,2.253,0,0,1,.985-.2,2.286,2.286,0,0,1,1,.2,1.6,1.6,0,0,1,.664.57,1.509,1.509,0,0,1,.237.841,1.468,1.468,0,0,1-.524,1.162,2.028,2.028,0,0,1-1.376.453" transform="translate(-725.709 -176.839)" fill="#666"/>
        <path id="Path_76" data-name="Path 76" d="M976.474,229.065a2.875,2.875,0,0,0-1.342-.3,3.178,3.178,0,0,0-1.335.271,2.254,2.254,0,0,0-.656.439v-.6H971.6v5.313h1.537v-3.115a1.063,1.063,0,0,1,.19-.586,1.289,1.289,0,0,1,.547-.428,1.949,1.949,0,0,1,.8-.155,1.7,1.7,0,0,1,1.1.343,1.074,1.074,0,0,1,.431.875v3.066l1.529,0v-3.332a1.726,1.726,0,0,0-.335-1,2.5,2.5,0,0,0-.923-.786" transform="translate(-755.538 -176.824)" fill="#666"/>
        <path id="Path_77" data-name="Path 77" d="M947.782,253.152h0Z" transform="translate(-737.012 -195.679)" fill="#666"/>
        <path id="Path_78" data-name="Path 78" d="M903.93,229.151a3.587,3.587,0,0,0-1.642-.371,3.38,3.38,0,0,0-1.356.26,2.335,2.335,0,0,0-.7.448v-.6H898.7v7.527l1.537,0v-2.806a2.273,2.273,0,0,0,.685.439,3.416,3.416,0,0,0,1.37.26,3.631,3.631,0,0,0,1.642-.365,2.977,2.977,0,0,0,1.16-.99,2.505,2.505,0,0,0,0-2.81,3.017,3.017,0,0,0-1.16-1m-.237,3.236a1.644,1.644,0,0,1-.67.57,2.248,2.248,0,0,1-.985.2h0a2.3,2.3,0,0,1-.992-.2,1.586,1.586,0,0,1-.67-.57,1.609,1.609,0,0,1,0-1.681,1.586,1.586,0,0,1,.67-.57,2.3,2.3,0,0,1,.993-.2,2.251,2.251,0,0,1,.985.2,1.644,1.644,0,0,1,.67.57,1.567,1.567,0,0,1,0,1.681" transform="translate(-698.843 -176.84)" fill="#666"/>
        <path id="Path_79" data-name="Path 79" d="M781.7,233a2.82,2.82,0,0,1-.9.139,2.379,2.379,0,0,1-1.013-.2,1.644,1.644,0,0,1-.685-.564,1.52,1.52,0,0,1,0-1.657,1.66,1.66,0,0,1,.684-.559,2.379,2.379,0,0,1,1.013-.2,2.82,2.82,0,0,1,.9.14,1.89,1.89,0,0,1,.706.415l1.007-.808a3.241,3.241,0,0,0-1.153-.681,4.378,4.378,0,0,0-1.461-.238,4.292,4.292,0,0,0-1.8.366,3.149,3.149,0,0,0-1.264.99,2.379,2.379,0,0,0,0,2.816,3.136,3.136,0,0,0,1.264,1,4.3,4.3,0,0,0,1.8.365,4.384,4.384,0,0,0,1.463-.235,3.242,3.242,0,0,0,1.153-.681l-1.007-.808a1.892,1.892,0,0,1-.706.415" transform="translate(-604.427 -176.84)" fill="#666"/>
        <path id="Path_80" data-name="Path 80" d="M812.555,229.145a4.243,4.243,0,0,0-1.789-.365,4.153,4.153,0,0,0-1.775.371,3.284,3.284,0,0,0-1.264.99,2.255,2.255,0,0,0-.468,1.394,2.3,2.3,0,0,0,.468,1.405,3.243,3.243,0,0,0,1.264,1,4.469,4.469,0,0,0,3.565,0,3.243,3.243,0,0,0,1.264-1,2.336,2.336,0,0,0,0-2.8,3.215,3.215,0,0,0-1.264-.99m-.092,3.22a1.625,1.625,0,0,1-.684.57,2.376,2.376,0,0,1-1.013.2v0a2.34,2.34,0,0,1-1-.209,1.623,1.623,0,0,1-.684-.57,1.456,1.456,0,0,1-.245-.83,1.407,1.407,0,0,1,.245-.819,1.661,1.661,0,0,1,.684-.559,2.555,2.555,0,0,1,2.006,0,1.722,1.722,0,0,1,.684.559,1.378,1.378,0,0,1,.251.819,1.456,1.456,0,0,1-.245.83" transform="translate(-627.739 -176.84)" fill="#666"/>
        <path id="Path_81" data-name="Path 81" d="M853.755,229.019a3.4,3.4,0,0,0-1.314-.243,3.347,3.347,0,0,0-1.307.249,2.537,2.537,0,0,0-.923.649,2.178,2.178,0,0,0-.876-.655,3.259,3.259,0,0,0-1.286-.243,3.193,3.193,0,0,0-1.286.249,2.2,2.2,0,0,0-.642.428v-.566h-1.537V234.2h1.537v-3.166a.946.946,0,0,1,.2-.6,1.24,1.24,0,0,1,.524-.382,1.98,1.98,0,0,1,.748-.133,1.761,1.761,0,0,1,1.034.294.949.949,0,0,1,.419.824V234.2h1.537v-3.166a.948.948,0,0,1,.2-.6,1.235,1.235,0,0,1,.531-.382,2,2,0,0,1,.74-.133,1.761,1.761,0,0,1,1.034.294.95.95,0,0,1,.419.824V234.2h1.54v-3.431a1.664,1.664,0,0,0-.349-1.063,2.272,2.272,0,0,0-.937-.687" transform="translate(-656.765 -176.836)" fill="#666"/>
      </g>
    </g>
  </g>
</svg>
