<svg xmlns="http://www.w3.org/2000/svg" xmlns:xlink="http://www.w3.org/1999/xlink" width="30" height="40" viewBox="0 0 30 40">
  <defs>
    <clipPath id="clip-icon-download-file">
      <rect width="30" height="40"/>
    </clipPath>
  </defs>
  <g id="icon-download-file" clip-path="url(#clip-icon-download-file)">
    <g id="document">
      <path id="Path_2108" data-name="Path 2108" d="M61.577,43.823A.574.574,0,0,1,61,43.251v-1.68a.577.577,0,0,1,1.154,0v1.68A.574.574,0,0,1,61.577,43.823Z" transform="translate(-32.154 -18.714)" fill="#57646e"/>
      <path id="Path_2109" data-name="Path 2109" d="M40.423,42H11.577A.574.574,0,0,1,11,41.429V2.571A.574.574,0,0,1,11.577,2H32.346a.58.58,0,0,1,.408.167l8.077,8a.569.569,0,0,1,.169.4v10.28a.577.577,0,0,1-1.154,0V10.808L32.107,3.143H12.154V40.857H39.846v-4.64a.577.577,0,0,1,1.154,0v5.211A.574.574,0,0,1,40.423,42Z" transform="translate(-11 -2)" fill="#57646e"/>
      <path id="Path_2110" data-name="Path 2110" d="M61.577,53.763A.574.574,0,0,1,61,53.191v-1.68a.577.577,0,0,1,1.154,0v1.68A.574.574,0,0,1,61.577,53.763Z" transform="translate(-32.154 -22.974)" fill="#57646e"/>
      <path id="Path_2111" data-name="Path 2111" d="M55.654,11.143H47.577A.574.574,0,0,1,47,10.571v-8a.577.577,0,0,1,1.154,0V10h7.5a.571.571,0,1,1,0,1.143Z" transform="translate(-26.231 -2)" fill="#57646e"/>
      <path id="Path_2112" data-name="Path 2112" d="M39.346,36.143H18.577a.571.571,0,1,1,0-1.143H39.346a.571.571,0,1,1,0,1.143Z" transform="translate(-13.962 -16.143)" fill="#57646e"/>
      <path id="Path_2113" data-name="Path 2113" d="M39.346,26.143H18.577a.571.571,0,1,1,0-1.143H39.346a.571.571,0,1,1,0,1.143Z" transform="translate(-13.962 -11.857)" fill="#57646e"/>
      <path id="Path_2114" data-name="Path 2114" d="M31.269,16.143H18.577a.571.571,0,1,1,0-1.143H31.269a.571.571,0,1,1,0,1.143Z" transform="translate(-13.962 -7.571)" fill="#57646e"/>
      <path id="Union_6" data-name="Union 6" d="M.578,12.572A.574.574,0,0,1,0,12V9.364a.577.577,0,0,1,1.155,0V11.43H13.018V9.364a.577.577,0,0,1,1.154,0V12a.574.574,0,0,1-.576.571Zm6.48-2.878H7.029l-.018,0H7l-.019,0-.01,0-.018,0-.01,0-.017,0-.01,0L6.9,9.664l-.012,0-.014-.006-.012,0-.013-.006-.012-.005-.014-.007-.011-.006L6.8,9.618,6.79,9.613,6.771,9.6l0,0a.579.579,0,0,1-.1-.08L3.983,6.857a.567.567,0,0,1,0-.808.58.58,0,0,1,.816,0l1.71,1.693V.572a.577.577,0,0,1,1.154,0V7.744l1.71-1.694a.58.58,0,0,1,.816,0,.567.567,0,0,1,0,.808L7.495,9.527a.583.583,0,0,1-.105.082l0,0-.012.007-.014.008,0,0a.576.576,0,0,1-.239.064H7.058Z" transform="translate(7.914 22.857)" fill="#57bc00"/>
    </g>
  </g>
</svg>
